<svg width="237" height="29" viewBox="0 0 237 29" fill="none" xmlns="http://www.w3.org/2000/svg">
<g clip-path="url(#clip0_78_266)">
<path d="M13.89 28.8402C12.0471 28.8529 10.2209 28.4907 8.52244 27.7756C6.82397 27.0604 5.28869 26.0073 4.00996 24.6802C2.72104 23.3598 1.70202 21.8007 1.00996 20.0902C0.290585 18.2804 -0.0694468 16.3477 -0.0500362 14.4002C-0.0675337 12.4724 0.29257 10.5597 1.00996 8.77022C1.70699 7.06826 2.72558 5.51662 4.00996 4.20022C5.26573 2.8966 6.76369 1.8504 8.41996 1.12022C10.1445 0.367232 12.0082 -0.0143748 13.89 0.000219665C17.1113 -0.146732 20.2635 0.964965 22.68 3.10022C22.8539 3.22414 23.006 3.37623 23.13 3.55022C23.2286 3.69245 23.2998 3.85185 23.34 4.02022C23.3829 4.20371 23.4031 4.3918 23.4 4.58022C23.4029 4.79252 23.3608 5.00304 23.2763 5.19784C23.1918 5.39263 23.067 5.56727 22.91 5.71022C22.5729 6.02566 22.1311 6.20529 21.6695 6.21452C21.208 6.22375 20.7593 6.06194 20.41 5.76022C19.5829 5.03918 18.6526 4.44595 17.65 4.00022C16.4501 3.54725 15.1715 3.33982 13.89 3.39022C12.5099 3.38199 11.1447 3.67551 9.88995 4.25022C8.64684 4.82345 7.52629 5.63162 6.58996 6.63022C5.63738 7.64949 4.88737 8.84066 4.37996 10.1402C3.84672 11.4967 3.57855 12.9428 3.58996 14.4002C3.57661 15.8741 3.84473 17.3369 4.37996 18.7102C4.88737 20.0098 5.63738 21.201 6.58996 22.2202C7.52477 23.2129 8.64615 24.0115 9.88995 24.5702C11.1455 25.1415 12.5106 25.4316 13.89 25.4202C15.0789 25.4268 16.2588 25.2132 17.37 24.7902C18.4946 24.3527 19.5543 23.764 20.52 23.0402C20.8775 22.7503 21.3304 22.6041 21.79 22.6302C22.1961 22.6592 22.5772 22.8372 22.86 23.1302C23.1575 23.4768 23.3114 23.924 23.29 24.3802C23.2893 24.6215 23.2382 24.8599 23.14 25.0802C23.0417 25.3177 22.8953 25.5322 22.71 25.7102C21.4626 26.7154 20.0567 27.5062 18.55 28.0502C17.0543 28.5823 15.4774 28.8497 13.89 28.8402Z" fill="#FFB71B"/>
<path d="M28.2101 28.4698C27.8983 28.4785 27.59 28.4033 27.3173 28.252C27.0447 28.1007 26.8176 27.8789 26.6601 27.6098C26.4834 27.3391 26.3804 27.0271 26.3611 26.7044C26.3418 26.3818 26.4069 26.0596 26.5501 25.7698L36.6701 1.60982C36.7913 1.23992 37.0273 0.918305 37.3438 0.691713C37.6603 0.46512 38.0408 0.345358 38.4301 0.349824C38.8269 0.327941 39.2193 0.441772 39.5428 0.672593C39.8663 0.903415 40.1017 1.23748 40.2101 1.61982L50.3601 25.8498C50.4903 26.1386 50.55 26.4542 50.5344 26.7707C50.5187 27.0871 50.4281 27.3953 50.2701 27.6698C50.1151 27.9333 49.89 28.1486 49.6198 28.2916C49.3497 28.4346 49.0451 28.4998 48.7401 28.4798C48.3841 28.4733 48.0373 28.3658 47.7401 28.1698C47.423 27.9718 47.1777 27.6774 47.0401 27.3298L38.0401 5.14982H39.2101L30.0001 27.3298C29.8479 27.6756 29.5966 27.9684 29.278 28.1713C28.9593 28.3742 28.5877 28.4781 28.2101 28.4698Z" fill="#FFB71B"/>
<path d="M56.7 28.4701C56.4545 28.4772 56.2102 28.4328 55.9828 28.3398C55.7555 28.2468 55.5501 28.1073 55.38 27.9301C55.2081 27.7549 55.0735 27.5468 54.9841 27.3182C54.8947 27.0897 54.8525 26.8454 54.86 26.6001V2.24011C54.8537 1.99172 54.8985 1.74469 54.9913 1.51424C55.0842 1.28378 55.2233 1.07478 55.4 0.900116C55.5682 0.725976 55.7704 0.588202 55.994 0.495319C56.2176 0.402437 56.4579 0.35642 56.7 0.360115C56.9475 0.356019 57.1934 0.401923 57.4227 0.495079C57.6521 0.588235 57.8604 0.726727 58.035 0.90226C58.2096 1.07779 58.3469 1.28676 58.4389 1.51664C58.5308 1.74652 58.5754 1.99259 58.57 2.24011V24.7401H71.57C72.0659 24.7401 72.5416 24.9371 72.8923 25.2878C73.243 25.6385 73.44 26.1142 73.44 26.6101C73.44 27.1061 73.243 27.5817 72.8923 27.9324C72.5416 28.2831 72.0659 28.4801 71.57 28.4801L56.7 28.4701Z" fill="#FFB71B"/>
<path d="M88.45 28.84C86.4662 28.8658 84.4964 28.5058 82.65 27.78C80.9528 27.1019 79.414 26.0806 78.13 24.78C76.8604 23.4714 75.8673 21.9206 75.21 20.22C74.5103 18.361 74.171 16.3859 74.21 14.4C74.1699 12.4238 74.5093 10.4583 75.21 8.61001C75.8742 6.91054 76.8702 5.36038 78.14 4.05001C79.4208 2.74558 80.9605 1.72367 82.66 1.05001C86.3881 -0.376697 90.5118 -0.376697 94.24 1.05001C95.9338 1.72878 97.4693 2.75012 98.75 4.05001C100.05 5.35007 101.071 6.90173 101.75 8.61001C102.446 10.4596 102.785 12.4242 102.75 14.4C102.784 16.3855 102.445 18.3598 101.75 20.22C101.083 21.9324 100.069 23.4881 98.7713 24.7892C97.4736 26.0903 95.9206 27.1086 94.21 27.78C92.3771 28.5041 90.4206 28.8642 88.45 28.84ZM88.45 25.46C89.9267 25.4779 91.3911 25.1884 92.75 24.61C94.0333 24.0651 95.193 23.2658 96.1589 22.2604C97.1248 21.2549 97.877 20.0642 98.37 18.76C99.3967 15.9474 99.3967 12.8626 98.37 10.05C97.8762 8.74129 97.1208 7.54696 96.15 6.54001C95.1898 5.53928 94.0319 4.74921 92.75 4.22001C89.9902 3.11298 86.9098 3.11298 84.15 4.22001C82.8701 4.74756 81.7151 5.53794 80.76 6.54001C79.7989 7.55273 79.0478 8.74566 78.55 10.05C77.4967 12.8578 77.4967 15.9522 78.55 18.76C79.0478 20.0644 79.7989 21.2573 80.76 22.27C81.717 23.2748 82.8711 24.0714 84.15 24.61C85.5078 25.193 86.9724 25.4859 88.45 25.47V25.46Z" fill="#FFB71B"/>
<path d="M110.48 28.47C110.233 28.4741 109.988 28.4285 109.76 28.3359C109.531 28.2434 109.323 28.1058 109.149 27.9314C108.974 27.7569 108.837 27.5491 108.744 27.3204C108.652 27.0917 108.606 26.8467 108.61 26.6V2.24002C108.601 1.98974 108.644 1.74027 108.737 1.50773C108.83 1.27518 108.971 1.06474 109.15 0.890021C109.325 0.716823 109.533 0.580622 109.761 0.489558C109.99 0.398495 110.234 0.354439 110.48 0.360023H116.96C118.625 0.318278 120.273 0.700226 121.75 1.47002C123.104 2.185 124.232 3.26162 125.01 4.58002C125.827 5.98787 126.242 7.59273 126.21 9.22002C126.236 10.7542 125.83 12.2648 125.04 13.58C124.253 14.8632 123.124 15.902 121.78 16.58C120.294 17.3217 118.651 17.6922 116.99 17.66H112.38V26.66C112.388 26.9053 112.345 27.1496 112.256 27.3782C112.167 27.6067 112.032 27.8148 111.86 27.99C111.676 28.1621 111.459 28.2937 111.221 28.3763C110.983 28.459 110.731 28.4909 110.48 28.47ZM112.35 14.18H116.96C117.969 14.2007 118.969 13.9849 119.88 13.55C120.699 13.1584 121.392 12.5452 121.88 11.78C122.36 11.0095 122.61 10.1178 122.6 9.21002C122.614 8.22603 122.365 7.25612 121.88 6.40002C121.401 5.59195 120.709 4.93118 119.88 4.49002C118.978 4.02436 117.975 3.79066 116.96 3.81002H112.35V14.18ZM125.42 28.47C125.1 28.4754 124.783 28.3997 124.5 28.25C124.209 28.0913 123.967 27.8562 123.8 27.57L117.32 17.13L120.96 16.13L126.86 25.63C127.074 25.9133 127.204 26.2508 127.236 26.6043C127.268 26.9578 127.2 27.3131 127.04 27.63C126.881 27.9121 126.643 28.1417 126.355 28.2909C126.067 28.44 125.742 28.5023 125.42 28.47Z" fill="#FFB71B"/>
<path d="M133.21 28.4698C132.963 28.4738 132.718 28.4283 132.49 28.3357C132.261 28.2432 132.053 28.1056 131.879 27.9311C131.704 27.7567 131.567 27.5489 131.474 27.3202C131.382 27.0915 131.336 26.8465 131.34 26.5998V2.23979C131.331 1.98951 131.374 1.74004 131.467 1.5075C131.56 1.27495 131.701 1.06451 131.88 0.88979C132.248 0.55811 132.725 0.374512 133.22 0.374512C133.715 0.374512 134.193 0.55811 134.56 0.88979C134.735 1.06696 134.871 1.27829 134.961 1.51058C135.05 1.74286 135.091 1.9911 135.08 2.23979V26.6098C135.087 26.8551 135.045 27.0994 134.956 27.3279C134.867 27.5565 134.732 27.7646 134.56 27.9398C134.384 28.1169 134.173 28.2555 133.941 28.3468C133.708 28.438 133.459 28.4799 133.21 28.4698Z" fill="#FFB71B"/>
<path d="M144.21 28.4702C143.963 28.4743 143.718 28.4287 143.49 28.3361C143.261 28.2436 143.053 28.106 142.879 27.9316C142.704 27.7571 142.567 27.5493 142.474 27.3206C142.382 27.0919 142.336 26.8469 142.34 26.6002V2.24022C142.331 1.98994 142.374 1.74047 142.467 1.50793C142.56 1.27539 142.701 1.06495 142.88 0.890223C143.055 0.717948 143.263 0.582351 143.492 0.491351C143.72 0.40035 143.964 0.355772 144.21 0.360224H160.49C160.981 0.341617 161.459 0.517755 161.82 0.850226C161.987 1.0174 162.118 1.21747 162.204 1.43779C162.29 1.65811 162.33 1.89389 162.32 2.13023C162.327 2.35735 162.287 2.58348 162.201 2.79376C162.114 3.00403 161.985 3.19367 161.82 3.35022C161.454 3.67266 160.977 3.84107 160.49 3.82022H146.09V12.5702H156.42C156.909 12.5489 157.387 12.7214 157.75 13.0502C158.071 13.3853 158.25 13.8313 158.25 14.2952C158.25 14.7592 158.071 15.2052 157.75 15.5402C157.387 15.8691 156.909 16.0415 156.42 16.0202H146.05V25.0202H160.45C160.937 24.9994 161.414 25.1678 161.78 25.4902C161.946 25.6479 162.076 25.8392 162.163 26.0513C162.249 26.2634 162.289 26.4914 162.28 26.7202C162.289 26.955 162.249 27.189 162.163 27.4076C162.077 27.6262 161.947 27.8246 161.78 27.9902C161.602 28.1567 161.393 28.2859 161.165 28.37C160.936 28.4542 160.693 28.4917 160.45 28.4802L144.21 28.4702Z" fill="#FFB71B"/>
<path d="M169.34 28.4699C169.094 28.477 168.85 28.4326 168.623 28.3396C168.395 28.2466 168.19 28.107 168.02 27.9299C167.677 27.5728 167.491 27.0946 167.5 26.5999V2.23991C167.494 1.99152 167.538 1.74449 167.631 1.51403C167.724 1.28358 167.863 1.07458 168.04 0.899914C168.208 0.725774 168.41 0.588 168.634 0.495118C168.858 0.402235 169.098 0.356219 169.34 0.359913C169.587 0.353875 169.832 0.398701 170.061 0.4916C170.29 0.5845 170.497 0.723486 170.67 0.899914C170.847 1.07458 170.986 1.28358 171.079 1.51403C171.171 1.74449 171.216 1.99152 171.21 2.23991V24.7399H184.21C184.466 24.7211 184.724 24.7554 184.966 24.8406C185.209 24.9258 185.431 25.0601 185.62 25.2352C185.808 25.4102 185.958 25.6221 186.061 25.8578C186.164 26.0935 186.217 26.3478 186.217 26.6049C186.217 26.862 186.164 27.1163 186.061 27.352C185.958 27.5877 185.808 27.7996 185.62 27.9747C185.431 28.1497 185.209 28.284 184.966 28.3692C184.724 28.4544 184.466 28.4887 184.21 28.4699H169.34Z" fill="#FF595A"/>
<path d="M189.57 28.4699C189.258 28.4786 188.95 28.4034 188.677 28.2521C188.405 28.1008 188.178 27.879 188.02 27.6099C187.845 27.3385 187.743 27.0266 187.724 26.7043C187.705 26.3821 187.769 26.0603 187.91 25.7699L198.03 1.60994C198.151 1.24003 198.387 0.91842 198.704 0.691828C199.02 0.465235 199.401 0.345473 199.79 0.349939C200.184 0.329807 200.573 0.44329 200.894 0.671991C201.216 0.900692 201.45 1.2312 201.56 1.60994L211.71 25.8499C211.84 26.1387 211.9 26.4544 211.884 26.7708C211.869 27.0872 211.778 27.3954 211.62 27.6699C211.465 27.9334 211.24 28.1487 210.97 28.2917C210.7 28.4347 210.395 28.4999 210.09 28.4799C209.734 28.4734 209.387 28.3659 209.09 28.1699C208.773 27.9719 208.528 27.6775 208.39 27.3299L199.39 5.14994H200.54L191.33 27.3299C191.18 27.6709 190.933 27.9605 190.62 28.1631C190.308 28.3656 189.943 28.4723 189.57 28.4699Z" fill="#FF595A"/>
<path d="M218.08 28.4701C217.834 28.4741 217.59 28.4289 217.362 28.3369C217.134 28.245 216.927 28.1083 216.752 27.9349C216.578 27.7615 216.44 27.555 216.347 27.3274C216.254 27.0999 216.207 26.856 216.21 26.6101V2.24012C216.201 1.98984 216.244 1.74037 216.337 1.50783C216.43 1.27529 216.571 1.06484 216.75 0.890123C216.925 0.716924 217.133 0.580723 217.361 0.489659C217.59 0.398596 217.834 0.35454 218.08 0.360124H226.69C228.183 0.341117 229.659 0.684243 230.99 1.36012C232.183 1.95721 233.19 2.87038 233.9 4.00012C234.622 5.16765 234.993 6.51777 234.97 7.89012C234.971 9.03076 234.622 10.1443 233.97 11.0801C233.315 12.048 232.414 12.8245 231.36 13.3301C232.852 13.635 234.203 14.4179 235.21 15.5601C236.211 16.8096 236.723 18.3808 236.65 19.9801C236.696 21.5079 236.303 23.0168 235.518 24.3282C234.733 25.6397 233.588 26.6987 232.22 27.3801C230.74 28.1396 229.093 28.5176 227.43 28.4801L218.08 28.4701ZM219.95 11.9101H226.69C227.89 11.9605 229.073 11.6085 230.05 10.9101C230.5 10.5442 230.856 10.0749 231.085 9.54206C231.315 9.00926 231.413 8.42879 231.37 7.85012C231.407 7.2808 231.307 6.71089 231.077 6.18867C230.847 5.66645 230.495 5.2073 230.05 4.85012C229.071 4.15584 227.89 3.80431 226.69 3.85012H219.95V11.9101ZM219.95 25.0101H227.44C228.443 25.0316 229.439 24.8372 230.36 24.4401C231.178 24.0849 231.873 23.4973 232.36 22.7501C232.867 21.9138 233.117 20.9473 233.08 19.9701C233.116 19.0653 232.864 18.1723 232.36 17.4201C231.853 16.7302 231.159 16.1994 230.36 15.8901C229.43 15.5259 228.438 15.3492 227.44 15.3701H219.95V25.0101Z" fill="#FF595A"/>
</g>
<defs>
<clipPath id="clip0_78_266">
<rect width="236.66" height="28.84" fill="white"/>
</clipPath>
</defs>
</svg>
