<svg width="428" height="409" viewBox="0 0 428 409" fill="none" xmlns="http://www.w3.org/2000/svg">
<circle opacity="0.6" cx="363.181" cy="150.181" r="106.322" transform="rotate(-132.182 363.181 150.181)" fill="#E3EAFA"/>
<circle cx="65.1026" cy="289.103" r="77.9485" transform="rotate(-132.182 65.1026 289.103)" fill="#C4D2FA"/>
<circle opacity="0.9" cx="215.591" cy="257.504" r="150.504" transform="rotate(-90 215.591 257.504)" fill="#CFDBFA"/>
<path d="M258.729 251.396L256.076 234.706C254.268 228.707 253.922 222.246 253.076 216.016C246.654 169.329 157.626 167.406 182.008 243.436L184.085 271.471C184.123 273.547 185.661 275.239 187.699 275.547L224.003 283.777C226.31 284.085 228.387 282.277 228.387 279.97V273.355C228.387 271.778 229.771 270.548 231.348 270.702L243.5 271.932C246.5 272.24 249.192 270.009 249.461 266.971L250.5 254.357C250.577 253.665 251.153 253.127 251.846 253.165L255.999 253.357C257.153 253.319 259.037 252.473 258.729 251.396ZM230.964 219.054C230.271 219.9 229.348 220.554 228.156 220.938C226.426 221.515 224.118 221.592 221.311 221.169L221.157 221.207V221.246C221.311 222.207 221.388 224.13 220.042 225.938C219.003 227.322 217.311 228.437 215.042 229.168C213.735 229.591 212.197 229.937 210.504 230.168C210.351 230.822 209.966 232.322 208.928 233.898C208.12 235.09 207.12 236.09 205.967 236.821C205.274 237.244 204.544 237.59 203.736 237.859C202.813 238.167 201.852 238.359 200.813 238.436L199.16 238.552L200.583 237.667C200.621 237.629 203.698 235.667 204.121 233.475C204.236 232.86 204.121 232.283 203.774 231.745C203.275 231.86 202.159 232.014 200.813 232.014C198.39 232.014 196.352 231.437 194.968 230.283C193.314 228.976 192.507 226.938 192.468 224.246L191.737 224.092C191.161 223.976 190.545 223.861 190.007 223.746C188.93 223.553 187.43 222.553 186.238 221.169C185.661 220.477 184.777 219.285 184.277 217.785C184.085 217.246 183.969 216.631 183.931 216.016C183.931 215.785 183.931 215.516 183.969 215.285C184.085 213.901 184.7 212.67 185.777 211.555C187.238 210.132 189.545 209.017 192.622 208.247C192.776 208.209 192.891 208.055 192.891 207.863C192.622 205.825 192.276 200.864 195.314 198.249C197.506 196.364 200.967 196.134 205.62 197.556C205.62 197.556 205.62 197.556 205.659 197.556C206.197 196.633 208.235 193.48 211.504 192.788C213.504 192.365 215.619 192.903 217.773 194.403C218.503 194.903 218.811 194.903 218.965 194.826C219.849 194.211 221.465 193.865 223.157 193.941C225.118 194.057 227.002 194.672 228.464 195.711C228.579 195.787 228.656 195.864 228.771 195.941C230.002 196.903 230.887 198.133 231.387 199.672C231.463 199.902 231.54 200.095 231.579 200.325C232.156 202.556 232.002 205.286 231.079 208.401C231.002 208.632 231.04 208.863 231.117 209.055C231.463 209.863 232.04 211.555 232.271 213.401C232.425 215.785 232.04 217.708 230.964 219.054Z" fill="#3E3D46"/>
<path d="M195.89 216.208L198.775 209.593L194.083 209.324L195.89 216.208Z" fill="#3E3D46"/>
<path d="M215.657 216.131L204.889 219.708L208.427 223.284L215.657 216.131Z" fill="#3E3D46"/>
<path d="M211.965 204.286L199.928 209.401L204.197 218.631L211.965 204.286Z" fill="#3E3D46"/>
<path d="M212.811 204.44L205.004 218.823L216.695 214.939L212.811 204.44Z" fill="#3E3D46"/>
<path d="M212.273 203.286L207.851 195.903C207.043 196.749 206.505 197.633 206.274 198.018C206.159 198.249 205.928 198.402 205.659 198.441L200.313 208.363L212.273 203.286Z" fill="#3E3D46"/>
<path d="M204.812 198.249C202.428 197.557 200.428 197.364 198.774 197.595L199.659 207.786L204.812 198.249Z" fill="#3E3D46"/>
<path d="M217.157 203.748H217.119V203.556L213.427 203.825L216.888 213.093L217.157 203.748Z" fill="#3E3D46"/>
<path d="M230.54 206.863C231.425 203.017 230.925 200.402 229.886 198.633L218.811 203.056L230.54 206.863Z" fill="#3E3D46"/>
<path d="M199.39 210.209L196.391 217.208L203.428 218.939L199.39 210.209Z" fill="#3E3D46"/>
<path d="M230.117 208.517L225.617 212.324L231.117 212.285C230.847 211.016 230.463 209.978 230.232 209.401C230.117 209.132 230.078 208.824 230.117 208.517Z" fill="#3E3D46"/>
<path d="M227.848 196.403C226.54 195.441 224.81 194.903 223.002 194.787C221.502 194.71 220.041 194.98 219.31 195.518C219.157 195.633 218.964 195.71 218.772 195.71L218.041 202.479L229.386 197.941C228.963 197.326 228.386 196.826 227.848 196.403Z" fill="#3E3D46"/>
<path d="M217.656 214.593L223.848 212.554L217.964 204.363L217.656 214.593Z" fill="#3E3D46"/>
<path d="M212.926 202.479L213.119 203.017L217.157 202.748L217.195 201.902L217.272 202.017L217.964 195.595C217.618 195.441 217.349 195.249 217.157 195.134C215.195 193.749 213.311 193.249 211.542 193.672C210.311 193.942 209.273 194.595 208.427 195.364L212.85 202.671L212.926 202.479Z" fill="#3E3D46"/>
<path d="M207.735 223.746L204.236 220.208L204.12 220.438L204.082 220.362L198.198 229.168L207.735 223.746Z" fill="#3E3D46"/>
<path d="M210.428 229.36C212.389 229.091 214.042 228.707 215.465 228.168L209.082 224.669L210.428 229.36Z" fill="#3E3D46"/>
<path d="M209.542 224.015L216.388 227.784C217.695 227.168 218.657 226.399 219.349 225.476C220.541 223.899 220.464 222.246 220.31 221.438L209.542 224.015Z" fill="#3E3D46"/>
<path d="M224.041 220.169L224.079 213.324L218.041 215.324L224.041 220.169Z" fill="#3E3D46"/>
<path d="M209.735 223.092L220.772 220.438C220.965 220.323 221.157 220.284 221.349 220.323C222.003 220.438 222.618 220.477 223.195 220.554L217.234 215.708L209.735 223.092Z" fill="#3E3D46"/>
<path d="M218.657 203.902L224.579 212.17L230.002 207.555L218.657 203.902Z" fill="#3E3D46"/>
<path d="M224.926 213.17L224.849 220.631C227.426 220.592 229.272 219.9 230.31 218.554C231.502 217.054 231.541 214.977 231.271 213.093L224.926 213.17Z" fill="#3E3D46"/>
<path d="M204.351 231.283C204.812 232.014 204.966 232.821 204.812 233.667C204.543 235.206 203.235 236.552 202.197 237.436C204.774 236.898 206.773 235.59 208.158 233.475C209.235 231.822 209.581 230.245 209.658 229.86L208.235 224.899L204.351 231.283Z" fill="#3E3D46"/>
<path d="M193.506 208.478L198.929 208.747L197.967 197.787C197.121 198.018 196.391 198.402 195.775 198.941C193.006 201.287 193.352 205.94 193.622 207.824C193.622 208.055 193.583 208.286 193.506 208.478Z" fill="#3E3D46"/>
<path d="M193.121 208.94C193.006 209.016 192.891 209.093 192.737 209.132C187.314 210.478 184.546 212.862 184.661 216.016C184.661 216.4 184.738 216.823 184.815 217.169V216.785L195.275 217.054L193.121 208.94Z" fill="#3E3D46"/>
<path d="M193.122 223.63H193.199V223.976C193.161 226.553 193.891 228.476 195.391 229.668C195.699 229.937 196.083 230.168 196.429 230.322L195.545 218.938L193.122 223.63Z" fill="#3E3D46"/>
<path d="M184.93 217.592C185.353 218.938 186.161 220.015 186.738 220.669C187.815 221.9 189.122 222.823 190.045 222.976C190.622 223.092 191.237 223.169 191.853 223.322L192.353 223.438L195.198 217.862L184.93 217.592Z" fill="#3E3D46"/>
<path d="M196.275 218.015L197.159 229.245L203.505 219.784L196.275 218.015Z" fill="#3E3D46"/>
<path d="M197.198 230.668C199.813 231.591 202.889 231.091 203.62 230.937L207.235 224.976L197.198 230.668Z" fill="#3E3D46"/>
<path d="M231.002 209.094C230.925 208.863 230.887 208.632 230.964 208.44C231.887 205.325 232.041 202.594 231.464 200.364C231.387 200.133 231.348 199.941 231.272 199.71C230.772 198.21 229.887 196.941 228.656 195.98C228.541 195.903 228.464 195.826 228.349 195.749C226.887 194.711 225.003 194.095 223.042 193.98C221.35 193.903 219.734 194.211 218.85 194.865C218.696 194.98 218.388 194.98 217.658 194.441C215.504 192.942 213.389 192.403 211.389 192.826C208.12 193.557 206.082 196.672 205.544 197.595C205.544 197.595 205.544 197.595 205.505 197.595C200.852 196.172 197.391 196.403 195.199 198.287C192.122 200.902 192.468 205.902 192.776 207.901C192.815 208.094 192.699 208.248 192.507 208.286C189.392 209.055 187.085 210.17 185.662 211.593C184.546 212.67 183.931 213.939 183.854 215.324C183.816 215.554 183.816 215.785 183.816 216.054C183.854 216.67 183.97 217.246 184.162 217.823C184.623 219.323 185.546 220.515 186.123 221.208C187.315 222.592 188.815 223.63 189.892 223.784C190.469 223.899 191.046 223.976 191.622 224.13L192.353 224.284C192.353 226.976 193.199 228.976 194.853 230.322C196.276 231.437 198.275 232.052 200.698 232.052C202.044 232.052 203.16 231.86 203.659 231.783C204.006 232.322 204.121 232.898 204.006 233.514C203.583 235.706 200.506 237.706 200.468 237.706L199.045 238.59L200.698 238.475C201.737 238.398 202.736 238.205 203.621 237.898C204.429 237.629 205.159 237.283 205.851 236.859C207.044 236.129 208.044 235.129 208.813 233.937C209.851 232.36 210.274 230.86 210.389 230.206C212.12 229.976 213.62 229.668 214.927 229.207C217.196 228.437 218.888 227.361 219.927 225.976C221.311 224.13 221.234 222.246 221.042 221.284V221.246L221.196 221.208C224.003 221.631 226.311 221.554 228.041 220.977C229.233 220.592 230.156 219.938 230.848 219.092C231.925 217.746 232.31 215.862 232.041 213.478C231.925 211.593 231.348 209.94 231.002 209.094ZM231.118 212.286L225.618 212.324L230.118 208.517C230.079 208.824 230.118 209.094 230.233 209.401C230.464 209.94 230.848 211.016 231.118 212.286ZM229.887 198.672C230.887 200.441 231.425 203.056 230.541 206.902L218.811 203.133L229.887 198.672ZM218.773 195.711C218.965 195.711 219.119 195.634 219.311 195.518C220.042 195.018 221.465 194.711 223.003 194.788C224.811 194.865 226.541 195.441 227.849 196.403C228.387 196.787 228.964 197.287 229.426 197.941L218.081 202.479L218.773 195.711ZM211.582 193.634C213.351 193.249 215.273 193.749 217.196 195.095C217.35 195.211 217.658 195.403 218.004 195.557L217.312 201.979L217.235 201.864L217.196 202.71L213.158 202.979L212.966 202.441L212.889 202.594L208.467 195.288C209.274 194.557 210.312 193.903 211.582 193.634ZM223.849 212.555L217.658 214.631L217.965 204.363L223.849 212.555ZM199.391 210.209L203.429 218.939L196.391 217.208L199.391 210.209ZM195.891 216.208L194.045 209.324L198.737 209.555L195.891 216.208ZM199.929 209.401L211.966 204.286L204.198 218.592L199.929 209.401ZM204.121 220.438L204.236 220.208L207.736 223.746L198.199 229.13L204.082 220.323L204.121 220.438ZM204.89 219.708L215.658 216.131L208.39 223.284L204.89 219.708ZM205.005 218.823L212.812 204.479L216.696 214.939L205.005 218.823ZM213.428 203.825L217.119 203.556L217.081 203.748L217.119 203.71L216.812 213.055L213.428 203.825ZM205.621 198.441C205.89 198.403 206.082 198.249 206.236 198.018C206.467 197.595 207.005 196.749 207.813 195.903L212.235 203.287L200.237 208.363L205.621 198.441ZM204.813 198.249L199.66 207.786L198.775 197.595C200.391 197.364 202.429 197.595 204.813 198.249ZM195.737 198.941C196.353 198.403 197.083 198.018 197.929 197.787L198.891 208.747L193.468 208.478C193.545 208.286 193.584 208.055 193.584 207.825C193.315 205.94 193.007 201.287 195.737 198.941ZM184.816 217.17C184.739 216.785 184.662 216.4 184.662 216.016C184.546 212.862 187.315 210.478 192.738 209.132C192.892 209.094 193.007 209.017 193.122 208.94L195.276 217.054L184.816 216.785V217.17ZM192.276 223.438L191.776 223.323C191.161 223.207 190.584 223.092 189.969 222.977C189.084 222.823 187.738 221.9 186.661 220.669C186.123 220.054 185.315 218.939 184.854 217.593L195.084 217.862L192.276 223.438ZM195.353 229.668C193.853 228.476 193.122 226.553 193.161 223.976V223.63H193.084L195.468 218.939L196.353 230.322C196.045 230.168 195.699 229.937 195.353 229.668ZM196.276 218.016L203.506 219.785L197.16 229.245L196.276 218.016ZM203.621 230.937C202.89 231.091 199.814 231.629 197.199 230.668L207.236 224.976L203.621 230.937ZM208.197 233.437C206.813 235.552 204.813 236.859 202.237 237.398C203.275 236.513 204.544 235.167 204.852 233.629C205.005 232.783 204.852 231.975 204.39 231.245L208.313 224.822L209.736 229.783C209.62 230.206 209.313 231.783 208.197 233.437ZM210.428 229.36L209.082 224.707L215.466 228.207C214.043 228.707 212.389 229.091 210.428 229.36ZM219.35 225.476C218.658 226.399 217.658 227.168 216.389 227.784L209.543 224.015L220.35 221.4C220.465 222.246 220.542 223.899 219.35 225.476ZM221.35 220.361C221.157 220.323 220.927 220.361 220.773 220.477L209.736 223.13L217.235 215.747L223.234 220.554C222.619 220.515 222.003 220.438 221.35 220.361ZM224.042 220.169L218.081 215.324L224.119 213.324L224.042 220.169ZM224.58 212.17L218.658 203.902L230.002 207.555L224.58 212.17ZM230.31 218.554C229.233 219.9 227.426 220.592 224.849 220.631L224.926 213.17L231.272 213.093C231.579 214.939 231.502 217.054 230.31 218.554Z" fill="white"/>
<path d="M144.434 316.696V331.387H139.781V306.466H145.742L156.779 325.81C156.548 324.003 156.471 322.388 156.471 320.926V306.428H161.124V331.348H154.971L144.126 312.158C144.242 313.081 144.319 313.927 144.357 314.696C144.396 315.465 144.434 316.158 144.434 316.696Z" fill="#3E3D46"/>
<path d="M176.316 331.771C174.047 331.771 172.085 331.386 170.509 330.656C168.932 329.925 167.74 328.81 166.932 327.348C166.124 325.887 165.701 324.156 165.701 322.08V306.505H170.932V321.657C170.932 323.618 171.393 325.118 172.354 326.156C173.277 327.195 174.662 327.694 176.469 327.694C178.315 327.694 179.777 327.156 180.777 326.079C181.776 325.002 182.276 323.464 182.276 321.503V306.505H187.468V321.811C187.468 323.926 187.045 325.695 186.16 327.195C185.276 328.694 184.007 329.81 182.353 330.617C180.7 331.386 178.661 331.771 176.316 331.771Z" fill="#3E3D46"/>
<path d="M198.005 325.041L195.774 331.425H190.544L199.62 306.505H205.773L214.849 331.425H209.696L207.465 325.041H198.005ZM202.773 310.312C202.658 310.773 202.504 311.35 202.274 312.004C202.043 312.658 201.889 313.119 201.812 313.388L199.197 321.08H206.35L203.658 313.235C203.504 312.735 203.35 312.273 203.197 311.773C203.043 311.273 202.927 310.812 202.773 310.312Z" fill="#3E3D46"/>
<path d="M222.925 316.696V331.387H218.272V306.466H224.233L235.27 325.81C235.039 324.003 234.962 322.388 234.962 320.926V306.428H239.615V331.348H233.501L222.656 312.158C222.771 313.081 222.848 313.927 222.887 314.696C222.887 315.465 222.925 316.158 222.925 316.696Z" fill="#3E3D46"/>
<path d="M256.075 327.656C259.228 327.656 261.42 326.079 262.651 322.926L267.189 324.657C266.227 327.079 264.766 328.848 262.882 330.041C260.997 331.233 258.728 331.81 256.075 331.81C253.421 331.81 251.152 331.31 249.268 330.271C247.383 329.233 245.961 327.772 244.961 325.849C243.961 323.926 243.499 321.58 243.499 318.888C243.499 316.158 243.961 313.85 244.922 311.966C245.884 310.081 247.268 308.659 249.114 307.659C250.96 306.659 253.19 306.197 255.882 306.197C258.805 306.197 261.189 306.774 263.035 307.966C264.881 309.158 266.15 310.851 266.92 313.158L262.305 314.427C261.92 313.158 261.151 312.197 259.997 311.427C258.844 310.697 257.536 310.312 255.959 310.312C253.613 310.312 251.806 311.043 250.575 312.504C249.345 313.966 248.729 316.119 248.729 318.927C248.729 320.849 248.999 322.465 249.575 323.772C250.152 325.08 250.96 326.079 252.037 326.772C253.152 327.31 254.498 327.656 256.075 327.656Z" fill="#3E3D46"/>
<path d="M290.916 327.387V331.425H270.572V306.505H290.185V310.504H275.802V316.773H289.108V320.811H275.802V327.387H290.916Z" fill="#3E3D46"/>
</svg>
