<svg width="717" height="659" viewBox="0 0 717 659" fill="none" xmlns="http://www.w3.org/2000/svg">
<circle cx="196.12" cy="491.449" r="118.05" transform="rotate(-132.182 196.12 491.449)" fill="#C4D2FA"/>
<circle opacity="0.9" cx="281.32" cy="281.32" r="199.164" transform="rotate(-132.182 281.32 281.32)" fill="#CFDBFA"/>
<path d="M338.405 273.237L334.893 251.151C332.501 243.212 332.043 234.662 330.924 226.418C322.425 164.637 204.613 162.092 236.878 262.703L239.626 299.802C239.677 302.55 241.713 304.789 244.41 305.197L292.45 316.087C295.504 316.494 298.252 314.102 298.252 311.049V302.296C298.252 300.209 300.084 298.581 302.171 298.784L318.252 300.413C322.221 300.82 325.784 297.868 326.14 293.848L327.514 277.156C327.616 276.24 328.379 275.527 329.295 275.578L334.791 275.833C336.318 275.782 338.812 274.662 338.405 273.237ZM301.662 230.438C300.746 231.558 299.524 232.423 297.947 232.932C295.657 233.695 292.603 233.797 288.888 233.237L288.685 233.288V233.339C288.888 234.611 288.99 237.156 287.209 239.548C285.835 241.38 283.595 242.856 280.593 243.823C278.863 244.382 276.827 244.84 274.588 245.146C274.384 246.011 273.875 247.996 272.501 250.082C271.433 251.66 270.109 252.983 268.583 253.95C267.667 254.51 266.7 254.968 265.631 255.324C264.41 255.731 263.137 255.985 261.763 256.087L259.575 256.24L261.458 255.069C261.509 255.018 265.58 252.423 266.14 249.522C266.293 248.708 266.14 247.945 265.682 247.232C265.02 247.385 263.545 247.588 261.763 247.588C258.557 247.588 255.86 246.825 254.028 245.298C251.84 243.568 250.771 240.871 250.72 237.309L249.753 237.105C248.99 236.952 248.176 236.8 247.463 236.647C246.038 236.393 244.053 235.069 242.476 233.237C241.713 232.321 240.542 230.744 239.88 228.759C239.626 228.046 239.473 227.232 239.422 226.418C239.422 226.113 239.422 225.756 239.473 225.451C239.626 223.619 240.44 221.99 241.865 220.515C243.799 218.632 246.852 217.156 250.924 216.138C251.127 216.087 251.28 215.884 251.28 215.629C250.924 212.932 250.466 206.367 254.486 202.907C257.387 200.413 261.967 200.108 268.125 201.99C268.125 201.99 268.125 201.99 268.176 201.99C268.888 200.769 271.585 196.596 275.911 195.68C278.557 195.12 281.356 195.833 284.206 197.817C285.173 198.479 285.58 198.479 285.784 198.377C286.954 197.563 289.092 197.105 291.331 197.207C293.926 197.359 296.42 198.174 298.354 199.548C298.506 199.65 298.608 199.751 298.761 199.853C300.389 201.125 301.56 202.754 302.221 204.789C302.323 205.095 302.425 205.349 302.476 205.655C303.239 208.606 303.036 212.219 301.814 216.342C301.713 216.647 301.763 216.952 301.865 217.207C302.323 218.275 303.087 220.515 303.392 222.957C303.595 226.113 303.087 228.657 301.662 230.438Z" fill="#3E3D46"/>
<path d="M255.249 226.672L259.066 217.919L252.858 217.562L255.249 226.672Z" fill="#3E3D46"/>
<path d="M281.407 226.57L267.158 231.303L271.84 236.036L281.407 226.57Z" fill="#3E3D46"/>
<path d="M276.522 210.896L260.593 217.665L266.242 229.879L276.522 210.896Z" fill="#3E3D46"/>
<path d="M277.641 211.1L267.31 230.133L282.781 224.993L277.641 211.1Z" fill="#3E3D46"/>
<path d="M276.929 209.573L271.076 199.802C270.008 200.921 269.295 202.092 268.99 202.601C268.837 202.906 268.532 203.11 268.176 203.161L261.102 216.29L276.929 209.573Z" fill="#3E3D46"/>
<path d="M267.056 202.907C263.901 201.99 261.254 201.736 259.066 202.041L260.237 215.527L267.056 202.907Z" fill="#3E3D46"/>
<path d="M283.392 210.184H283.341V209.929L278.455 210.285L283.036 222.55L283.392 210.184Z" fill="#3E3D46"/>
<path d="M301.102 214.306C302.272 209.217 301.611 205.756 300.237 203.415L285.58 209.267L301.102 214.306Z" fill="#3E3D46"/>
<path d="M259.88 218.733L255.911 227.995L265.224 230.286L259.88 218.733Z" fill="#3E3D46"/>
<path d="M300.542 216.494L294.588 221.532L301.865 221.481C301.509 219.802 301 218.428 300.695 217.665C300.542 217.308 300.491 216.901 300.542 216.494Z" fill="#3E3D46"/>
<path d="M297.539 200.464C295.809 199.191 293.519 198.479 291.127 198.326C289.143 198.224 287.209 198.581 286.242 199.293C286.038 199.446 285.784 199.548 285.529 199.548L284.562 208.504L299.575 202.499C299.015 201.685 298.252 201.023 297.539 200.464Z" fill="#3E3D46"/>
<path d="M284.053 224.535L292.247 221.838L284.461 210.998L284.053 224.535Z" fill="#3E3D46"/>
<path d="M277.794 208.504L278.048 209.217L283.392 208.86L283.443 207.741L283.545 207.894L284.461 199.395C284.003 199.191 283.646 198.937 283.392 198.784C280.796 196.952 278.303 196.29 275.962 196.85C274.333 197.207 272.959 198.072 271.84 199.089L277.692 208.759L277.794 208.504Z" fill="#3E3D46"/>
<path d="M270.924 236.647L266.293 231.965L266.14 232.27L266.089 232.168L258.303 243.822L270.924 236.647Z" fill="#3E3D46"/>
<path d="M274.486 244.077C277.081 243.721 279.27 243.212 281.153 242.499L272.705 237.868L274.486 244.077Z" fill="#3E3D46"/>
<path d="M273.316 237.003L282.374 241.99C284.104 241.176 285.377 240.158 286.293 238.937C287.87 236.85 287.768 234.662 287.565 233.593L273.316 237.003Z" fill="#3E3D46"/>
<path d="M292.501 231.914L292.552 222.855L284.562 225.502L292.501 231.914Z" fill="#3E3D46"/>
<path d="M273.57 235.782L288.176 232.27C288.43 232.118 288.684 232.067 288.939 232.118C289.804 232.27 290.618 232.321 291.382 232.423L283.494 226.011L273.57 235.782Z" fill="#3E3D46"/>
<path d="M285.377 210.387L293.214 221.329L300.389 215.222L285.377 210.387Z" fill="#3E3D46"/>
<path d="M293.672 222.652L293.57 232.525C296.98 232.474 299.422 231.558 300.796 229.777C302.374 227.792 302.425 225.044 302.069 222.55L293.672 222.652Z" fill="#3E3D46"/>
<path d="M266.445 246.621C267.056 247.588 267.26 248.657 267.056 249.776C266.7 251.812 264.97 253.593 263.595 254.764C267.005 254.051 269.651 252.321 271.483 249.522C272.908 247.334 273.366 245.247 273.468 244.738L271.585 238.173L266.445 246.621Z" fill="#3E3D46"/>
<path d="M252.094 216.443L259.27 216.799L257.998 202.295C256.878 202.601 255.911 203.11 255.097 203.822C251.433 206.926 251.891 213.084 252.247 215.578C252.247 215.883 252.196 216.189 252.094 216.443Z" fill="#3E3D46"/>
<path d="M251.585 217.054C251.433 217.155 251.28 217.257 251.076 217.308C243.901 219.089 240.237 222.245 240.389 226.418C240.389 226.926 240.491 227.486 240.593 227.944V227.435L254.435 227.792L251.585 217.054Z" fill="#3E3D46"/>
<path d="M251.585 236.494H251.687V236.952C251.636 240.361 252.603 242.906 254.588 244.484C254.995 244.84 255.504 245.145 255.962 245.349L254.791 230.285L251.585 236.494Z" fill="#3E3D46"/>
<path d="M240.746 228.504C241.305 230.286 242.374 231.711 243.137 232.576C244.562 234.204 246.293 235.426 247.514 235.629C248.277 235.782 249.092 235.884 249.906 236.087L250.567 236.24L254.333 228.861L240.746 228.504Z" fill="#3E3D46"/>
<path d="M255.758 229.064L256.929 243.924L265.326 231.405L255.758 229.064Z" fill="#3E3D46"/>
<path d="M256.98 245.807C260.44 247.029 264.511 246.367 265.478 246.163L270.262 238.275L256.98 245.807Z" fill="#3E3D46"/>
<path d="M301.713 217.257C301.611 216.952 301.56 216.647 301.662 216.392C302.883 212.27 303.087 208.657 302.323 205.705C302.221 205.4 302.171 205.145 302.069 204.84C301.407 202.855 300.237 201.176 298.608 199.904C298.456 199.802 298.354 199.7 298.201 199.598C296.267 198.224 293.774 197.41 291.178 197.257C288.939 197.156 286.802 197.563 285.631 198.428C285.428 198.581 285.02 198.581 284.053 197.868C281.204 195.883 278.405 195.171 275.758 195.731C271.433 196.698 268.735 200.82 268.023 202.041C268.023 202.041 268.023 202.041 267.972 202.041C261.814 200.158 257.234 200.463 254.333 202.957C250.262 206.418 250.72 213.033 251.127 215.68C251.178 215.934 251.026 216.138 250.771 216.189C246.649 217.206 243.595 218.682 241.713 220.565C240.237 221.99 239.422 223.67 239.321 225.502C239.27 225.807 239.27 226.112 239.27 226.469C239.321 227.283 239.473 228.046 239.728 228.81C240.338 230.794 241.56 232.372 242.323 233.288C243.901 235.12 245.886 236.494 247.31 236.698C248.074 236.85 248.837 236.952 249.601 237.156L250.567 237.359C250.567 240.921 251.687 243.568 253.875 245.349C255.758 246.825 258.405 247.639 261.611 247.639C263.392 247.639 264.868 247.385 265.529 247.283C265.987 247.995 266.14 248.759 265.987 249.573C265.428 252.474 261.356 255.12 261.305 255.12L259.422 256.29L261.611 256.138C262.985 256.036 264.308 255.782 265.478 255.374C266.547 255.018 267.514 254.56 268.43 254C270.008 253.033 271.331 251.71 272.349 250.133C273.723 248.046 274.283 246.061 274.435 245.196C276.725 244.891 278.71 244.484 280.44 243.873C283.443 242.855 285.682 241.43 287.056 239.598C288.888 237.156 288.786 234.662 288.532 233.39V233.339L288.735 233.288C292.45 233.848 295.504 233.746 297.794 232.983C299.372 232.474 300.593 231.608 301.509 230.489C302.934 228.708 303.443 226.214 303.087 223.059C302.934 220.565 302.171 218.377 301.713 217.257ZM301.865 221.481L294.588 221.532L300.542 216.494C300.491 216.901 300.542 217.257 300.695 217.664C301 218.377 301.509 219.802 301.865 221.481ZM300.237 203.466C301.56 205.807 302.272 209.268 301.102 214.357L285.58 209.369L300.237 203.466ZM285.529 199.547C285.784 199.547 285.987 199.446 286.242 199.293C287.209 198.631 289.092 198.224 291.127 198.326C293.519 198.428 295.809 199.191 297.539 200.463C298.252 200.972 299.015 201.634 299.626 202.499L284.613 208.504L285.529 199.547ZM276.013 196.799C278.354 196.29 280.898 196.952 283.443 198.733C283.646 198.886 284.053 199.14 284.512 199.344L283.595 207.843L283.494 207.69L283.443 208.81L278.099 209.166L277.845 208.453L277.743 208.657L271.891 198.988C272.959 198.021 274.333 197.156 276.013 196.799ZM292.247 221.838L284.053 224.586L284.461 210.998L292.247 221.838ZM259.88 218.733L265.224 230.285L255.911 227.995L259.88 218.733ZM255.249 226.672L252.807 217.563L259.015 217.868L255.249 226.672ZM260.593 217.664L276.522 210.896L266.242 229.827L260.593 217.664ZM266.14 232.27L266.293 231.965L270.924 236.647L258.303 243.771L266.089 232.117L266.14 232.27ZM267.158 231.303L281.407 226.57L271.789 236.036L267.158 231.303ZM267.31 230.133L277.641 211.15L282.781 224.993L267.31 230.133ZM278.456 210.285L283.341 209.929L283.29 210.184L283.341 210.133L282.934 222.499L278.456 210.285ZM268.125 203.161C268.481 203.11 268.735 202.906 268.939 202.601C269.244 202.041 269.957 200.921 271.025 199.802L276.878 209.573L261 216.29L268.125 203.161ZM267.056 202.906L260.237 215.527L259.066 202.041C261.204 201.736 263.901 202.041 267.056 202.906ZM255.046 203.822C255.86 203.11 256.827 202.601 257.947 202.296L259.219 216.799L252.043 216.443C252.145 216.189 252.196 215.883 252.196 215.578C251.84 213.084 251.433 206.927 255.046 203.822ZM240.593 227.944C240.491 227.435 240.389 226.927 240.389 226.418C240.237 222.245 243.901 219.089 251.076 217.308C251.28 217.257 251.433 217.156 251.585 217.054L254.435 227.792L240.593 227.435V227.944ZM250.466 236.24L249.804 236.087C248.99 235.934 248.227 235.782 247.412 235.629C246.242 235.425 244.461 234.204 243.036 232.575C242.323 231.761 241.255 230.285 240.644 228.504L254.181 228.86L250.466 236.24ZM254.537 244.484C252.552 242.906 251.585 240.362 251.636 236.952V236.494H251.534L254.69 230.285L255.86 245.349C255.453 245.145 254.995 244.84 254.537 244.484ZM255.758 229.064L265.326 231.405L256.929 243.924L255.758 229.064ZM265.478 246.163C264.512 246.367 260.44 247.079 256.98 245.807L270.262 238.275L265.478 246.163ZM271.534 249.471C269.702 252.27 267.056 254 263.646 254.713C265.02 253.542 266.7 251.761 267.107 249.726C267.31 248.606 267.107 247.537 266.496 246.57L271.687 238.072L273.57 244.636C273.417 245.196 273.01 247.283 271.534 249.471ZM274.486 244.077L272.705 237.919L281.153 242.55C279.27 243.212 277.081 243.72 274.486 244.077ZM286.293 238.937C285.377 240.158 284.053 241.176 282.374 241.99L273.316 237.003L287.616 233.542C287.769 234.662 287.87 236.85 286.293 238.937ZM288.939 232.168C288.685 232.117 288.379 232.168 288.176 232.321L273.57 235.832L283.494 226.061L291.433 232.423C290.618 232.372 289.804 232.27 288.939 232.168ZM292.501 231.914L284.613 225.502L292.603 222.855L292.501 231.914ZM293.214 221.329L285.377 210.387L300.389 215.222L293.214 221.329ZM300.796 229.776C299.372 231.558 296.98 232.474 293.57 232.525L293.672 222.652L302.069 222.55C302.476 224.993 302.374 227.792 300.796 229.776Z" fill="white"/>
<path d="M187.158 359.65V379.09H181V346.113H188.888L203.494 371.711C203.188 369.319 203.087 367.182 203.087 365.248V346.062H209.244V379.039H201.102L186.751 353.645C186.903 354.866 187.005 355.986 187.056 357.003C187.107 358.021 187.158 358.937 187.158 359.65Z" fill="#3E3D46"/>
<path d="M229.346 379.599C226.344 379.599 223.748 379.09 221.662 378.123C219.575 377.156 217.997 375.68 216.929 373.746C215.86 371.812 215.3 369.522 215.3 366.774V346.164H222.221V366.214C222.221 368.81 222.832 370.795 224.104 372.169C225.326 373.543 227.158 374.204 229.55 374.204C231.992 374.204 233.926 373.492 235.249 372.067C236.573 370.642 237.234 368.606 237.234 366.011V346.164H244.104V366.418C244.104 369.217 243.545 371.558 242.374 373.543C241.204 375.527 239.524 377.003 237.336 378.072C235.148 379.09 232.45 379.599 229.346 379.599Z" fill="#3E3D46"/>
<path d="M258.048 370.693L255.097 379.141H248.176L260.186 346.164H268.328L280.338 379.141H273.519L270.567 370.693H258.048ZM264.359 351.202C264.206 351.812 264.003 352.576 263.697 353.441C263.392 354.306 263.188 354.917 263.086 355.273L259.626 365.451H269.092L265.529 355.069C265.326 354.408 265.122 353.797 264.919 353.136C264.715 352.474 264.562 351.863 264.359 351.202Z" fill="#3E3D46"/>
<path d="M291.025 359.65V379.09H284.868V346.113H292.756L307.361 371.711C307.056 369.319 306.954 367.182 306.954 365.248V346.062H313.112V379.039H305.02L290.669 353.645C290.822 354.866 290.924 355.986 290.975 357.003C290.975 358.021 291.025 358.937 291.025 359.65Z" fill="#3E3D46"/>
<path d="M334.893 374.153C339.066 374.153 341.967 372.067 343.595 367.894L349.6 370.184C348.328 373.39 346.394 375.731 343.901 377.309C341.407 378.886 338.404 379.649 334.893 379.649C331.382 379.649 328.379 378.988 325.885 377.614C323.392 376.24 321.509 374.306 320.186 371.761C318.863 369.217 318.252 366.113 318.252 362.55C318.252 358.937 318.863 355.884 320.135 353.39C321.407 350.896 323.239 349.013 325.682 347.69C328.125 346.367 331.076 345.756 334.639 345.756C338.506 345.756 341.661 346.52 344.104 348.097C346.547 349.675 348.226 351.914 349.244 354.968L343.137 356.647C342.628 354.968 341.611 353.695 340.084 352.677C338.557 351.711 336.827 351.202 334.74 351.202C331.636 351.202 329.244 352.169 327.616 354.102C325.987 356.036 325.173 358.886 325.173 362.601C325.173 365.146 325.529 367.283 326.293 369.013C327.056 370.744 328.125 372.067 329.55 372.983C331.025 373.695 332.807 374.153 334.893 374.153Z" fill="#3E3D46"/>
<path d="M381 373.797V379.141H354.079V346.164H380.033V351.456H361V359.751H378.608V365.095H361V373.797H381Z" fill="#3E3D46"/>
<circle opacity="0.6" cx="523.448" cy="310.157" r="136.88" transform="rotate(-132.182 523.448 310.157)" fill="#E3EAFA"/>
</svg>
