<svg width="200" height="197" viewBox="0 0 200 197" fill="none" xmlns="http://www.w3.org/2000/svg">
<path d="M157.405 90.2373L153.893 68.1508C151.501 60.2118 151.043 51.6622 149.924 43.418C141.425 -18.3632 23.6134 -20.9077 55.878 79.7029L58.6261 116.802C58.677 119.55 60.7127 121.789 63.4099 122.197L111.451 133.087C114.504 133.494 117.252 131.102 117.252 128.049V119.296C117.252 117.209 119.084 115.581 121.171 115.784L137.252 117.413C141.222 117.82 144.784 114.868 145.14 110.848L146.514 94.1559C146.616 93.2398 147.379 92.5274 148.295 92.5783L153.792 92.8327C155.318 92.7818 157.812 91.6622 157.405 90.2373ZM120.662 47.4383C119.746 48.5579 118.524 49.423 116.947 49.9319C114.657 50.6953 111.603 50.7971 107.888 50.2373L107.685 50.2882V50.3391C107.888 51.6113 107.99 54.1559 106.209 56.5477C104.835 58.3798 102.596 59.8556 99.5931 60.8225C97.8628 61.3823 95.8272 61.8403 93.588 62.1457C93.3844 63.0108 92.8755 64.9956 91.5015 67.0821C90.4328 68.6597 89.1096 69.9828 87.5829 70.9498C86.6669 71.5096 85.6999 71.9676 84.6312 72.3238C83.4099 72.7309 82.1376 72.9854 80.7635 73.0872L78.5752 73.2398L80.4582 72.0694C80.5091 72.0185 84.5803 69.423 85.1401 66.5223C85.2928 65.708 85.1401 64.9447 84.6821 64.2322C84.0205 64.3849 82.5447 64.5884 80.7635 64.5884C77.5574 64.5884 74.8602 63.8251 73.0282 62.2984C70.8399 60.5681 69.7712 57.8709 69.7203 54.3085L68.7534 54.105C67.99 53.9523 67.1758 53.7996 66.4633 53.647C65.0384 53.3925 63.0536 52.0694 61.476 50.2373C60.7127 49.3213 59.5422 47.7437 58.8806 45.7589C58.6261 45.0465 58.4735 44.2322 58.4226 43.418C58.4226 43.1126 58.4226 42.7564 58.4735 42.451C58.6261 40.619 59.4404 38.9905 60.8653 37.5146C62.7992 35.6317 65.8526 34.1559 69.9238 33.1381C70.1274 33.0872 70.2801 32.8836 70.2801 32.6291C69.9239 29.9319 69.4658 23.3671 73.4862 19.9065C76.3869 17.4129 80.9671 17.1075 87.1249 18.9905C87.1249 18.9905 87.1249 18.9905 87.1758 18.9905C87.8882 17.7691 90.5854 13.5961 94.9111 12.68C97.5574 12.1202 100.356 12.8327 103.206 14.8174C104.173 15.479 104.58 15.479 104.784 15.3772C105.954 14.563 108.092 14.105 110.331 14.2068C112.926 14.3594 115.42 15.1737 117.354 16.5477C117.507 16.6495 117.608 16.7513 117.761 16.8531C119.389 18.1253 120.56 19.7538 121.222 21.7895C121.323 22.0948 121.425 22.3493 121.476 22.6546C122.239 25.6063 122.036 29.2195 120.814 33.3416C120.713 33.647 120.764 33.9523 120.865 34.2068C121.323 35.2755 122.087 37.5146 122.392 39.9574C122.596 43.1126 122.087 45.6571 120.662 47.4383Z" fill="#3E3D46"/>
<path d="M74.2493 43.6723L78.0661 34.9191L71.8574 34.5629L74.2493 43.6723Z" fill="#3E3D46"/>
<path d="M100.407 43.5706L86.1577 48.3034L90.8396 53.0362L100.407 43.5706Z" fill="#3E3D46"/>
<path d="M95.5215 27.8964L79.5928 34.6648L85.2416 46.8785L95.5215 27.8964Z" fill="#3E3D46"/>
<path d="M96.6413 28.0999L86.3105 47.1329L101.781 41.993L96.6413 28.0999Z" fill="#3E3D46"/>
<path d="M95.9285 26.573L90.0761 16.802C89.0074 17.9216 88.2949 19.0921 87.9896 19.601C87.8369 19.9063 87.5316 20.1099 87.1754 20.1608L80.1016 33.2906L95.9285 26.573Z" fill="#3E3D46"/>
<path d="M86.0557 19.9065C82.9005 18.9905 80.2542 18.736 78.0659 19.0414L79.2364 32.5274L86.0557 19.9065Z" fill="#3E3D46"/>
<path d="M102.392 27.1837H102.341V26.9292L97.4556 27.2854L102.036 39.5501L102.392 27.1837Z" fill="#3E3D46"/>
<path d="M120.102 31.3059C121.272 26.2168 120.611 22.7562 119.237 20.4153L104.58 26.2677L120.102 31.3059Z" fill="#3E3D46"/>
<path d="M78.8806 35.7334L74.9111 44.9955L84.2241 47.2856L78.8806 35.7334Z" fill="#3E3D46"/>
<path d="M119.542 33.4943L113.588 38.5324L120.865 38.4815C120.509 36.8021 120 35.4281 119.695 34.6647C119.542 34.3085 119.491 33.9014 119.542 33.4943Z" fill="#3E3D46"/>
<path d="M116.54 17.4636C114.809 16.1913 112.519 15.4789 110.127 15.3262C108.143 15.2244 106.209 15.5806 105.242 16.2931C105.038 16.4458 104.784 16.5476 104.529 16.5476L103.562 25.5043L118.575 19.4992C118.015 18.685 117.252 18.0234 116.54 17.4636Z" fill="#3E3D46"/>
<path d="M103.053 41.5348L111.247 38.8376L103.46 27.9979L103.053 41.5348Z" fill="#3E3D46"/>
<path d="M96.794 25.5043L97.0485 26.2168L102.392 25.8606L102.443 24.741L102.545 24.8937L103.461 16.3949C103.003 16.1914 102.646 15.9369 102.392 15.7842C99.7966 13.9522 97.303 13.2906 94.962 13.8504C93.3335 14.2066 91.9594 15.0718 90.8398 16.0896L96.6923 25.7588L96.794 25.5043Z" fill="#3E3D46"/>
<path d="M89.9236 53.6469L85.2926 48.965L85.1399 49.2703L85.089 49.1685L77.3027 60.8225L89.9236 53.6469Z" fill="#3E3D46"/>
<path d="M93.4862 61.0771C96.0817 60.7208 98.27 60.2119 100.153 59.4995L91.7051 54.8684L93.4862 61.0771Z" fill="#3E3D46"/>
<path d="M92.3154 54.0031L101.374 58.9903C103.104 58.1761 104.376 57.1583 105.293 55.9369C106.87 53.8504 106.768 51.6621 106.565 50.5934L92.3154 54.0031Z" fill="#3E3D46"/>
<path d="M111.501 48.9141L111.552 39.8556L103.562 42.5019L111.501 48.9141Z" fill="#3E3D46"/>
<path d="M92.5698 52.7816L107.175 49.2702C107.43 49.1175 107.684 49.0666 107.939 49.1175C108.804 49.2702 109.618 49.3211 110.382 49.4228L102.493 43.0106L92.5698 52.7816Z" fill="#3E3D46"/>
<path d="M104.376 27.3875L112.214 38.3289L119.389 32.2221L104.376 27.3875Z" fill="#3E3D46"/>
<path d="M112.672 39.6521L112.57 49.5248C115.979 49.474 118.422 48.5579 119.796 46.7768C121.374 44.792 121.425 42.0439 121.069 39.5503L112.672 39.6521Z" fill="#3E3D46"/>
<path d="M85.4451 63.6213C86.0558 64.5882 86.2593 65.6569 86.0558 66.7765C85.6995 68.8121 83.9693 70.5933 82.5952 71.7638C86.0049 71.0513 88.6512 69.321 90.4833 66.5221C91.9082 64.3338 92.3662 62.2473 92.468 61.7383L90.585 55.1735L85.4451 63.6213Z" fill="#3E3D46"/>
<path d="M71.094 33.4432L78.2695 33.7995L76.9973 19.2957C75.8777 19.601 74.9108 20.1099 74.0965 20.8224C70.4324 23.9267 70.8904 30.0845 71.2466 32.5781C71.2466 32.8834 71.1957 33.1888 71.094 33.4432Z" fill="#3E3D46"/>
<path d="M70.5853 34.0538C70.4326 34.1556 70.2799 34.2574 70.0764 34.3083C62.9008 36.0895 59.2367 39.2447 59.3893 43.4177C59.3893 43.9266 59.4911 44.4864 59.5929 44.9444V44.4355L73.4352 44.7917L70.5853 34.0538Z" fill="#3E3D46"/>
<path d="M70.5854 53.4941H70.6872V53.9521C70.6363 57.3617 71.6033 59.9063 73.588 61.4839C73.9951 61.8401 74.504 62.1454 74.962 62.349L73.7916 47.2854L70.5854 53.4941Z" fill="#3E3D46"/>
<path d="M59.7456 45.5043C60.3054 47.2854 61.3741 48.7104 62.1375 49.5755C63.5624 51.204 65.2927 52.4254 66.5141 52.629C67.2774 52.7816 68.0917 52.8834 68.9059 53.087L69.5675 53.2396L73.3334 45.8605L59.7456 45.5043Z" fill="#3E3D46"/>
<path d="M74.7583 46.0642L75.9288 60.9243L84.3257 48.4052L74.7583 46.0642Z" fill="#3E3D46"/>
<path d="M75.9795 62.8072C79.4401 64.0286 83.5113 63.367 84.4782 63.1634L89.2619 55.2754L75.9795 62.8072Z" fill="#3E3D46"/>
<path d="M120.713 34.2576C120.611 33.9522 120.56 33.6469 120.662 33.3925C121.883 29.2703 122.087 25.6571 121.323 22.7054C121.222 22.4001 121.171 22.1456 121.069 21.8403C120.407 19.8556 119.237 18.1762 117.608 16.9039C117.456 16.8021 117.354 16.7003 117.201 16.5986C115.267 15.2245 112.774 14.4103 110.178 14.2576C107.939 14.1558 105.802 14.5629 104.631 15.4281C104.428 15.5807 104.021 15.5807 103.054 14.8683C100.204 12.8835 97.4049 12.1711 94.7586 12.7309C90.4329 13.6978 87.7357 17.8199 87.0232 19.0413C87.0232 19.0413 87.0232 19.0413 86.9723 19.0413C80.8145 17.1584 76.2344 17.4637 73.3336 19.9573C69.2624 23.4179 69.7204 30.0337 70.1275 32.68C70.1784 32.9344 70.0257 33.138 69.7713 33.1889C65.6492 34.2067 62.5957 35.6825 60.7128 37.5655C59.2369 38.9904 58.4227 40.6698 58.3209 42.5019C58.27 42.8072 58.27 43.1126 58.27 43.4688C58.3209 44.283 58.4736 45.0464 58.728 45.8098C59.3387 47.7945 60.5601 49.3721 61.3235 50.2881C62.9011 52.1202 64.8858 53.4942 66.3107 53.6978C67.0741 53.8505 67.8375 53.9522 68.6008 54.1558L69.5677 54.3594C69.5677 57.9217 70.6873 60.568 72.8756 62.3492C74.7586 63.825 77.4049 64.6393 80.611 64.6393C82.3922 64.6393 83.868 64.3848 84.5296 64.283C84.9876 64.9955 85.1402 65.7589 84.9876 66.5731C84.4278 69.4739 80.3565 72.1202 80.3056 72.1202L78.4227 73.2907L80.611 73.138C81.985 73.0362 83.3082 72.7818 84.4787 72.3746C85.5474 72.0184 86.5143 71.5604 87.4303 71.0006C89.0079 70.0337 90.3311 68.7105 91.3489 67.1329C92.7229 65.0464 93.2827 63.0617 93.4354 62.1965C95.7255 61.8912 97.7102 61.4841 99.4405 60.8734C102.443 59.8556 104.682 58.4306 106.056 56.5986C107.888 54.1558 107.787 51.6622 107.532 50.3899V50.339L107.736 50.2881C111.451 50.8479 114.504 50.7461 116.794 49.9828C118.372 49.4739 119.593 48.6087 120.509 47.4891C121.934 45.708 122.443 43.2143 122.087 40.0591C121.934 37.5655 121.171 35.3772 120.713 34.2576ZM120.865 38.4815L113.588 38.5324L119.542 33.4942C119.491 33.9014 119.542 34.2576 119.695 34.6647C120 35.3772 120.509 36.8021 120.865 38.4815ZM119.237 20.4662C120.56 22.8072 121.273 26.2678 120.102 31.3568L104.58 26.3696L119.237 20.4662ZM104.53 16.5477C104.784 16.5477 104.988 16.4459 105.242 16.2932C106.209 15.6316 108.092 15.2245 110.128 15.3263C112.519 15.4281 114.809 16.1914 116.54 17.4637C117.252 17.9726 118.016 18.6342 118.626 19.4993L103.614 25.5044L104.53 16.5477ZM95.013 13.7996C97.354 13.2907 99.8985 13.9522 102.443 15.7334C102.647 15.8861 103.054 16.1405 103.512 16.3441L102.596 24.8428L102.494 24.6902L102.443 25.8098L97.0995 26.166L96.8451 25.4535L96.7433 25.6571L90.8909 15.9879C91.9596 15.021 93.3336 14.1558 95.013 13.7996ZM111.247 38.8377L103.054 41.5858L103.461 27.9981L111.247 38.8377ZM78.8807 35.7334L84.2242 47.2856L74.9112 44.9955L78.8807 35.7334ZM74.2497 43.6723L71.8069 34.5629L78.0156 34.8683L74.2497 43.6723ZM79.5932 34.6647L95.5219 27.8963L85.242 46.8276L79.5932 34.6647ZM85.1402 49.2703L85.2929 48.965L89.924 53.6469L77.3031 60.7716L85.0894 49.1176L85.1402 49.2703ZM86.1581 48.3034L100.407 43.5706L90.7891 53.0362L86.1581 48.3034ZM86.3107 47.1329L96.6415 28.1507L101.781 41.993L86.3107 47.1329ZM97.4558 27.2856L102.341 26.9293L102.29 27.1838L102.341 27.1329L101.934 39.4993L97.4558 27.2856ZM87.125 20.1609C87.4812 20.11 87.7357 19.9064 87.9392 19.6011C88.2446 19.0413 88.957 17.9217 90.0257 16.8021L95.8782 26.5731L80.0003 33.2907L87.125 20.1609ZM86.0563 19.9064L79.2369 32.5273L78.0665 19.0413C80.2039 18.736 82.9011 19.0413 86.0563 19.9064ZM74.0461 20.8225C74.8603 20.11 75.8273 19.6011 76.9469 19.2958L78.2191 33.7996L71.0436 33.4433C71.1453 33.1889 71.1962 32.8835 71.1962 32.5782C70.84 30.0846 70.4329 23.9268 74.0461 20.8225ZM59.5932 44.9446C59.4914 44.4357 59.3896 43.9268 59.3896 43.4179C59.2369 39.2449 62.9011 36.0897 70.0766 34.3085C70.2802 34.2576 70.4329 34.1558 70.5855 34.054L73.4354 44.7919L59.5932 44.4357V44.9446ZM69.4659 53.2398L68.8044 53.0871C67.9901 52.9344 67.2268 52.7818 66.4125 52.6291C65.242 52.4255 63.4609 51.2042 62.0359 49.5757C61.3235 48.7614 60.2548 47.2856 59.6441 45.5044L73.181 45.8606L69.4659 53.2398ZM73.5372 61.4841C71.5525 59.9064 70.5855 57.3619 70.6364 53.9522V53.4942H70.5347L73.6899 47.2856L74.8604 62.3492C74.4532 62.1456 73.9952 61.8403 73.5372 61.4841ZM74.7586 46.0642L84.326 48.4052L75.9291 60.9243L74.7586 46.0642ZM84.4787 63.1634C83.5117 63.367 79.4405 64.0795 75.9799 62.8072L89.2624 55.2754L84.4787 63.1634ZM90.5346 66.4713C88.7026 69.2703 86.0563 71.0006 82.6466 71.7131C84.0207 70.5426 85.7 68.7614 86.1072 66.7258C86.3107 65.6062 86.1072 64.5375 85.4965 63.5706L90.6873 55.0718L92.5703 61.6367C92.4176 62.1965 92.0105 64.283 90.5346 66.4713ZM93.4863 61.0769L91.7051 54.9192L100.153 59.5502C98.27 60.2118 96.0817 60.7207 93.4863 61.0769ZM105.293 55.937C104.377 57.1584 103.054 58.1762 101.374 58.9904L92.3158 54.0031L106.616 50.5426C106.769 51.6622 106.871 53.8505 105.293 55.937ZM107.939 49.1685C107.685 49.1176 107.379 49.1685 107.176 49.3212L92.5703 52.8327L102.494 43.0617L110.433 49.423C109.619 49.3721 108.804 49.2703 107.939 49.1685ZM111.502 48.9141L103.614 42.5019L111.603 39.8556L111.502 48.9141ZM112.214 38.3288L104.377 27.3874L119.39 32.222L112.214 38.3288ZM119.797 46.7767C118.372 48.5578 115.98 49.4739 112.57 49.5248L112.672 39.652L121.069 39.5502C121.476 41.993 121.374 44.7919 119.797 46.7767Z" fill="white"/>
<path d="M6.15776 176.65V196.09H0V163.113H7.88804L22.4936 188.711C22.1883 186.319 22.0865 184.181 22.0865 182.248V163.062H28.2443V196.039H20.1018L5.75064 170.644C5.90331 171.866 6.00509 172.985 6.05598 174.003C6.10687 175.021 6.15776 175.937 6.15776 176.65Z" fill="#3E3D46"/>
<path d="M48.3461 196.599C45.3435 196.599 42.7481 196.09 40.6616 195.123C38.5751 194.156 36.9975 192.68 35.9288 190.746C34.8601 188.812 34.3003 186.522 34.3003 183.774V163.163H41.2214V183.214C41.2214 185.81 41.8321 187.794 43.1044 189.169C44.3257 190.543 46.1578 191.204 48.5497 191.204C50.9924 191.204 52.9262 190.492 54.2494 189.067C55.5726 187.642 56.2341 185.606 56.2341 183.011V163.163H63.1044V183.418C63.1044 186.217 62.5446 188.558 61.3741 190.543C60.2036 192.527 58.5242 194.003 56.3359 195.072C54.1476 196.09 51.4504 196.599 48.3461 196.599Z" fill="#3E3D46"/>
<path d="M77.0486 187.693L74.0969 196.141H67.1758L79.186 163.163H87.3285L99.3386 196.141H92.5193L89.5676 187.693H77.0486ZM83.359 168.202C83.2063 168.812 83.0028 169.576 82.6974 170.441C82.3921 171.306 82.1885 171.917 82.0867 172.273L78.6262 182.451H88.0918L84.5295 172.069C84.3259 171.408 84.1223 170.797 83.9188 170.135C83.7152 169.474 83.5625 168.863 83.359 168.202Z" fill="#3E3D46"/>
<path d="M110.025 176.65V196.09H103.868V163.113H111.756L126.361 188.711C126.056 186.319 125.954 184.181 125.954 182.248V163.062H132.112V196.039H124.02L109.669 170.644C109.822 171.866 109.924 172.985 109.975 174.003C109.975 175.021 110.025 175.937 110.025 176.65Z" fill="#3E3D46"/>
<path d="M153.893 191.153C158.066 191.153 160.967 189.067 162.595 184.894L168.601 187.184C167.328 190.39 165.394 192.731 162.901 194.309C160.407 195.886 157.405 196.649 153.893 196.649C150.382 196.649 147.379 195.988 144.886 194.614C142.392 193.24 140.509 191.306 139.186 188.761C137.863 186.217 137.252 183.113 137.252 179.55C137.252 175.937 137.863 172.884 139.135 170.39C140.407 167.896 142.239 166.013 144.682 164.69C147.125 163.367 150.076 162.756 153.639 162.756C157.506 162.756 160.662 163.52 163.104 165.097C165.547 166.675 167.227 168.914 168.244 171.968L162.137 173.647C161.629 171.968 160.611 170.695 159.084 169.677C157.557 168.711 155.827 168.202 153.74 168.202C150.636 168.202 148.244 169.169 146.616 171.102C144.987 173.036 144.173 175.886 144.173 179.601C144.173 182.146 144.529 184.283 145.293 186.013C146.056 187.744 147.125 189.067 148.55 189.983C150.025 190.695 151.807 191.153 153.893 191.153Z" fill="#3E3D46"/>
<path d="M200 190.797V196.141H173.079V163.163H199.033V168.456H180V176.751H197.608V182.095H180V190.797H200Z" fill="#3E3D46"/>
</svg>
