<svg width="51" height="39" viewBox="0 0 51 39" fill="none" xmlns="http://www.w3.org/2000/svg">
<path d="M43.047 22.0139C41.4772 22.0152 39.9285 22.3837 38.5196 23.0913C38.0559 22.1445 37.5858 21.3125 37.5073 20.6932C37.416 19.9703 37.3083 19.5394 37.416 18.6784C37.5237 17.8175 38.0148 16.5984 38.0075 16.507C38.0002 16.4156 37.8979 15.9772 36.8902 15.9697C35.8825 15.9622 35.0199 16.1675 34.9186 16.4361C34.7416 16.933 34.6027 17.4432 34.5033 17.9621C34.3271 18.8948 32.4906 22.2266 31.4482 23.969C31.1077 23.289 30.8174 22.6893 30.7572 22.2154C30.6659 21.4925 30.5582 21.0616 30.6659 20.2007C30.7736 19.3397 31.2647 18.1206 31.2574 18.0292C31.2501 17.9378 31.1479 17.4994 30.1401 17.492C29.1324 17.4845 28.2698 17.6897 28.1685 17.9583C28.0672 18.227 27.9586 18.8659 27.7523 19.4806C27.546 20.0953 25.1052 25.6517 24.4662 27.0918C24.1404 27.8259 23.8574 28.4154 23.6566 28.8174C23.6566 28.8174 23.6447 28.8445 23.6228 28.8893C23.4521 29.2325 23.349 29.4219 23.349 29.4219V29.4293C23.213 29.6802 23.0678 29.9144 22.9957 29.9144C22.9455 29.9144 22.8442 29.2446 23.0176 28.3287C23.3827 26.4016 24.2535 23.3953 24.2444 23.2918C24.2398 23.2386 24.4069 22.7154 23.6748 22.4411C22.9638 22.1753 22.71 22.6184 22.6452 22.6202C22.5804 22.6221 22.5357 22.7769 22.5357 22.7769C22.5357 22.7769 23.328 19.3966 21.0241 19.3966C19.5837 19.3966 17.5874 21.0066 16.6043 22.4663C15.9836 22.8124 14.6555 23.553 13.2471 24.344L11.6305 25.2534C11.5949 25.2124 11.5593 25.1722 11.5228 25.1321C8.72878 22.0867 3.5642 19.932 3.78327 15.8373C3.86268 14.3449 4.36928 10.4273 13.7071 5.67026C21.3563 1.77508 27.4803 2.84682 28.5382 5.22254C30.0498 8.61589 25.2658 14.9232 17.3218 15.8335C14.295 16.1805 12.7012 14.9819 12.3014 14.5351C11.8843 14.0688 11.8222 14.0436 11.6625 14.1322C11.4087 14.2758 11.5712 14.6918 11.6625 14.9381C11.8998 15.5686 12.8729 16.687 14.5323 17.2438C15.9928 17.7335 19.5454 18.0022 23.8428 16.3036C28.6559 14.4008 32.4139 9.10932 31.3103 4.68527C30.1876 0.185673 22.8871 -1.29274 15.9754 1.21543C11.8679 2.70783 7.41162 5.05091 4.21137 8.11034C0.405941 11.7481 -0.201065 14.9138 0.0490397 16.2365C0.937186 20.9366 7.27744 23.9979 9.81591 26.2664L9.46631 26.4632C8.21487 27.1086 3.37708 29.6924 2.16854 32.4235C0.799354 35.5211 2.3867 37.7402 3.43915 38.0424C6.69964 38.9695 10.045 37.3018 11.8432 34.5613C13.6414 31.8209 13.4178 28.2541 12.5963 26.6255C12.5862 26.605 12.5744 26.5854 12.5643 26.5658C12.8929 26.3662 13.2279 26.1647 13.5602 25.9651C14.2083 25.5761 14.8436 25.2189 15.3958 24.9073C15.0873 25.7711 14.8609 26.8074 14.7432 28.3044C14.6053 30.0627 15.31 32.3349 16.2328 33.2294C16.639 33.623 17.1283 33.6323 17.4377 33.6323C18.5112 33.6323 19.0013 32.7191 19.5371 31.6399C20.1989 30.3154 20.7858 28.7745 20.7858 28.7745C20.7858 28.7745 20.0492 32.9383 22.0564 32.9383C22.7867 32.9383 23.5233 31.9692 23.851 31.4749V31.4832L23.9076 31.39C23.9834 31.2715 24.0263 31.196 24.0263 31.196C24.0266 31.1888 24.0266 31.1817 24.0263 31.1745C24.3202 30.6531 24.9728 29.4638 25.9504 27.5023C27.2137 24.968 28.4259 21.7938 28.4259 21.7938C28.5442 22.49 28.7051 23.1778 28.9079 23.8533C29.1251 24.6089 29.587 25.439 29.9503 26.244C29.6573 26.6591 29.4774 26.8969 29.4774 26.8969V26.909C29.2438 27.2271 28.9809 27.5704 28.7061 27.9043C27.7094 29.1169 26.5209 30.5039 26.3621 30.904C26.1795 31.3704 26.2188 31.722 26.5812 32.0009C26.8459 32.2043 27.3169 32.236 27.8079 32.2024C28.4397 32.1673 29.061 32.0228 29.6454 31.7752C30.2095 31.5719 30.7418 31.286 31.2254 30.9264C32.204 30.1914 32.7936 29.1402 32.737 27.7476C32.706 26.9799 32.4632 26.2197 32.1629 25.5015C32.2542 25.3709 32.3409 25.2394 32.4303 25.106C33.4453 23.5569 34.36 21.9417 35.1687 20.2706C35.287 20.9668 35.4479 21.6546 35.6507 22.3301C35.8332 22.9831 36.2065 23.6882 36.5379 24.3822C35.0875 25.5864 34.1884 26.9855 33.8762 27.9033C33.2993 29.601 33.7511 30.3695 34.5991 30.5449C34.9834 30.6242 35.5256 30.4442 35.9345 30.2651C36.5384 30.0597 37.1076 29.7605 37.6223 29.378C38.6008 28.643 39.5391 27.6142 39.4844 26.2216C39.4436 25.5804 39.3009 24.9503 39.0618 24.3561C40.2913 23.8328 41.8823 23.5418 43.9096 23.7834C48.2581 24.302 49.1125 27.0769 48.9482 28.2382C48.7839 29.3995 47.8729 30.0375 47.5681 30.2306C47.2632 30.4236 47.1701 30.4899 47.1956 30.6335C47.2331 30.8415 47.3736 30.8341 47.6338 30.7893C47.9916 30.7277 49.9158 29.8444 49.9997 27.7009C50.1184 24.9782 47.5662 21.9897 43.047 22.0139ZM9.52838 33.5652C8.088 35.1704 6.07529 35.7776 5.2127 35.2665C4.28074 34.7143 4.64951 32.3507 6.41759 30.6466C7.49468 29.6084 8.88213 28.6514 9.80861 28.0628L10.7013 27.5144L10.799 27.4575L11.0226 27.3213C11.6634 29.7409 11.0445 31.8759 9.52838 33.5652ZM20.0255 26.2757C19.5235 27.5256 18.4737 30.7221 17.8348 30.5514C17.2871 30.4041 16.9521 27.9733 17.7253 25.5817C18.1141 24.3775 18.9457 22.9383 19.434 22.3805C20.2199 21.4813 21.0862 21.1875 21.2961 21.5522C21.5608 22.0121 20.3367 25.4884 20.0218 26.272L20.0255 26.2757ZM28.697 30.502C28.4843 30.6158 28.289 30.6885 28.1986 30.6326C28.132 30.5915 28.2899 30.446 28.2899 30.446C28.2899 30.446 29.3743 29.254 29.8015 28.7111C30.0498 28.3949 30.3382 28.0209 30.6522 27.6011C30.6522 27.6431 30.6522 27.6851 30.6522 27.7261C30.6431 29.1467 29.2931 30.114 28.6915 30.4983L28.697 30.502ZM35.3759 28.9471C35.2171 28.8314 35.2436 28.4583 35.7648 27.2971C36.1269 26.5494 36.6318 25.8834 37.2499 25.3383C37.3432 25.6156 37.3937 25.906 37.3996 26.1992C37.3831 27.9929 36.129 28.6645 35.3704 28.9434L35.3759 28.9471Z" fill="#CD6799"/>
</svg>
