<svg width="544" height="187" viewBox="0 0 544 187" fill="none" xmlns="http://www.w3.org/2000/svg">
<line y1="-1.12181" x2="202.786" y2="-1.12181" transform="matrix(0.428311 0.903631 -0.870522 0.492129 75.49 3.00098)" stroke="#BBE5ED" stroke-width="2.24362"/>
<line y1="-1.12181" x2="201.13" y2="-1.12181" transform="matrix(0.412481 -0.910966 0.880195 0.474611 164.378 186.224)" stroke="#BBE5ED" stroke-width="2.24362"/>
<line y1="-1.12181" x2="202.786" y2="-1.12181" transform="matrix(0.428311 0.903631 -0.870522 0.492129 174.255 3.00098)" stroke="#BBE5ED" stroke-width="2.24362"/>
<line y1="-1.12181" x2="201.13" y2="-1.12181" transform="matrix(0.412481 -0.910966 0.880195 0.474612 263.143 186.224)" stroke="#BBE5ED" stroke-width="2.24362"/>
<line x1="173.896" y1="1.87917" x2="247.7" y2="1.87917" stroke="#BBE5ED" stroke-width="2.24362"/>
<line y1="-1.12181" x2="71.9563" y2="-1.12181" transform="matrix(0.428311 0.903631 -0.870522 0.492129 446.48 10.2256)" stroke="#BBE5ED" stroke-width="2.24362"/>
<line y1="-1.12181" x2="71.3688" y2="-1.12181" transform="matrix(0.412481 -0.910966 0.880195 0.474612 478.021 75.2402)" stroke="#BBE5ED" stroke-width="2.24362"/>
<line y1="-1.12181" x2="71.9563" y2="-1.12181" transform="matrix(0.428312 0.903631 -0.870522 0.492129 481.525 10.2256)" stroke="#BBE5ED" stroke-width="2.24362"/>
<line y1="-1.12181" x2="71.3687" y2="-1.12181" transform="matrix(0.41248 -0.910967 0.880195 0.474613 513.066 75.2402)" stroke="#BBE5ED" stroke-width="2.24362"/>
<line x1="481.398" y1="9.10378" x2="507.586" y2="9.10378" stroke="#BBE5ED" stroke-width="2.24362"/>
<line y1="-1.12181" x2="71.9563" y2="-1.12181" transform="matrix(0.428311 0.903631 -0.870522 0.492129 447.975 121.222)" stroke="#BAA592" stroke-width="2.24362"/>
<line y1="-1.12181" x2="71.3686" y2="-1.12181" transform="matrix(0.412482 -0.910966 0.880196 0.474611 479.516 186.236)" stroke="#BAA592" stroke-width="2.24362"/>
<line y1="-1.12181" x2="71.9562" y2="-1.12181" transform="matrix(0.428311 0.903631 -0.870522 0.492129 483.021 121.222)" stroke="#BAA592" stroke-width="2.24362"/>
<line y1="-1.12181" x2="71.3686" y2="-1.12181" transform="matrix(0.412481 -0.910966 0.880195 0.474612 514.562 186.236)" stroke="#BAA592" stroke-width="2.24362"/>
<line x1="482.894" y1="120.1" x2="509.082" y2="120.1" stroke="#BAA592" stroke-width="2.24362"/>
<path d="M172.578 111.394H173.656C173.569 112.253 173.332 112.995 172.947 113.62C172.561 114.24 172.035 114.716 171.369 115.049C170.703 115.382 169.9 115.548 168.959 115.548C168.234 115.548 167.577 115.411 166.987 115.136C166.403 114.862 165.9 114.473 165.48 113.971C165.059 113.462 164.735 112.855 164.507 112.148C164.279 111.441 164.165 110.655 164.165 109.79V108.195C164.165 107.331 164.279 106.548 164.507 105.846C164.735 105.139 165.062 104.532 165.488 104.024C165.915 103.515 166.426 103.124 167.022 102.849C167.618 102.575 168.29 102.437 169.038 102.437C169.943 102.437 170.726 102.604 171.387 102.937C172.047 103.264 172.567 103.737 172.947 104.357C173.332 104.976 173.569 105.724 173.656 106.6H172.578C172.497 105.911 172.316 105.326 172.035 104.847C171.755 104.368 171.366 104.003 170.869 103.752C170.379 103.495 169.768 103.366 169.038 103.366C168.442 103.366 167.91 103.48 167.443 103.708C166.975 103.936 166.578 104.263 166.251 104.69C165.924 105.11 165.672 105.616 165.497 106.206C165.328 106.796 165.243 107.453 165.243 108.178V109.79C165.243 110.491 165.325 111.137 165.488 111.727C165.652 112.317 165.891 112.829 166.207 113.261C166.528 113.693 166.92 114.029 167.381 114.269C167.843 114.508 168.369 114.628 168.959 114.628C169.713 114.628 170.341 114.508 170.843 114.269C171.351 114.023 171.746 113.661 172.026 113.182C172.307 112.703 172.491 112.107 172.578 111.394ZM180.475 103.375L176.058 115.373H174.936L179.756 102.612H180.536L180.475 103.375ZM184.489 115.373L180.063 103.375L180.002 102.612H180.782L185.611 115.373H184.489ZM183.7 110.868V111.797H176.925V110.868H183.7ZM187.477 102.612H191.623C192.505 102.612 193.271 102.756 193.919 103.042C194.568 103.328 195.067 103.752 195.418 104.313C195.774 104.868 195.952 105.551 195.952 106.364C195.952 106.965 195.824 107.512 195.567 108.002C195.316 108.493 194.968 108.905 194.524 109.238C194.08 109.565 193.566 109.79 192.981 109.913L192.604 110.053H188.179L188.161 109.133H191.868C192.534 109.133 193.089 109.004 193.533 108.747C193.978 108.49 194.311 108.151 194.533 107.731C194.76 107.304 194.874 106.848 194.874 106.364C194.874 105.785 194.749 105.286 194.498 104.865C194.252 104.438 193.887 104.111 193.402 103.883C192.917 103.655 192.324 103.541 191.623 103.541H188.555V115.373H187.477V102.612ZM195.356 115.373L192.052 109.668L193.209 109.659L196.505 115.259V115.373H195.356ZM198.888 102.612H203.034C203.916 102.612 204.681 102.756 205.33 103.042C205.979 103.328 206.478 103.752 206.829 104.313C207.185 104.868 207.363 105.551 207.363 106.364C207.363 106.965 207.235 107.512 206.978 108.002C206.726 108.493 206.379 108.905 205.935 109.238C205.491 109.565 204.976 109.79 204.392 109.913L204.015 110.053H199.589L199.572 109.133H203.279C203.945 109.133 204.5 109.004 204.944 108.747C205.388 108.49 205.721 108.151 205.943 107.731C206.171 107.304 206.285 106.848 206.285 106.364C206.285 105.785 206.16 105.286 205.908 104.865C205.663 104.438 205.298 104.111 204.813 103.883C204.328 103.655 203.735 103.541 203.034 103.541H199.966V115.373H198.888V102.612ZM206.767 115.373L203.463 109.668L204.62 109.659L207.915 115.259V115.373H206.767ZM211.64 102.612V115.373H210.562V102.612H211.64ZM219.502 109.238H215.908L215.891 108.327H218.984C219.616 108.327 220.153 108.236 220.597 108.055C221.041 107.874 221.377 107.605 221.605 107.249C221.839 106.886 221.956 106.442 221.956 105.917C221.956 105.379 221.842 104.935 221.614 104.584C221.386 104.228 221.044 103.965 220.588 103.796C220.133 103.626 219.56 103.541 218.871 103.541H216.189V115.373H215.111V102.612H218.871C219.519 102.612 220.1 102.677 220.615 102.805C221.129 102.934 221.567 103.135 221.929 103.41C222.291 103.685 222.566 104.032 222.753 104.453C222.946 104.868 223.042 105.364 223.042 105.943C223.042 106.469 222.925 106.945 222.692 107.371C222.458 107.792 222.128 108.137 221.701 108.406C221.281 108.668 220.775 108.832 220.185 108.896L219.502 109.238ZM219.423 115.373H215.566L216.119 114.453H219.423C220.054 114.453 220.591 114.348 221.035 114.137C221.485 113.921 221.83 113.614 222.069 113.217C222.309 112.82 222.429 112.347 222.429 111.797C222.429 111.312 222.324 110.877 222.113 110.491C221.903 110.106 221.582 109.802 221.149 109.58C220.717 109.352 220.168 109.238 219.502 109.238H217.267L217.284 108.327H220.448L220.641 108.651C221.213 108.709 221.713 108.888 222.14 109.186C222.572 109.478 222.905 109.849 223.139 110.299C223.378 110.749 223.498 111.242 223.498 111.78C223.498 112.551 223.326 113.205 222.981 113.743C222.642 114.275 222.166 114.681 221.552 114.961C220.945 115.236 220.235 115.373 219.423 115.373ZM234.05 114.453V115.373H226.872V114.453H234.05ZM227.196 102.612V115.373H226.118V102.612H227.196ZM233.156 108.335V109.256H226.872V108.335H233.156ZM234.006 102.612V103.541H226.872V102.612H234.006ZM240.527 103.375L236.11 115.373H234.988L239.808 102.612H240.588L240.527 103.375ZM244.541 115.373L240.115 103.375L240.053 102.612H240.833L245.662 115.373H244.541ZM243.752 110.868V111.797H236.977V110.868H243.752ZM257.056 102.612V115.373H255.969L248.634 104.47V115.373H247.556V102.612H248.634L255.987 113.515V102.612H257.056Z" fill="black"/>
<path d="M59.2341 60.4997L64.773 41.7269H66.5083L65.106 47.3009L59.199 67.248H57.5338L59.2341 60.4997ZM52.8012 41.7269L57.4637 60.3244L58.866 67.248H57.1307L50.5926 41.7269H52.8012ZM73.9753 60.3244L78.5677 41.7269H80.7763L74.2558 67.248H72.5205L73.9753 60.3244ZM66.7011 41.7269L72.1699 60.4997L73.8526 67.248H72.1875L66.4031 47.3009L64.9833 41.7269H66.7011ZM100.811 65.4076V67.248H86.4554V65.4076H100.811ZM87.104 41.7269V67.248H84.948V41.7269H87.104ZM99.0232 53.1729V55.0133H86.4554V53.1729H99.0232ZM100.723 41.7269V43.5849H86.4554V41.7269H100.723ZM119.829 60.9729C119.829 60.2718 119.712 59.6466 119.479 59.0974C119.245 58.5482 118.859 58.0574 118.322 57.625C117.796 57.181 117.083 56.772 116.183 56.3981C115.295 56.0124 114.185 55.6327 112.853 55.2587C111.579 54.8965 110.428 54.4992 109.4 54.0668C108.372 53.6344 107.489 53.1378 106.753 52.5769C106.029 52.016 105.474 51.3616 105.088 50.6137C104.702 49.8542 104.51 48.9719 104.51 47.967C104.51 46.9854 104.72 46.0914 105.141 45.2851C105.561 44.4788 106.151 43.7836 106.911 43.1993C107.682 42.615 108.588 42.1651 109.628 41.8496C110.679 41.5341 111.831 41.3763 113.081 41.3763C114.869 41.3763 116.411 41.7152 117.708 42.393C119.017 43.0707 120.028 43.9881 120.741 45.1449C121.465 46.2901 121.827 47.5755 121.827 49.0011H119.671C119.671 47.891 119.409 46.9036 118.883 46.0389C118.369 45.1625 117.621 44.4788 116.639 43.9881C115.669 43.4856 114.483 43.2343 113.081 43.2343C111.679 43.2343 110.498 43.4505 109.54 43.8829C108.594 44.3036 107.875 44.8703 107.384 45.5831C106.905 46.2843 106.666 47.0672 106.666 47.9319C106.666 48.5396 106.782 49.1005 107.016 49.6146C107.25 50.1171 107.63 50.5904 108.155 51.0344C108.693 51.4668 109.4 51.8758 110.276 52.2614C111.153 52.6353 112.234 52.9917 113.519 53.3306C114.875 53.7046 116.078 54.1194 117.13 54.5751C118.182 55.0309 119.07 55.5567 119.794 56.1527C120.519 56.7369 121.068 57.4205 121.442 58.2035C121.816 58.9864 122.003 59.8979 122.003 60.9379C122.003 61.9779 121.781 62.9127 121.337 63.7424C120.904 64.5604 120.291 65.2557 119.496 65.8283C118.713 66.4008 117.784 66.8391 116.709 67.1429C115.646 67.4467 114.483 67.5986 113.221 67.5986C112.088 67.5986 110.96 67.4525 109.838 67.1604C108.716 66.8683 107.688 66.4184 106.753 65.8107C105.83 65.1914 105.088 64.3968 104.527 63.4269C103.978 62.457 103.703 61.3001 103.703 59.9563H105.842C105.842 61.0314 106.058 61.937 106.49 62.6732C106.923 63.4094 107.495 64.0053 108.208 64.4611C108.933 64.9168 109.727 65.2498 110.592 65.4602C111.468 65.6588 112.345 65.7581 113.221 65.7581C114.565 65.7581 115.728 65.5595 116.709 65.1622C117.702 64.7649 118.468 64.2098 119.005 63.497C119.555 62.7725 119.829 61.9311 119.829 60.9729ZM135.219 41.7269V67.248H133.081V41.7269H135.219ZM143.966 41.7269V43.5849H124.352V41.7269H143.966ZM164.859 56.8538H157.585V55.0133H164.859C166.378 55.0133 167.611 54.7679 168.558 54.2771C169.516 53.7747 170.211 53.0969 170.644 52.2439C171.088 51.3908 171.31 50.4326 171.31 49.3692C171.31 48.3292 171.088 47.371 170.644 46.4946C170.211 45.6182 169.516 44.9171 168.558 44.3912C167.611 43.8537 166.378 43.5849 164.859 43.5849H158.339V67.248H156.183V41.7269H164.859C166.729 41.7269 168.301 42.0483 169.574 42.691C170.86 43.3337 171.83 44.2276 172.484 45.3728C173.138 46.518 173.466 47.8384 173.466 49.3342C173.466 50.9 173.138 52.2497 172.484 53.3832C171.83 54.505 170.866 55.3639 169.592 55.9599C168.318 56.5558 166.741 56.8538 164.859 56.8538ZM197.146 53.1203V55.8547C197.146 57.6426 196.913 59.261 196.445 60.71C195.989 62.1473 195.323 63.3801 194.447 64.4085C193.582 65.4368 192.542 66.2256 191.327 66.7748C190.112 67.324 188.744 67.5986 187.225 67.5986C185.741 67.5986 184.386 67.324 183.159 66.7748C181.944 66.2256 180.898 65.4368 180.021 64.4085C179.145 63.3801 178.467 62.1473 177.988 60.71C177.509 59.261 177.269 57.6426 177.269 55.8547V53.1203C177.269 51.3324 177.503 49.7198 177.97 48.2825C178.45 46.8335 179.127 45.5948 180.004 44.5665C180.88 43.5382 181.926 42.7494 183.141 42.2002C184.357 41.651 185.706 41.3763 187.19 41.3763C188.709 41.3763 190.077 41.651 191.292 42.2002C192.507 42.7494 193.553 43.5382 194.429 44.5665C195.306 45.5948 195.978 46.8335 196.445 48.2825C196.913 49.7198 197.146 51.3324 197.146 53.1203ZM195.008 55.8547V53.0852C195.008 51.5778 194.833 50.2223 194.482 49.0187C194.143 47.8151 193.635 46.7867 192.957 45.9337C192.291 45.0807 191.473 44.4263 190.503 43.9705C189.533 43.5148 188.429 43.2869 187.19 43.2869C185.987 43.2869 184.906 43.5148 183.948 43.9705C182.989 44.4263 182.171 45.0807 181.494 45.9337C180.828 46.7867 180.313 47.8151 179.951 49.0187C179.601 50.2223 179.425 51.5778 179.425 53.0852V55.8547C179.425 57.3738 179.601 58.741 179.951 59.9563C180.313 61.1599 180.833 62.1941 181.511 63.0588C182.189 63.9118 183.007 64.5662 183.965 65.022C184.935 65.4777 186.022 65.7056 187.225 65.7056C188.476 65.7056 189.58 65.4777 190.538 65.022C191.496 64.5662 192.309 63.9118 192.975 63.0588C193.641 62.1941 194.143 61.1599 194.482 59.9563C194.833 58.741 195.008 57.3738 195.008 55.8547ZM205.227 41.7269V67.248H203.071V41.7269H205.227ZM231.169 41.7269V67.248H228.995L214.324 45.4429V67.248H212.168V41.7269H214.324L229.03 63.5321V41.7269H231.169ZM245.717 41.7269V67.248H243.579V41.7269H245.717ZM254.464 41.7269V43.5849H234.85V41.7269H254.464ZM283.841 53.1729V55.0133H268.329V53.1729H283.841ZM268.837 41.7269V67.248H266.681V41.7269H268.837ZM285.576 41.7269V67.248H283.42V41.7269H285.576ZM310.94 53.1203V55.8547C310.94 57.6426 310.706 59.261 310.239 60.71C309.783 62.1473 309.117 63.3801 308.24 64.4085C307.376 65.4368 306.336 66.2256 305.12 66.7748C303.905 67.324 302.538 67.5986 301.019 67.5986C299.535 67.5986 298.179 67.324 296.952 66.7748C295.737 66.2256 294.691 65.4368 293.815 64.4085C292.938 63.3801 292.26 62.1473 291.781 60.71C291.302 59.261 291.063 57.6426 291.063 55.8547V53.1203C291.063 51.3324 291.296 49.7198 291.764 48.2825C292.243 46.8335 292.921 45.5948 293.797 44.5665C294.674 43.5382 295.719 42.7494 296.935 42.2002C298.15 41.651 299.5 41.3763 300.984 41.3763C302.503 41.3763 303.87 41.651 305.085 42.2002C306.301 42.7494 307.346 43.5382 308.223 44.5665C309.099 45.5948 309.771 46.8335 310.239 48.2825C310.706 49.7198 310.94 51.3324 310.94 53.1203ZM308.801 55.8547V53.0852C308.801 51.5778 308.626 50.2223 308.275 49.0187C307.937 47.8151 307.428 46.7867 306.751 45.9337C306.084 45.0807 305.266 44.4263 304.297 43.9705C303.327 43.5148 302.222 43.2869 300.984 43.2869C299.78 43.2869 298.699 43.5148 297.741 43.9705C296.783 44.4263 295.965 45.0807 295.287 45.9337C294.621 46.7867 294.107 47.8151 293.745 49.0187C293.394 50.2223 293.219 51.5778 293.219 53.0852V55.8547C293.219 57.3738 293.394 58.741 293.745 59.9563C294.107 61.1599 294.627 62.1941 295.305 63.0588C295.982 63.9118 296.8 64.5662 297.759 65.022C298.728 65.4777 299.815 65.7056 301.019 65.7056C302.269 65.7056 303.373 65.4777 304.332 65.022C305.29 64.5662 306.102 63.9118 306.768 63.0588C307.434 62.1941 307.937 61.1599 308.275 59.9563C308.626 58.741 308.801 57.3738 308.801 55.8547ZM324.454 41.7269V67.248H322.316V41.7269H324.454ZM333.201 41.7269V43.5849H313.587V41.7269H333.201ZM353.218 65.4076V67.248H338.862V65.4076H353.218ZM339.511 41.7269V67.248H337.355V41.7269H339.511ZM351.43 53.1729V55.0133H338.862V53.1729H351.43ZM353.13 41.7269V43.5849H338.862V41.7269H353.13ZM372.552 65.4076V67.248H359.318V65.4076H372.552ZM359.949 41.7269V67.248H357.793V41.7269H359.949Z" fill="black"/>
</svg>
