<svg width="490" height="117" viewBox="0 0 490 117" fill="none" xmlns="http://www.w3.org/2000/svg">
<g clip-path="url(#clip0_463_9048)">
<path d="M266.89 107.84C265.047 107.853 263.221 107.491 261.522 106.776C259.824 106.06 258.289 105.007 257.01 103.68C255.721 102.36 254.702 100.801 254.01 99.0902C253.291 97.2804 252.931 95.3477 252.95 93.4002C252.932 91.4724 253.293 89.5597 254.01 87.7702C254.707 86.0683 255.726 84.5166 257.01 83.2002C258.266 81.8966 259.764 80.8504 261.42 80.1202C263.145 79.3672 265.008 78.9856 266.89 79.0002C270.111 78.8533 273.263 79.965 275.68 82.1002C275.854 82.2241 276.006 82.3762 276.13 82.5502C276.229 82.6924 276.3 82.8518 276.34 83.0202C276.383 83.2037 276.403 83.3918 276.4 83.5802C276.403 83.7925 276.361 84.003 276.276 84.1978C276.192 84.3926 276.067 84.5673 275.91 84.7102C275.573 85.0257 275.131 85.2053 274.67 85.2145C274.208 85.2238 273.759 85.0619 273.41 84.7602C272.583 84.0392 271.653 83.4459 270.65 83.0002C269.45 82.5473 268.171 82.3398 266.89 82.3902C265.51 82.382 264.145 82.6755 262.89 83.2502C261.647 83.8235 260.526 84.6316 259.59 85.6302C258.637 86.6495 257.887 87.8407 257.38 89.1402C256.847 90.4967 256.579 91.9428 256.59 93.4002C256.577 94.8741 256.845 96.3369 257.38 97.7102C257.887 99.0098 258.637 100.201 259.59 101.22C260.525 102.213 261.646 103.011 262.89 103.57C264.145 104.141 265.511 104.432 266.89 104.42C268.079 104.427 269.259 104.213 270.37 103.79C271.495 103.353 272.554 102.764 273.52 102.04C273.878 101.75 274.33 101.604 274.79 101.63C275.196 101.659 275.577 101.837 275.86 102.13C276.158 102.477 276.311 102.924 276.29 103.38C276.289 103.621 276.238 103.86 276.14 104.08C276.042 104.318 275.895 104.532 275.71 104.71C274.463 105.715 273.057 106.506 271.55 107.05C270.054 107.582 268.477 107.85 266.89 107.84Z" fill="#FFB71B"/>
<path d="M281.21 107.47C280.898 107.479 280.59 107.403 280.317 107.252C280.045 107.101 279.818 106.879 279.66 106.61C279.483 106.339 279.38 106.027 279.361 105.704C279.342 105.382 279.407 105.06 279.55 104.77L289.67 80.6098C289.791 80.2399 290.027 79.9183 290.344 79.6917C290.66 79.4651 291.041 79.3454 291.43 79.3498C291.827 79.3279 292.219 79.4418 292.543 79.6726C292.866 79.9034 293.102 80.2375 293.21 80.6198L303.36 104.85C303.49 105.139 303.55 105.454 303.534 105.771C303.519 106.087 303.428 106.395 303.27 106.67C303.115 106.933 302.89 107.149 302.62 107.292C302.35 107.435 302.045 107.5 301.74 107.48C301.384 107.473 301.037 107.366 300.74 107.17C300.423 106.972 300.178 106.677 300.04 106.33L291.04 84.1498H292.21L283 106.33C282.848 106.676 282.596 106.968 282.278 107.171C281.959 107.374 281.588 107.478 281.21 107.47Z" fill="#FFB71B"/>
<path d="M309.7 107.47C309.454 107.477 309.21 107.433 308.983 107.34C308.756 107.247 308.55 107.107 308.38 106.93C308.208 106.755 308.073 106.547 307.984 106.318C307.895 106.09 307.853 105.845 307.86 105.6V81.2401C307.854 80.9917 307.898 80.7447 307.991 80.5142C308.084 80.2838 308.223 80.0748 308.4 79.9001C308.568 79.726 308.77 79.5882 308.994 79.4953C309.218 79.4024 309.458 79.3564 309.7 79.3601C309.948 79.356 310.193 79.4019 310.423 79.4951C310.652 79.5882 310.86 79.7267 311.035 79.9023C311.21 80.0778 311.347 80.2868 311.439 80.5166C311.531 80.7465 311.575 80.9926 311.57 81.2401V103.74H324.57C325.066 103.74 325.542 103.937 325.892 104.288C326.243 104.639 326.44 105.114 326.44 105.61C326.44 106.106 326.243 106.582 325.892 106.932C325.542 107.283 325.066 107.48 324.57 107.48L309.7 107.47Z" fill="#FFB71B"/>
<path d="M341.45 107.84C339.466 107.866 337.496 107.506 335.65 106.78C333.953 106.102 332.414 105.081 331.13 103.78C329.86 102.471 328.867 100.921 328.21 99.22C327.51 97.361 327.171 95.3859 327.21 93.4C327.17 91.4238 327.509 89.4583 328.21 87.61C328.874 85.9105 329.87 84.3604 331.14 83.05C332.421 81.7456 333.96 80.7237 335.66 80.05C339.388 78.6233 343.512 78.6233 347.24 80.05C348.934 80.7288 350.469 81.7501 351.75 83.05C353.05 84.3501 354.071 85.9017 354.75 87.61C355.446 89.4596 355.785 91.4242 355.75 93.4C355.784 95.3855 355.445 97.3598 354.75 99.22C354.083 100.932 353.069 102.488 351.771 103.789C350.474 105.09 348.921 106.109 347.21 106.78C345.377 107.504 343.421 107.864 341.45 107.84ZM341.45 104.46C342.927 104.478 344.391 104.188 345.75 103.61C347.033 103.065 348.193 102.266 349.159 101.26C350.125 100.255 350.877 99.0642 351.37 97.76C352.397 94.9474 352.397 91.8626 351.37 89.05C350.876 87.7413 350.121 86.547 349.15 85.54C348.19 84.5393 347.032 83.7492 345.75 83.22C342.99 82.113 339.91 82.113 337.15 83.22C335.87 83.7476 334.715 84.5379 333.76 85.54C332.799 86.5527 332.048 87.7457 331.55 89.05C330.497 91.8578 330.497 94.9522 331.55 97.76C332.048 99.0644 332.799 100.257 333.76 101.27C334.717 102.275 335.871 103.071 337.15 103.61C338.508 104.193 339.972 104.486 341.45 104.47V104.46Z" fill="#FFB71B"/>
<path d="M363.48 107.47C363.233 107.474 362.988 107.428 362.76 107.336C362.531 107.243 362.323 107.106 362.149 106.931C361.974 106.757 361.837 106.549 361.744 106.32C361.651 106.092 361.606 105.847 361.61 105.6V81.24C361.6 80.9897 361.644 80.7403 361.737 80.5077C361.83 80.2752 361.97 80.0647 362.15 79.89C362.325 79.7168 362.532 79.5806 362.761 79.4896C362.989 79.3985 363.234 79.3544 363.48 79.36H369.96C371.625 79.3183 373.273 79.7002 374.75 80.47C376.103 81.185 377.232 82.2616 378.01 83.58C378.827 84.9879 379.242 86.5927 379.21 88.22C379.236 89.7542 378.83 91.2648 378.04 92.58C377.253 93.8632 376.124 94.902 374.78 95.58C373.294 96.3217 371.65 96.6922 369.99 96.66H365.38V105.66C365.387 105.905 365.345 106.15 365.256 106.378C365.166 106.607 365.032 106.815 364.86 106.99C364.676 107.162 364.459 107.294 364.221 107.376C363.983 107.459 363.731 107.491 363.48 107.47ZM365.35 93.18H369.96C370.969 93.2007 371.969 92.9849 372.88 92.55C373.699 92.1584 374.392 91.5452 374.88 90.78C375.36 90.0095 375.61 89.1178 375.6 88.21C375.614 87.226 375.365 86.2561 374.88 85.4C374.401 84.592 373.709 83.9312 372.88 83.49C371.978 83.0244 370.975 82.7907 369.96 82.81H365.35V93.18ZM378.42 107.47C378.1 107.475 377.783 107.4 377.5 107.25C377.209 107.091 376.967 106.856 376.8 106.57L370.32 96.13L373.96 95.13L379.86 104.63C380.074 104.913 380.204 105.251 380.236 105.604C380.268 105.958 380.2 106.313 380.04 106.63C379.88 106.912 379.642 107.142 379.355 107.291C379.067 107.44 378.742 107.502 378.42 107.47Z" fill="#FFB71B"/>
<path d="M386.21 107.47C385.963 107.474 385.718 107.428 385.489 107.336C385.261 107.243 385.053 107.106 384.879 106.931C384.704 106.757 384.567 106.549 384.474 106.32C384.381 106.091 384.336 105.846 384.34 105.6V81.2398C384.33 80.9895 384.374 80.74 384.467 80.5075C384.56 80.275 384.7 80.0645 384.88 79.8898C385.247 79.5581 385.725 79.3745 386.22 79.3745C386.715 79.3745 387.192 79.5581 387.56 79.8898C387.735 80.067 387.871 80.2783 387.961 80.5106C388.05 80.7429 388.091 80.9911 388.08 81.2398V105.61C388.087 105.855 388.045 106.099 387.956 106.328C387.866 106.556 387.732 106.765 387.56 106.94C387.384 107.117 387.173 107.256 386.941 107.347C386.708 107.438 386.459 107.48 386.21 107.47Z" fill="#FFB71B"/>
<path d="M397.21 107.47C396.963 107.474 396.718 107.429 396.489 107.336C396.261 107.244 396.053 107.106 395.879 106.932C395.704 106.757 395.567 106.549 395.474 106.321C395.381 106.092 395.336 105.847 395.34 105.6V81.2402C395.33 80.9899 395.374 80.7405 395.467 80.5079C395.56 80.2754 395.7 80.0649 395.88 79.8902C396.055 79.7179 396.263 79.5824 396.492 79.4914C396.72 79.4004 396.964 79.3558 397.21 79.3602H413.49C413.981 79.3416 414.459 79.5178 414.82 79.8502C414.987 80.0174 415.118 80.2175 415.204 80.4378C415.29 80.6581 415.33 80.8939 415.32 81.1302C415.327 81.3574 415.287 81.5835 415.2 81.7938C415.114 82.004 414.985 82.1937 414.82 82.3502C414.454 82.6727 413.977 82.8411 413.49 82.8202H399.09V91.5702H409.42C409.909 91.5489 410.387 91.7214 410.75 92.0502C411.071 92.3853 411.25 92.8313 411.25 93.2952C411.25 93.7592 411.071 94.2052 410.75 94.5402C410.387 94.8691 409.909 95.0415 409.42 95.0202H399.05V104.02H413.45C413.937 103.999 414.414 104.168 414.78 104.49C414.946 104.648 415.076 104.839 415.163 105.051C415.249 105.263 415.289 105.491 415.28 105.72C415.289 105.955 415.249 106.189 415.163 106.408C415.077 106.626 414.946 106.825 414.78 106.99C414.602 107.157 414.393 107.286 414.165 107.37C413.936 107.454 413.693 107.492 413.45 107.48L397.21 107.47Z" fill="#FFB71B"/>
<path d="M422.34 107.47C422.095 107.477 421.85 107.433 421.623 107.34C421.396 107.247 421.19 107.107 421.02 106.93C420.678 106.573 420.491 106.095 420.5 105.6V81.2399C420.494 80.9915 420.539 80.7445 420.631 80.514C420.724 80.2836 420.863 80.0746 421.04 79.8999C421.208 79.7258 421.41 79.588 421.634 79.4951C421.858 79.4022 422.098 79.3562 422.34 79.3599C422.587 79.3539 422.832 79.3987 423.061 79.4916C423.29 79.5845 423.497 79.7235 423.67 79.8999C423.847 80.0746 423.986 80.2836 424.079 80.514C424.172 80.7445 424.216 80.9915 424.21 81.2399V103.74H437.21C437.466 103.721 437.724 103.755 437.967 103.841C438.209 103.926 438.431 104.06 438.62 104.235C438.808 104.41 438.958 104.622 439.061 104.858C439.164 105.094 439.217 105.348 439.217 105.605C439.217 105.862 439.164 106.116 439.061 106.352C438.958 106.588 438.808 106.8 438.62 106.975C438.431 107.15 438.209 107.284 437.967 107.369C437.724 107.454 437.466 107.489 437.21 107.47H422.34Z" fill="#FF595A"/>
<path d="M442.57 107.47C442.258 107.479 441.95 107.403 441.677 107.252C441.405 107.101 441.178 106.879 441.02 106.61C440.845 106.338 440.743 106.027 440.724 105.704C440.705 105.382 440.769 105.06 440.91 104.77L451.03 80.6099C451.151 80.24 451.387 79.9184 451.704 79.6918C452.02 79.4652 452.401 79.3455 452.79 79.3499C453.184 79.3298 453.573 79.4433 453.894 79.672C454.216 79.9007 454.45 80.2312 454.56 80.6099L464.71 104.85C464.84 105.139 464.9 105.454 464.884 105.771C464.869 106.087 464.778 106.395 464.62 106.67C464.465 106.933 464.24 107.149 463.97 107.292C463.7 107.435 463.395 107.5 463.09 107.48C462.734 107.473 462.387 107.366 462.09 107.17C461.773 106.972 461.528 106.678 461.39 106.33L452.39 84.1499H453.54L444.33 106.33C444.18 106.671 443.933 106.961 443.62 107.163C443.308 107.366 442.943 107.472 442.57 107.47Z" fill="#FF595A"/>
<path d="M471.08 107.47C470.834 107.474 470.59 107.429 470.362 107.337C470.134 107.245 469.927 107.108 469.752 106.935C469.578 106.762 469.44 106.555 469.347 106.327C469.254 106.1 469.207 105.856 469.21 105.61V81.2401C469.201 80.9898 469.244 80.7404 469.337 80.5078C469.43 80.2753 469.571 80.0648 469.75 79.8901C469.925 79.7169 470.133 79.5807 470.361 79.4897C470.59 79.3986 470.834 79.3545 471.08 79.3601H479.69C481.183 79.3411 482.659 79.6842 483.99 80.3601C485.183 80.9572 486.19 81.8704 486.9 83.0001C487.622 84.1676 487.993 85.5178 487.97 86.8901C487.971 88.0308 487.622 89.1443 486.97 90.0801C486.315 91.048 485.414 91.8245 484.36 92.3301C485.852 92.635 487.203 93.4179 488.21 94.5601C489.211 95.8096 489.723 97.3808 489.65 98.9801C489.696 100.508 489.303 102.017 488.518 103.328C487.733 104.64 486.588 105.699 485.22 106.38C483.74 107.14 482.093 107.518 480.43 107.48L471.08 107.47ZM472.95 90.9101H479.69C480.89 90.9605 482.073 90.6085 483.05 89.9101C483.5 89.5442 483.856 89.0749 484.085 88.5421C484.315 88.0093 484.413 87.4288 484.37 86.8501C484.407 86.2808 484.307 85.7109 484.077 85.1887C483.847 84.6664 483.495 84.2073 483.05 83.8501C482.071 83.1558 480.89 82.8043 479.69 82.8501H472.95V90.9101ZM472.95 104.01H480.44C481.443 104.032 482.439 103.837 483.36 103.44C484.178 103.085 484.873 102.497 485.36 101.75C485.867 100.914 486.117 99.9473 486.08 98.9701C486.116 98.0653 485.864 97.1723 485.36 96.4201C484.853 95.7302 484.159 95.1994 483.36 94.8901C482.43 94.5259 481.438 94.3492 480.44 94.3701H472.95V104.01Z" fill="#FF595A"/>
</g>
<g clip-path="url(#clip1_463_9048)">
<path d="M198.589 38.8441C189.132 27.3243 184.366 16.389 187.635 1.23102C187.67 1.0576 187.66 0.878087 187.605 0.709722C187.551 0.541357 187.455 0.389803 187.325 0.269625C187.195 0.149448 187.037 0.0646869 186.865 0.023483C186.693 -0.0177209 186.514 -0.0139804 186.344 0.0343445C168.487 4.84859 159.352 23.4178 158.185 36.4851C158.169 36.6721 158.103 36.8512 157.992 37.0026C157.881 37.154 157.731 37.2718 157.557 37.343C157.384 37.4141 157.194 37.4359 157.009 37.4059C156.824 37.3759 156.651 37.2952 156.509 37.1728C153.542 34.6144 156.104 25.151 154.689 19.7246C154.646 19.5727 154.562 19.4358 154.445 19.3294C154.328 19.2231 154.184 19.1516 154.029 19.1229C153.874 19.0943 153.714 19.1097 153.567 19.1674C153.421 19.2252 153.293 19.3229 153.199 19.4495C55.7826 150.865 277.723 141.587 198.589 38.8441ZM172.161 100.212C167.378 100.218 162.757 98.4737 159.166 95.308C155.576 92.1422 153.264 87.7726 152.664 83.0201C152.065 78.2677 153.219 73.4595 155.91 69.499C158.601 65.5385 162.643 62.6984 167.278 61.5123V50.3776H165.781C165.385 50.3776 165.005 50.2206 164.725 49.9409C164.444 49.6613 164.285 49.2817 164.284 48.8852V47.9292C164.285 47.5328 164.444 47.1532 164.725 46.8735C165.005 46.5938 165.385 46.4368 165.781 46.4368H178.549C178.944 46.4368 179.323 46.5941 179.602 46.8739C179.882 47.1538 180.039 47.5334 180.039 47.9292V48.8852C180.039 49.281 179.882 49.6606 179.602 49.9405C179.323 50.2204 178.944 50.3776 178.549 50.3776H177.044V61.5054C181.679 62.6915 185.722 65.5317 188.413 69.4921C191.104 73.4526 192.258 78.2608 191.658 83.0133C191.058 87.7657 188.746 92.1354 185.156 95.3011C181.566 98.4668 176.945 100.211 172.161 100.205V100.212Z" fill="#FFB71B"/>
<path d="M173.652 79.1808C175.419 79.1808 176.852 77.7459 176.852 75.9759C176.852 74.2059 175.419 72.771 173.652 72.771C171.884 72.771 170.451 74.2059 170.451 75.9759C170.451 77.7459 171.884 79.1808 173.652 79.1808Z" fill="#FF595A"/>
<path d="M164.613 76.0031C166.381 76.0031 167.814 74.5682 167.814 72.7982C167.814 71.0281 166.381 69.5933 164.613 69.5933C162.846 69.5933 161.413 71.0281 161.413 72.7982C161.413 74.5682 162.846 76.0031 164.613 76.0031Z" fill="#FF595A"/>
<path d="M171.756 70.8933C172.86 70.8933 173.755 69.9973 173.755 68.892C173.755 67.7867 172.86 66.8906 171.756 66.8906C170.652 66.8906 169.758 67.7867 169.758 68.892C169.758 69.9973 170.652 70.8933 171.756 70.8933Z" fill="#FF8672"/>
<path d="M178.452 70.6455C179.033 70.6455 179.503 70.1744 179.503 69.5933C179.503 69.0121 179.033 68.541 178.452 68.541C177.872 68.541 177.402 69.0121 177.402 69.5933C177.402 70.1744 177.872 70.6455 178.452 70.6455Z" fill="#FF8672"/>
<path d="M183.047 74.6004C184.041 74.6004 184.846 73.7936 184.846 72.7985C184.846 71.8033 184.041 70.9966 183.047 70.9966C182.053 70.9966 181.248 71.8033 181.248 72.7985C181.248 73.7936 182.053 74.6004 183.047 74.6004Z" fill="#FF8672"/>
<path d="M188.336 81.7803C188.336 83.8666 187.925 85.9325 187.128 87.86C186.331 89.7875 185.162 91.5388 183.689 93.0141C182.215 94.4893 180.467 95.6596 178.542 96.458C176.617 97.2564 174.554 97.6673 172.47 97.6673C170.387 97.6673 168.324 97.2564 166.399 96.458C164.474 95.6596 162.725 94.4893 161.252 93.0141C159.779 91.5388 158.61 89.7875 157.813 87.86C157.016 85.9325 156.605 83.8666 156.605 81.7803C158.089 70.7763 169.174 84.0017 172.47 83.7885C175.142 83.4446 187.937 71.2508 188.336 81.7803Z" fill="#FF595A"/>
<path d="M177.566 85.1432C180.169 85.4046 183.253 85.3014 185.54 83.7677C187.848 82.069 187.855 80.1296 187.841 79.937C187.809 79.2958 187.538 78.6901 187.081 78.2393C186.625 77.7886 186.016 77.5256 185.375 77.5024C181.426 77.3511 174.462 83.2795 172.374 83.7815C174.048 84.4309 175.79 84.8877 177.566 85.1432Z" fill="#FF8672"/>
</g>
<g clip-path="url(#clip2_463_9048)">
<path d="M70.5895 38.8443C61.1322 27.3245 56.3658 16.3893 59.635 1.23131C59.6715 1.05829 59.6627 0.878751 59.6094 0.710151C59.5561 0.541552 59.4602 0.389629 59.3309 0.269163C59.2016 0.148697 59.0434 0.0637837 58.8716 0.0226849C58.6998 -0.0184138 58.5204 -0.0142971 58.3507 0.0346273C40.4938 4.84888 31.3593 23.4181 30.1918 36.4854C30.1763 36.6724 30.1095 36.8515 29.9988 37.0029C29.888 37.1543 29.7377 37.2721 29.5642 37.3432C29.3908 37.4144 29.2012 37.4362 29.0162 37.4062C28.8312 37.3761 28.6581 37.2955 28.516 37.1731C25.549 34.6147 28.1108 25.1512 26.6959 19.7249C26.653 19.5729 26.5685 19.436 26.4519 19.3297C26.3353 19.2234 26.1913 19.1518 26.0362 19.1232C25.8811 19.0946 25.7211 19.11 25.5743 19.1677C25.4275 19.2254 25.2998 19.3232 25.2056 19.4498C-72.2105 150.865 149.723 141.587 70.5895 38.8443ZM44.1613 100.212C39.3783 100.216 34.7584 98.4711 31.1695 95.3048C27.5806 92.1385 25.2697 87.769 24.6709 83.017C24.0722 78.265 25.2267 73.4576 27.9177 69.4979C30.6087 65.5381 34.6509 62.6986 39.285 61.5126V50.3779H37.7809C37.3857 50.3779 37.0066 50.2207 36.7271 49.9408C36.4476 49.6609 36.2906 49.2813 36.2906 48.8855V47.9295C36.2906 47.5337 36.4476 47.1541 36.7271 46.8742C37.0066 46.5943 37.3857 46.4371 37.7809 46.4371H50.5486C50.9439 46.4371 51.3229 46.5943 51.6024 46.8742C51.8819 47.1541 52.039 47.5337 52.039 47.9295V48.8855C52.039 49.2813 51.8819 49.6609 51.6024 49.9408C51.3229 50.2207 50.9439 50.3779 50.5486 50.3779H49.0445V61.5057C53.6792 62.6918 57.7219 65.5319 60.4128 69.4924C63.1038 73.4529 64.2579 78.2611 63.6582 83.0135C63.0585 87.766 60.7464 92.1356 57.1562 95.3014C53.5661 98.4671 48.945 100.211 44.1613 100.205V100.212Z" fill="#FFB71B"/>
<path d="M45.6514 79.1808C47.419 79.1808 48.8519 77.7459 48.8519 75.9759C48.8519 74.2059 47.419 72.771 45.6514 72.771C43.8838 72.771 42.4509 74.2059 42.4509 75.9759C42.4509 77.7459 43.8838 79.1808 45.6514 79.1808Z" fill="#FFB71B"/>
<path d="M36.6131 76.0031C38.3807 76.0031 39.8136 74.5682 39.8136 72.7982C39.8136 71.0281 38.3807 69.5933 36.6131 69.5933C34.8455 69.5933 33.4126 71.0281 33.4126 72.7982C33.4126 74.5682 34.8455 76.0031 36.6131 76.0031Z" fill="#FFB71B"/>
<path d="M43.7559 70.8933C44.8597 70.8933 45.7545 69.9973 45.7545 68.892C45.7545 67.7867 44.8597 66.8906 43.7559 66.8906C42.6521 66.8906 41.7573 67.7867 41.7573 68.892C41.7573 69.9973 42.6521 70.8933 43.7559 70.8933Z" fill="#FFB71B"/>
<path d="M50.4522 70.6455C51.0325 70.6455 51.503 70.1744 51.503 69.5933C51.503 69.0121 51.0325 68.541 50.4522 68.541C49.8718 68.541 49.4014 69.0121 49.4014 69.5933C49.4014 70.1744 49.8718 70.6455 50.4522 70.6455Z" fill="#FFB71B"/>
<path d="M55.047 74.6004C56.0408 74.6004 56.8464 73.7936 56.8464 72.7985C56.8464 71.8033 56.0408 70.9966 55.047 70.9966C54.0532 70.9966 53.2476 71.8033 53.2476 72.7985C53.2476 73.7936 54.0532 74.6004 55.047 74.6004Z" fill="#FFB71B"/>
<path d="M60.3148 81.7803C60.2284 85.9374 58.5186 89.8952 55.5521 92.8046C52.5855 95.7141 48.5985 97.3436 44.4462 97.3436C40.2939 97.3436 36.3069 95.7141 33.3403 92.8046C30.3738 89.8952 28.664 85.9374 28.5776 81.7803C30.0611 70.7763 41.1461 84.0017 44.4428 83.7885C47.1419 83.4446 59.9439 71.2508 60.3148 81.7803Z" fill="#FFB71B"/>
<path d="M49.5662 85.1432C52.1692 85.4046 55.253 85.3014 57.54 83.7677C59.8477 82.069 59.8546 80.1296 59.8477 79.937C59.8138 79.2952 59.5412 78.6894 59.0836 78.2388C58.626 77.7883 58.0165 77.5255 57.3752 77.5024C53.4261 77.3511 46.4688 83.2795 44.374 83.7815C46.0477 84.4309 47.7896 84.8877 49.5662 85.1432Z" fill="#FFB71B"/>
</g>
<defs>
<clipPath id="clip0_463_9048">
<rect width="236.66" height="28.84" fill="white" transform="translate(253 79)"/>
</clipPath>
<clipPath id="clip1_463_9048">
<rect width="88" height="117" fill="white" transform="translate(128)"/>
</clipPath>
<clipPath id="clip2_463_9048">
<rect width="88" height="117" fill="white"/>
</clipPath>
</defs>
</svg>
