<svg width="138" height="38" viewBox="0 0 138 38" fill="none" xmlns="http://www.w3.org/2000/svg">
<path d="M6.314 34.14C5.558 34.14 4.84867 33.9953 4.186 33.706C3.53267 33.4167 2.954 33.0153 2.45 32.502C1.95533 31.9793 1.568 31.382 1.288 30.71C1.008 30.0287 0.868 29.3007 0.868 28.526C0.868 27.7607 1.00333 27.042 1.274 26.37C1.554 25.6887 1.94133 25.0913 2.436 24.578C2.94 24.0647 3.51867 23.6633 4.172 23.374C4.83467 23.0753 5.54867 22.926 6.314 22.926C6.986 22.926 7.59733 23.024 8.148 23.22C8.69867 23.416 9.23067 23.7287 9.744 24.158C9.828 24.2233 9.87467 24.3027 9.884 24.396C9.90267 24.48 9.89333 24.564 9.856 24.648C9.81867 24.7227 9.76267 24.7787 9.688 24.816C9.66933 24.8907 9.62267 24.9467 9.548 24.984C9.47333 25.0213 9.38467 25.0353 9.282 25.026C9.18867 25.0167 9.09533 24.9747 9.002 24.9C8.638 24.5827 8.24133 24.3493 7.812 24.2C7.38267 24.0413 6.88333 23.962 6.314 23.962C5.70733 23.962 5.138 24.0833 4.606 24.326C4.08333 24.5687 3.62133 24.9 3.22 25.32C2.81867 25.74 2.50133 26.2253 2.268 26.776C2.044 27.3267 1.932 27.91 1.932 28.526C1.932 29.1607 2.044 29.7533 2.268 30.304C2.50133 30.8547 2.81867 31.34 3.22 31.76C3.62133 32.18 4.08333 32.5113 4.606 32.754C5.138 32.9873 5.70733 33.104 6.314 33.104C6.82733 33.104 7.31267 33.02 7.77 32.852C8.22733 32.684 8.66133 32.4413 9.072 32.124C9.184 32.0307 9.30067 31.9933 9.422 32.012C9.55267 32.0307 9.66467 32.0867 9.758 32.18C9.85133 32.2733 9.898 32.3947 9.898 32.544C9.898 32.6187 9.884 32.6887 9.856 32.754C9.83733 32.81 9.8 32.8707 9.744 32.936C9.268 33.3747 8.736 33.6873 8.148 33.874C7.56 34.0513 6.94867 34.14 6.314 34.14ZM14.9315 34.07C14.1849 34.07 13.5175 33.902 12.9295 33.566C12.3415 33.23 11.8795 32.768 11.5435 32.18C11.2075 31.592 11.0395 30.9247 11.0395 30.178C11.0395 29.422 11.2075 28.75 11.5435 28.162C11.8795 27.574 12.3415 27.112 12.9295 26.776C13.5175 26.44 14.1849 26.272 14.9315 26.272C15.6782 26.272 16.3409 26.44 16.9195 26.776C17.5075 27.112 17.9695 27.574 18.3055 28.162C18.6415 28.75 18.8142 29.422 18.8235 30.178C18.8235 30.9247 18.6509 31.592 18.3055 32.18C17.9695 32.768 17.5075 33.23 16.9195 33.566C16.3409 33.902 15.6782 34.07 14.9315 34.07ZM14.9315 33.09C15.4729 33.09 15.9582 32.964 16.3875 32.712C16.8169 32.46 17.1529 32.1147 17.3955 31.676C17.6382 31.2373 17.7595 30.738 17.7595 30.178C17.7595 29.618 17.6382 29.1187 17.3955 28.68C17.1529 28.232 16.8169 27.882 16.3875 27.63C15.9582 27.378 15.4729 27.252 14.9315 27.252C14.3902 27.252 13.9049 27.378 13.4755 27.63C13.0462 27.882 12.7055 28.232 12.4535 28.68C12.2109 29.1187 12.0895 29.618 12.0895 30.178C12.0895 30.738 12.2109 31.2373 12.4535 31.676C12.7055 32.1147 13.0462 32.46 13.4755 32.712C13.9049 32.964 14.3902 33.09 14.9315 33.09ZM31.2662 34C31.1075 34 30.9768 33.9533 30.8742 33.86C30.7715 33.7573 30.7202 33.6267 30.7202 33.468V29.436C30.7202 28.7733 30.5475 28.2507 30.2022 27.868C29.8568 27.476 29.4135 27.28 28.8722 27.28C28.2935 27.28 27.8175 27.476 27.4442 27.868C27.0802 28.2507 26.9028 28.764 26.9122 29.408H25.9462C25.9555 28.7827 26.0908 28.232 26.3522 27.756C26.6135 27.28 26.9728 26.9113 27.4302 26.65C27.8875 26.3887 28.4055 26.258 28.9842 26.258C29.5348 26.258 30.0202 26.3887 30.4402 26.65C30.8695 26.9113 31.2008 27.28 31.4342 27.756C31.6768 28.232 31.7982 28.792 31.7982 29.436V33.468C31.7982 33.6267 31.7468 33.7573 31.6442 33.86C31.5508 33.9533 31.4248 34 31.2662 34ZM21.4662 34C21.2982 34 21.1628 33.9533 21.0602 33.86C20.9668 33.7573 20.9202 33.6267 20.9202 33.468V26.888C20.9202 26.7293 20.9668 26.5987 21.0602 26.496C21.1628 26.3933 21.2982 26.342 21.4662 26.342C21.6248 26.342 21.7508 26.3933 21.8442 26.496C21.9468 26.5987 21.9982 26.7293 21.9982 26.888V33.468C21.9982 33.6267 21.9468 33.7573 21.8442 33.86C21.7508 33.9533 21.6248 34 21.4662 34ZM26.3802 34C26.2215 34 26.0908 33.9533 25.9882 33.86C25.8855 33.7573 25.8342 33.6267 25.8342 33.468V29.436C25.8342 28.7733 25.6615 28.2507 25.3162 27.868C24.9708 27.476 24.5275 27.28 23.9862 27.28C23.4075 27.28 22.9315 27.4713 22.5582 27.854C22.1848 28.2273 21.9982 28.7173 21.9982 29.324H21.2282C21.2468 28.7267 21.3775 28.1993 21.6202 27.742C21.8722 27.2753 22.2128 26.9113 22.6422 26.65C23.0715 26.3887 23.5568 26.258 24.0982 26.258C24.6488 26.258 25.1342 26.3887 25.5542 26.65C25.9835 26.9113 26.3148 27.28 26.5482 27.756C26.7908 28.232 26.9122 28.792 26.9122 29.436V33.468C26.9122 33.6267 26.8608 33.7573 26.7582 33.86C26.6648 33.9533 26.5388 34 26.3802 34ZM35.1339 34C34.9939 34 34.8725 33.9533 34.7699 33.86C34.6672 33.7573 34.6159 33.622 34.6159 33.454V26.356C34.6159 25.7027 34.7279 25.1287 34.9519 24.634C35.1759 24.1393 35.5072 23.7567 35.9459 23.486C36.3845 23.206 36.9212 23.066 37.5559 23.066C37.7145 23.066 37.8452 23.1127 37.9479 23.206C38.0505 23.2993 38.1019 23.416 38.1019 23.556C38.1019 23.696 38.0505 23.8127 37.9479 23.906C37.8452 23.9993 37.7145 24.046 37.5559 24.046C37.1359 24.046 36.7859 24.144 36.5059 24.34C36.2352 24.5267 36.0299 24.7927 35.8899 25.138C35.7592 25.474 35.6939 25.8613 35.6939 26.3V33.454C35.6939 33.622 35.6425 33.7573 35.5399 33.86C35.4465 33.9533 35.3112 34 35.1339 34ZM33.7199 27.56C33.5705 27.56 33.4492 27.518 33.3559 27.434C33.2719 27.3407 33.2299 27.2287 33.2299 27.098C33.2299 26.958 33.2719 26.846 33.3559 26.762C33.4492 26.6687 33.5705 26.622 33.7199 26.622H37.3739C37.5232 26.622 37.6399 26.6687 37.7239 26.762C37.8172 26.846 37.8639 26.958 37.8639 27.098C37.8639 27.2287 37.8172 27.3407 37.7239 27.434C37.6399 27.518 37.5232 27.56 37.3739 27.56H33.7199ZM42.5214 34.07C41.7747 34.07 41.1074 33.902 40.5194 33.566C39.9314 33.23 39.4694 32.768 39.1334 32.18C38.7974 31.592 38.6294 30.9247 38.6294 30.178C38.6294 29.422 38.7974 28.75 39.1334 28.162C39.4694 27.574 39.9314 27.112 40.5194 26.776C41.1074 26.44 41.7747 26.272 42.5214 26.272C43.2681 26.272 43.9307 26.44 44.5094 26.776C45.0974 27.112 45.5594 27.574 45.8954 28.162C46.2314 28.75 46.4041 29.422 46.4134 30.178C46.4134 30.9247 46.2407 31.592 45.8954 32.18C45.5594 32.768 45.0974 33.23 44.5094 33.566C43.9307 33.902 43.2681 34.07 42.5214 34.07ZM42.5214 33.09C43.0627 33.09 43.5481 32.964 43.9774 32.712C44.4067 32.46 44.7427 32.1147 44.9854 31.676C45.2281 31.2373 45.3494 30.738 45.3494 30.178C45.3494 29.618 45.2281 29.1187 44.9854 28.68C44.7427 28.232 44.4067 27.882 43.9774 27.63C43.5481 27.378 43.0627 27.252 42.5214 27.252C41.9801 27.252 41.4947 27.378 41.0654 27.63C40.6361 27.882 40.2954 28.232 40.0434 28.68C39.8007 29.1187 39.6794 29.618 39.6794 30.178C39.6794 30.738 39.8007 31.2373 40.0434 31.676C40.2954 32.1147 40.6361 32.46 41.0654 32.712C41.4947 32.964 41.9801 33.09 42.5214 33.09ZM48.958 29.282C48.986 28.7033 49.1353 28.1853 49.406 27.728C49.686 27.2707 50.0453 26.9113 50.484 26.65C50.932 26.3887 51.4267 26.258 51.968 26.258C52.3973 26.258 52.7287 26.3187 52.962 26.44C53.1953 26.5613 53.284 26.7387 53.228 26.972C53.1907 27.112 53.1253 27.2053 53.032 27.252C52.948 27.2987 52.8407 27.3173 52.71 27.308C52.5887 27.2987 52.4487 27.2893 52.29 27.28C51.7673 27.2333 51.3007 27.2893 50.89 27.448C50.4887 27.5973 50.1667 27.8307 49.924 28.148C49.6907 28.4653 49.574 28.8433 49.574 29.282H48.958ZM49.042 34C48.874 34 48.7433 33.9533 48.65 33.86C48.5567 33.7667 48.51 33.636 48.51 33.468V26.874C48.51 26.706 48.5567 26.5753 48.65 26.482C48.7433 26.3887 48.874 26.342 49.042 26.342C49.21 26.342 49.3407 26.3887 49.434 26.482C49.5273 26.5753 49.574 26.706 49.574 26.874V33.468C49.574 33.636 49.5273 33.7667 49.434 33.86C49.3407 33.9533 49.21 34 49.042 34ZM57.9181 34C57.4234 34 56.9801 33.8833 56.5881 33.65C56.2054 33.4167 55.9021 33.0993 55.6781 32.698C55.4541 32.2873 55.3421 31.8207 55.3421 31.298V24.452C55.3421 24.2933 55.3888 24.1627 55.4821 24.06C55.5848 23.9573 55.7154 23.906 55.8741 23.906C56.0328 23.906 56.1634 23.9573 56.2661 24.06C56.3688 24.1627 56.4201 24.2933 56.4201 24.452V31.298C56.4201 31.774 56.5601 32.166 56.8401 32.474C57.1201 32.7727 57.4794 32.922 57.9181 32.922H58.2961C58.4454 32.922 58.5668 32.9733 58.6601 33.076C58.7534 33.1787 58.8001 33.3093 58.8001 33.468C58.8001 33.6267 58.7441 33.7573 58.6321 33.86C58.5201 33.9533 58.3801 34 58.2121 34H57.9181ZM54.4321 27.56C54.2921 27.56 54.1754 27.518 54.0821 27.434C53.9888 27.3407 53.9421 27.2287 53.9421 27.098C53.9421 26.958 53.9888 26.846 54.0821 26.762C54.1754 26.6687 54.2921 26.622 54.4321 26.622H58.0021C58.1421 26.622 58.2588 26.6687 58.3521 26.762C58.4454 26.846 58.4921 26.958 58.4921 27.098C58.4921 27.2287 58.4454 27.3407 58.3521 27.434C58.2588 27.518 58.1421 27.56 58.0021 27.56H54.4321ZM63.9289 34.07C63.2103 34.07 62.5663 33.902 61.9969 33.566C61.4276 33.2207 60.9749 32.754 60.6389 32.166C60.3123 31.578 60.1489 30.9153 60.1489 30.178C60.1489 29.4313 60.3169 28.764 60.6529 28.176C60.9983 27.588 61.4649 27.126 62.0529 26.79C62.6409 26.4447 63.3036 26.272 64.0409 26.272C64.7783 26.272 65.4363 26.4447 66.0149 26.79C66.6029 27.126 67.0649 27.588 67.4009 28.176C67.7463 28.764 67.9236 29.4313 67.9329 30.178L67.4989 30.514C67.4989 31.186 67.3403 31.7927 67.0229 32.334C66.7149 32.866 66.2903 33.2907 65.7489 33.608C65.2169 33.916 64.6103 34.07 63.9289 34.07ZM64.0409 33.09C64.5823 33.09 65.0629 32.964 65.4829 32.712C65.9123 32.46 66.2483 32.1147 66.4909 31.676C66.7429 31.228 66.8689 30.7287 66.8689 30.178C66.8689 29.618 66.7429 29.1187 66.4909 28.68C66.2483 28.2413 65.9123 27.896 65.4829 27.644C65.0629 27.3827 64.5823 27.252 64.0409 27.252C63.5089 27.252 63.0283 27.3827 62.5989 27.644C62.1696 27.896 61.8289 28.2413 61.5769 28.68C61.3249 29.1187 61.1989 29.618 61.1989 30.178C61.1989 30.7287 61.3249 31.228 61.5769 31.676C61.8289 32.1147 62.1696 32.46 62.5989 32.712C63.0283 32.964 63.5089 33.09 64.0409 33.09ZM67.3869 34C67.2283 34 67.0976 33.9533 66.9949 33.86C66.8923 33.7573 66.8409 33.6267 66.8409 33.468V31.074L67.1069 29.968L67.9329 30.178V33.468C67.9329 33.6267 67.8816 33.7573 67.7789 33.86C67.6763 33.9533 67.5456 34 67.3869 34ZM73.4035 34.07C72.6849 34.07 72.0409 33.902 71.4715 33.566C70.9022 33.2207 70.4495 32.754 70.1135 32.166C69.7869 31.578 69.6235 30.9153 69.6235 30.178C69.6235 29.4313 69.7915 28.764 70.1275 28.176C70.4729 27.588 70.9395 27.126 71.5275 26.79C72.1155 26.4447 72.7782 26.272 73.5155 26.272C74.2529 26.272 74.9109 26.4447 75.4895 26.79C76.0775 27.126 76.5395 27.588 76.8755 28.176C77.2209 28.764 77.3982 29.4313 77.4075 30.178L76.9735 30.514C76.9735 31.186 76.8149 31.7927 76.4975 32.334C76.1895 32.866 75.7649 33.2907 75.2235 33.608C74.6915 33.916 74.0849 34.07 73.4035 34.07ZM73.5155 33.09C74.0569 33.09 74.5375 32.964 74.9575 32.712C75.3869 32.46 75.7229 32.1147 75.9655 31.676C76.2175 31.228 76.3435 30.7287 76.3435 30.178C76.3435 29.618 76.2175 29.1187 75.9655 28.68C75.7229 28.2413 75.3869 27.896 74.9575 27.644C74.5375 27.3827 74.0569 27.252 73.5155 27.252C72.9835 27.252 72.5029 27.3827 72.0735 27.644C71.6442 27.896 71.3035 28.2413 71.0515 28.68C70.7995 29.1187 70.6735 29.618 70.6735 30.178C70.6735 30.7287 70.7995 31.228 71.0515 31.676C71.3035 32.1147 71.6442 32.46 72.0735 32.712C72.5029 32.964 72.9835 33.09 73.5155 33.09ZM76.8615 34C76.7029 34 76.5722 33.9533 76.4695 33.86C76.3669 33.7573 76.3155 33.6267 76.3155 33.468V31.074L76.5815 29.968L77.4075 30.178V33.468C77.4075 33.6267 77.3562 33.7573 77.2535 33.86C77.1509 33.9533 77.0202 34 76.8615 34ZM84.2917 34C84.133 34 84.0024 33.9487 83.8997 33.846C83.797 33.7433 83.7457 33.6127 83.7457 33.454V23.612C83.7457 23.4533 83.797 23.3227 83.8997 23.22C84.0024 23.1173 84.133 23.066 84.2917 23.066H86.9097C87.591 23.066 88.1977 23.2107 88.7297 23.5C89.2617 23.78 89.677 24.1767 89.9757 24.69C90.2837 25.194 90.4377 25.7773 90.4377 26.44C90.4377 27.0747 90.2837 27.6393 89.9757 28.134C89.677 28.6287 89.2617 29.016 88.7297 29.296C88.1977 29.576 87.591 29.716 86.9097 29.716H84.8377V33.454C84.8377 33.6127 84.7864 33.7433 84.6837 33.846C84.581 33.9487 84.4504 34 84.2917 34ZM90.1437 34C90.0224 34 89.9244 33.9767 89.8497 33.93C89.7844 33.8833 89.7237 33.8133 89.6677 33.72L86.9797 29.436L88.0717 29.156L90.5777 33.16C90.7177 33.384 90.741 33.58 90.6477 33.748C90.5637 33.916 90.3957 34 90.1437 34ZM84.8377 28.666H86.9097C87.3857 28.666 87.8057 28.5727 88.1697 28.386C88.543 28.19 88.837 27.924 89.0517 27.588C89.2664 27.252 89.3737 26.8693 89.3737 26.44C89.3737 25.9827 89.2664 25.5813 89.0517 25.236C88.837 24.8813 88.543 24.606 88.1697 24.41C87.8057 24.214 87.3857 24.116 86.9097 24.116H84.8377V28.666ZM95.732 34.07C94.976 34.07 94.304 33.9067 93.716 33.58C93.1373 33.244 92.68 32.782 92.344 32.194C92.0173 31.606 91.854 30.934 91.854 30.178C91.854 29.4127 92.008 28.7407 92.316 28.162C92.6333 27.574 93.0673 27.112 93.618 26.776C94.1687 26.44 94.8033 26.272 95.522 26.272C96.2313 26.272 96.8473 26.4353 97.37 26.762C97.902 27.0793 98.3127 27.5227 98.602 28.092C98.8913 28.6613 99.036 29.31 99.036 30.038C99.036 30.1873 98.9893 30.3087 98.896 30.402C98.8027 30.486 98.6813 30.528 98.532 30.528H92.582V29.632H98.644L98.042 30.066C98.0513 29.5247 97.9533 29.0393 97.748 28.61C97.5427 28.1807 97.2487 27.8447 96.866 27.602C96.4927 27.3593 96.0447 27.238 95.522 27.238C94.99 27.238 94.5233 27.364 94.122 27.616C93.7207 27.868 93.408 28.218 93.184 28.666C92.9693 29.1047 92.862 29.6087 92.862 30.178C92.862 30.7473 92.9833 31.2513 93.226 31.69C93.478 32.1287 93.8187 32.474 94.248 32.726C94.6773 32.978 95.172 33.104 95.732 33.104C96.068 33.104 96.404 33.048 96.74 32.936C97.0853 32.8147 97.3607 32.6653 97.566 32.488C97.6687 32.404 97.7853 32.362 97.916 32.362C98.0467 32.3527 98.1587 32.3853 98.252 32.46C98.3733 32.572 98.434 32.6933 98.434 32.824C98.4433 32.9547 98.392 33.0667 98.28 33.16C97.972 33.4213 97.58 33.6407 97.104 33.818C96.628 33.986 96.1707 34.07 95.732 34.07ZM103.96 34.07C103.223 34.07 102.57 33.9067 102 33.58C101.431 33.244 100.983 32.782 100.656 32.194C100.339 31.606 100.18 30.934 100.18 30.178C100.18 29.4127 100.348 28.736 100.684 28.148C101.02 27.56 101.482 27.1027 102.07 26.776C102.658 26.44 103.326 26.272 104.072 26.272C104.828 26.272 105.496 26.44 106.074 26.776C106.662 27.1027 107.12 27.56 107.446 28.148C107.782 28.736 107.955 29.4127 107.964 30.178L107.334 30.514C107.334 31.2047 107.19 31.8207 106.9 32.362C106.611 32.894 106.21 33.314 105.696 33.622C105.192 33.9207 104.614 34.07 103.96 34.07ZM104.1 37.024C103.363 37.024 102.714 36.884 102.154 36.604C101.594 36.3333 101.132 35.96 100.768 35.484C100.666 35.372 100.619 35.2507 100.628 35.12C100.647 34.9893 100.717 34.882 100.838 34.798C100.96 34.714 101.095 34.686 101.244 34.714C101.394 34.742 101.51 34.812 101.594 34.924C101.865 35.26 102.21 35.5307 102.63 35.736C103.06 35.9413 103.554 36.044 104.114 36.044C104.637 36.044 105.108 35.918 105.528 35.666C105.948 35.414 106.28 35.0593 106.522 34.602C106.774 34.1447 106.9 33.608 106.9 32.992V30.864L107.306 30.052L107.964 30.178V33.034C107.964 33.79 107.796 34.4667 107.46 35.064C107.124 35.6707 106.667 36.1467 106.088 36.492C105.51 36.8467 104.847 37.024 104.1 37.024ZM104.072 33.09C104.623 33.09 105.108 32.9687 105.528 32.726C105.958 32.474 106.294 32.1287 106.536 31.69C106.779 31.2513 106.9 30.7473 106.9 30.178C106.9 29.6087 106.779 29.1047 106.536 28.666C106.294 28.218 105.958 27.8727 105.528 27.63C105.108 27.378 104.623 27.252 104.072 27.252C103.522 27.252 103.032 27.378 102.602 27.63C102.173 27.8727 101.837 28.218 101.594 28.666C101.352 29.1047 101.23 29.6087 101.23 30.178C101.23 30.7473 101.352 31.2513 101.594 31.69C101.837 32.1287 102.173 32.474 102.602 32.726C103.032 32.9687 103.522 33.09 104.072 33.09ZM113.393 34.084C112.73 34.084 112.137 33.9487 111.615 33.678C111.092 33.398 110.677 32.992 110.369 32.46C110.07 31.928 109.921 31.2793 109.921 30.514V26.874C109.921 26.7247 109.972 26.5987 110.075 26.496C110.177 26.3933 110.303 26.342 110.453 26.342C110.611 26.342 110.742 26.3933 110.845 26.496C110.947 26.5987 110.999 26.7247 110.999 26.874V30.514C110.999 31.0927 111.106 31.5687 111.321 31.942C111.545 32.3153 111.843 32.5953 112.217 32.782C112.599 32.9687 113.029 33.062 113.505 33.062C113.962 33.062 114.373 32.9733 114.737 32.796C115.11 32.6187 115.404 32.376 115.619 32.068C115.833 31.76 115.941 31.41 115.941 31.018H116.711C116.683 31.606 116.519 32.1333 116.221 32.6C115.931 33.0573 115.539 33.4213 115.045 33.692C114.55 33.9533 113.999 34.084 113.393 34.084ZM116.473 34C116.314 34 116.183 33.9533 116.081 33.86C115.987 33.7573 115.941 33.622 115.941 33.454V26.874C115.941 26.7153 115.987 26.5893 116.081 26.496C116.183 26.3933 116.314 26.342 116.473 26.342C116.631 26.342 116.762 26.3933 116.865 26.496C116.967 26.5893 117.019 26.7153 117.019 26.874V33.454C117.019 33.622 116.967 33.7573 116.865 33.86C116.762 33.9533 116.631 34 116.473 34ZM121.187 34C120.814 34 120.478 33.8973 120.179 33.692C119.89 33.4867 119.661 33.202 119.493 32.838C119.335 32.474 119.255 32.054 119.255 31.578V23.598C119.255 23.4393 119.302 23.3133 119.395 23.22C119.498 23.1173 119.629 23.066 119.787 23.066C119.946 23.066 120.072 23.1173 120.165 23.22C120.268 23.3133 120.319 23.4393 120.319 23.598V31.578C120.319 31.9793 120.399 32.306 120.557 32.558C120.725 32.81 120.935 32.936 121.187 32.936H121.537C121.677 32.936 121.789 32.9873 121.873 33.09C121.957 33.1833 121.999 33.3093 121.999 33.468C121.999 33.6267 121.939 33.7573 121.817 33.86C121.705 33.9533 121.556 34 121.369 34H121.187ZM126.437 34.07C125.718 34.07 125.074 33.902 124.505 33.566C123.935 33.2207 123.483 32.754 123.147 32.166C122.82 31.578 122.657 30.9153 122.657 30.178C122.657 29.4313 122.825 28.764 123.161 28.176C123.506 27.588 123.973 27.126 124.561 26.79C125.149 26.4447 125.811 26.272 126.549 26.272C127.286 26.272 127.944 26.4447 128.523 26.79C129.111 27.126 129.573 27.588 129.909 28.176C130.254 28.764 130.431 29.4313 130.441 30.178L130.007 30.514C130.007 31.186 129.848 31.7927 129.531 32.334C129.223 32.866 128.798 33.2907 128.257 33.608C127.725 33.916 127.118 34.07 126.437 34.07ZM126.549 33.09C127.09 33.09 127.571 32.964 127.991 32.712C128.42 32.46 128.756 32.1147 128.999 31.676C129.251 31.228 129.377 30.7287 129.377 30.178C129.377 29.618 129.251 29.1187 128.999 28.68C128.756 28.2413 128.42 27.896 127.991 27.644C127.571 27.3827 127.09 27.252 126.549 27.252C126.017 27.252 125.536 27.3827 125.107 27.644C124.677 27.896 124.337 28.2413 124.085 28.68C123.833 29.1187 123.707 29.618 123.707 30.178C123.707 30.7287 123.833 31.228 124.085 31.676C124.337 32.1147 124.677 32.46 125.107 32.712C125.536 32.964 126.017 33.09 126.549 33.09ZM129.895 34C129.736 34 129.605 33.9533 129.503 33.86C129.4 33.7573 129.349 33.6267 129.349 33.468V31.074L129.615 29.968L130.441 30.178V33.468C130.441 33.6267 130.389 33.7573 130.287 33.86C130.184 33.9533 130.053 34 129.895 34ZM132.985 29.282C133.013 28.7033 133.163 28.1853 133.433 27.728C133.713 27.2707 134.073 26.9113 134.511 26.65C134.959 26.3887 135.454 26.258 135.995 26.258C136.425 26.258 136.756 26.3187 136.989 26.44C137.223 26.5613 137.311 26.7387 137.255 26.972C137.218 27.112 137.153 27.2053 137.059 27.252C136.975 27.2987 136.868 27.3173 136.737 27.308C136.616 27.2987 136.476 27.2893 136.317 27.28C135.795 27.2333 135.328 27.2893 134.917 27.448C134.516 27.5973 134.194 27.8307 133.951 28.148C133.718 28.4653 133.601 28.8433 133.601 29.282H132.985ZM133.069 34C132.901 34 132.771 33.9533 132.677 33.86C132.584 33.7667 132.537 33.636 132.537 33.468V26.874C132.537 26.706 132.584 26.5753 132.677 26.482C132.771 26.3887 132.901 26.342 133.069 26.342C133.237 26.342 133.368 26.3887 133.461 26.482C133.555 26.5753 133.601 26.706 133.601 26.874V33.468C133.601 33.636 133.555 33.7667 133.461 33.86C133.368 33.9533 133.237 34 133.069 34Z" fill="black"/>
<path d="M6.3 13.14C5.544 13.14 4.83467 13 4.172 12.72C3.51867 12.4307 2.94467 12.034 2.45 11.53C1.96467 11.0167 1.582 10.4193 1.302 9.738C1.03133 9.05667 0.896 8.31933 0.896 7.526C0.896 6.742 1.03133 6.014 1.302 5.342C1.582 4.66067 1.96467 4.068 2.45 3.564C2.94467 3.05067 3.51867 2.64933 4.172 2.36C4.82533 2.07067 5.53467 1.926 6.3 1.926C7.01867 1.926 7.63467 2.01933 8.148 2.206C8.67067 2.39267 9.19333 2.70067 9.716 3.13C9.79067 3.186 9.84667 3.24667 9.884 3.312C9.93067 3.368 9.95867 3.42867 9.968 3.494C9.98667 3.55 9.996 3.62 9.996 3.704C9.996 3.88133 9.93067 4.03067 9.8 4.152C9.67867 4.264 9.52933 4.32933 9.352 4.348C9.17467 4.35733 9.002 4.29667 8.834 4.166C8.48867 3.86733 8.12933 3.63867 7.756 3.48C7.392 3.32133 6.90667 3.242 6.3 3.242C5.74933 3.242 5.23133 3.354 4.746 3.578C4.26067 3.802 3.83133 4.11 3.458 4.502C3.094 4.894 2.80933 5.35133 2.604 5.874C2.39867 6.38733 2.296 6.938 2.296 7.526C2.296 8.12333 2.39867 8.68333 2.604 9.206C2.80933 9.71933 3.094 10.172 3.458 10.564C3.83133 10.956 4.26067 11.264 4.746 11.488C5.23133 11.7027 5.74933 11.81 6.3 11.81C6.776 11.81 7.224 11.7307 7.644 11.572C8.07333 11.404 8.484 11.1753 8.876 10.886C9.044 10.7647 9.20733 10.7133 9.366 10.732C9.534 10.7413 9.674 10.8067 9.786 10.928C9.898 11.04 9.954 11.1987 9.954 11.404C9.954 11.4973 9.93533 11.5907 9.898 11.684C9.86067 11.768 9.80467 11.8473 9.73 11.922C9.226 12.3233 8.68467 12.6267 8.106 12.832C7.53667 13.0373 6.93467 13.14 6.3 13.14ZM15.0543 13.056C14.2983 13.056 13.6309 12.8927 13.0523 12.566C12.4736 12.23 12.0163 11.7727 11.6803 11.194C11.3536 10.606 11.1903 9.934 11.1903 9.178C11.1903 8.41267 11.3536 7.74067 11.6803 7.162C12.0163 6.574 12.4736 6.11667 13.0523 5.79C13.6309 5.454 14.2983 5.286 15.0543 5.286C15.8009 5.286 16.4636 5.454 17.0423 5.79C17.6209 6.11667 18.0736 6.574 18.4003 7.162C18.7363 7.74067 18.9043 8.41267 18.9043 9.178C18.9043 9.934 18.7409 10.606 18.4143 11.194C18.0876 11.7727 17.6349 12.23 17.0563 12.566C16.4776 12.8927 15.8103 13.056 15.0543 13.056ZM15.0543 11.796C15.5396 11.796 15.9689 11.684 16.3423 11.46C16.7156 11.236 17.0049 10.928 17.2103 10.536C17.4249 10.144 17.5323 9.69133 17.5323 9.178C17.5323 8.66467 17.4249 8.212 17.2103 7.82C17.0049 7.41867 16.7156 7.106 16.3423 6.882C15.9689 6.658 15.5396 6.546 15.0543 6.546C14.5689 6.546 14.1396 6.658 13.7663 6.882C13.3929 7.106 13.0989 7.41867 12.8843 7.82C12.6696 8.212 12.5623 8.66467 12.5623 9.178C12.5623 9.69133 12.6696 10.144 12.8843 10.536C13.0989 10.928 13.3929 11.236 13.7663 11.46C14.1396 11.684 14.5689 11.796 15.0543 11.796ZM31.0815 13.014C30.8762 13.014 30.7035 12.9487 30.5635 12.818C30.4329 12.678 30.3675 12.5053 30.3675 12.3V8.296C30.3675 7.708 30.2229 7.274 29.9335 6.994C29.6442 6.70467 29.2662 6.56 28.7995 6.56C28.3142 6.56 27.9129 6.728 27.5955 7.064C27.2875 7.4 27.1335 7.82933 27.1335 8.352H25.9715C25.9715 7.74533 26.1022 7.21333 26.3635 6.756C26.6249 6.28933 26.9889 5.92533 27.4555 5.664C27.9315 5.40267 28.4729 5.272 29.0795 5.272C29.6115 5.272 30.0829 5.38867 30.4935 5.622C30.9042 5.85533 31.2215 6.20067 31.4455 6.658C31.6789 7.106 31.7955 7.652 31.7955 8.296V12.3C31.7955 12.5053 31.7302 12.678 31.5995 12.818C31.4689 12.9487 31.2962 13.014 31.0815 13.014ZM21.7435 13.014C21.5382 13.014 21.3655 12.9487 21.2255 12.818C21.0949 12.678 21.0295 12.5053 21.0295 12.3V6.07C21.0295 5.85533 21.0949 5.68267 21.2255 5.552C21.3655 5.42133 21.5382 5.356 21.7435 5.356C21.9582 5.356 22.1309 5.42133 22.2615 5.552C22.3922 5.68267 22.4575 5.85533 22.4575 6.07V12.3C22.4575 12.5053 22.3922 12.678 22.2615 12.818C22.1309 12.9487 21.9582 13.014 21.7435 13.014ZM26.4195 13.014C26.2142 13.014 26.0415 12.9487 25.9015 12.818C25.7709 12.678 25.7055 12.5053 25.7055 12.3V8.296C25.7055 7.708 25.5609 7.274 25.2715 6.994C24.9822 6.70467 24.6042 6.56 24.1375 6.56C23.6522 6.56 23.2509 6.728 22.9335 7.064C22.6162 7.4 22.4575 7.82933 22.4575 8.352H21.5755C21.5755 7.74533 21.6969 7.21333 21.9395 6.756C22.1822 6.28933 22.5182 5.92533 22.9475 5.664C23.3769 5.40267 23.8669 5.272 24.4175 5.272C24.9495 5.272 25.4209 5.38867 25.8315 5.622C26.2422 5.85533 26.5595 6.20067 26.7835 6.658C27.0169 7.106 27.1335 7.652 27.1335 8.296V12.3C27.1335 12.5053 27.0682 12.678 26.9375 12.818C26.8069 12.9487 26.6342 13.014 26.4195 13.014ZM34.9942 13C34.8169 13 34.6582 12.9347 34.5182 12.804C34.3782 12.6733 34.3082 12.5007 34.3082 12.286V5.384C34.3082 4.712 34.4389 4.12867 34.7002 3.634C34.9709 3.13933 35.3442 2.75667 35.8202 2.486C36.2962 2.206 36.8469 2.066 37.4722 2.066C37.6775 2.066 37.8455 2.12667 37.9762 2.248C38.1162 2.36933 38.1862 2.52333 38.1862 2.71C38.1862 2.88733 38.1162 3.04133 37.9762 3.172C37.8455 3.29333 37.6775 3.354 37.4722 3.354C37.1269 3.354 36.8235 3.43333 36.5622 3.592C36.3009 3.75067 36.0955 3.97 35.9462 4.25C35.8062 4.53 35.7362 4.86133 35.7362 5.244V12.286C35.7362 12.5007 35.6709 12.6733 35.5402 12.804C35.4095 12.9347 35.2275 13 34.9942 13ZM33.7062 6.826C33.5102 6.826 33.3515 6.77 33.2302 6.658C33.1089 6.546 33.0482 6.406 33.0482 6.238C33.0482 6.05133 33.1089 5.902 33.2302 5.79C33.3515 5.678 33.5102 5.622 33.7062 5.622H37.1642C37.3602 5.622 37.5189 5.678 37.6402 5.79C37.7615 5.902 37.8222 6.05133 37.8222 6.238C37.8222 6.406 37.7615 6.546 37.6402 6.658C37.5189 6.77 37.3602 6.826 37.1642 6.826H33.7062ZM42.5074 13.056C41.7514 13.056 41.0841 12.8927 40.5054 12.566C39.9267 12.23 39.4694 11.7727 39.1334 11.194C38.8067 10.606 38.6434 9.934 38.6434 9.178C38.6434 8.41267 38.8067 7.74067 39.1334 7.162C39.4694 6.574 39.9267 6.11667 40.5054 5.79C41.0841 5.454 41.7514 5.286 42.5074 5.286C43.2541 5.286 43.9167 5.454 44.4954 5.79C45.0741 6.11667 45.5267 6.574 45.8534 7.162C46.1894 7.74067 46.3574 8.41267 46.3574 9.178C46.3574 9.934 46.1941 10.606 45.8674 11.194C45.5407 11.7727 45.0881 12.23 44.5094 12.566C43.9307 12.8927 43.2634 13.056 42.5074 13.056ZM42.5074 11.796C42.9927 11.796 43.4221 11.684 43.7954 11.46C44.1687 11.236 44.4581 10.928 44.6634 10.536C44.8781 10.144 44.9854 9.69133 44.9854 9.178C44.9854 8.66467 44.8781 8.212 44.6634 7.82C44.4581 7.41867 44.1687 7.106 43.7954 6.882C43.4221 6.658 42.9927 6.546 42.5074 6.546C42.0221 6.546 41.5927 6.658 41.2194 6.882C40.8461 7.106 40.5521 7.41867 40.3374 7.82C40.1227 8.212 40.0154 8.66467 40.0154 9.178C40.0154 9.69133 40.1227 10.144 40.3374 10.536C40.5521 10.928 40.8461 11.236 41.2194 11.46C41.5927 11.684 42.0221 11.796 42.5074 11.796ZM49.1687 8.212C49.1687 7.652 49.304 7.15267 49.5747 6.714C49.8547 6.266 50.228 5.91133 50.6947 5.65C51.1613 5.38867 51.6747 5.258 52.2347 5.258C52.7947 5.258 53.21 5.35133 53.4807 5.538C53.7607 5.71533 53.868 5.93 53.8027 6.182C53.7747 6.31267 53.7187 6.41533 53.6347 6.49C53.56 6.55533 53.4713 6.59733 53.3687 6.616C53.266 6.63467 53.154 6.63 53.0327 6.602C52.4353 6.48067 51.8987 6.47133 51.4227 6.574C50.9467 6.67667 50.5687 6.868 50.2887 7.148C50.018 7.428 49.8827 7.78267 49.8827 8.212H49.1687ZM49.1827 13C48.9587 13 48.786 12.944 48.6647 12.832C48.5433 12.7107 48.4827 12.5333 48.4827 12.3V6.042C48.4827 5.818 48.5433 5.64533 48.6647 5.524C48.786 5.40267 48.9587 5.342 49.1827 5.342C49.416 5.342 49.5887 5.40267 49.7007 5.524C49.822 5.636 49.8827 5.80867 49.8827 6.042V12.3C49.8827 12.524 49.822 12.6967 49.7007 12.818C49.5887 12.9393 49.416 13 49.1827 13ZM58.0773 13C57.6106 13 57.1906 12.8833 56.8173 12.65C56.4439 12.4073 56.1499 12.0807 55.9353 11.67C55.7206 11.2593 55.6133 10.7973 55.6133 10.284V3.606C55.6133 3.40067 55.6786 3.23267 55.8093 3.102C55.9399 2.97133 56.1079 2.906 56.3133 2.906C56.5186 2.906 56.6866 2.97133 56.8173 3.102C56.9479 3.23267 57.0133 3.40067 57.0133 3.606V10.284C57.0133 10.6573 57.1159 10.97 57.3213 11.222C57.5266 11.474 57.7786 11.6 58.0773 11.6H58.5533C58.7213 11.6 58.8613 11.6653 58.9733 11.796C59.0946 11.9267 59.1553 12.0947 59.1553 12.3C59.1553 12.5053 59.0759 12.6733 58.9173 12.804C58.7679 12.9347 58.5719 13 58.3293 13H58.0773ZM54.9693 6.826C54.7733 6.826 54.6146 6.77 54.4932 6.658C54.3719 6.546 54.3113 6.406 54.3113 6.238C54.3113 6.05133 54.3719 5.902 54.4932 5.79C54.6146 5.678 54.7733 5.622 54.9693 5.622H58.2033C58.3993 5.622 58.5579 5.678 58.6793 5.79C58.8006 5.902 58.8613 6.05133 58.8613 6.238C58.8613 6.406 58.8006 6.546 58.6793 6.658C58.5579 6.77 58.3993 6.826 58.2033 6.826H54.9693ZM64.1024 13.056C63.4211 13.056 62.8097 12.888 62.2684 12.552C61.7271 12.2067 61.2977 11.7447 60.9804 11.166C60.6724 10.578 60.5184 9.91533 60.5184 9.178C60.5184 8.44067 60.6864 7.778 61.0224 7.19C61.3677 6.602 61.8297 6.14 62.4084 5.804C62.9964 5.45867 63.6544 5.286 64.3824 5.286C65.1104 5.286 65.7637 5.45867 66.3424 5.804C66.9211 6.14 67.3784 6.602 67.7144 7.19C68.0597 7.778 68.2324 8.44067 68.2324 9.178H67.6864C67.6864 9.91533 67.5277 10.578 67.2104 11.166C66.9024 11.7447 66.4777 12.2067 65.9364 12.552C65.3951 12.888 64.7837 13.056 64.1024 13.056ZM64.3824 11.796C64.8584 11.796 65.2831 11.684 65.6564 11.46C66.0297 11.2267 66.3237 10.914 66.5384 10.522C66.7531 10.1207 66.8604 9.67267 66.8604 9.178C66.8604 8.674 66.7531 8.226 66.5384 7.834C66.3237 7.43267 66.0297 7.12 65.6564 6.896C65.2831 6.66267 64.8584 6.546 64.3824 6.546C63.9157 6.546 63.4911 6.66267 63.1084 6.896C62.7351 7.12 62.4364 7.43267 62.2124 7.834C61.9977 8.226 61.8904 8.674 61.8904 9.178C61.8904 9.67267 61.9977 10.1207 62.2124 10.522C62.4364 10.914 62.7351 11.2267 63.1084 11.46C63.4911 11.684 63.9157 11.796 64.3824 11.796ZM67.5184 13.014C67.3131 13.014 67.1404 12.9487 67.0004 12.818C66.8697 12.678 66.8044 12.5053 66.8044 12.3V10.158L67.0704 8.674L68.2324 9.178V12.3C68.2324 12.5053 68.1624 12.678 68.0224 12.818C67.8917 12.9487 67.7237 13.014 67.5184 13.014ZM73.5497 13.056C72.8683 13.056 72.257 12.888 71.7157 12.552C71.1743 12.2067 70.745 11.7447 70.4277 11.166C70.1197 10.578 69.9657 9.91533 69.9657 9.178C69.9657 8.44067 70.1337 7.778 70.4697 7.19C70.815 6.602 71.277 6.14 71.8557 5.804C72.4437 5.45867 73.1017 5.286 73.8297 5.286C74.5577 5.286 75.211 5.45867 75.7897 5.804C76.3683 6.14 76.8257 6.602 77.1617 7.19C77.507 7.778 77.6797 8.44067 77.6797 9.178H77.1337C77.1337 9.91533 76.975 10.578 76.6577 11.166C76.3497 11.7447 75.925 12.2067 75.3837 12.552C74.8423 12.888 74.231 13.056 73.5497 13.056ZM73.8297 11.796C74.3057 11.796 74.7303 11.684 75.1037 11.46C75.477 11.2267 75.771 10.914 75.9857 10.522C76.2003 10.1207 76.3077 9.67267 76.3077 9.178C76.3077 8.674 76.2003 8.226 75.9857 7.834C75.771 7.43267 75.477 7.12 75.1037 6.896C74.7303 6.66267 74.3057 6.546 73.8297 6.546C73.363 6.546 72.9383 6.66267 72.5557 6.896C72.1823 7.12 71.8837 7.43267 71.6597 7.834C71.445 8.226 71.3377 8.674 71.3377 9.178C71.3377 9.67267 71.445 10.1207 71.6597 10.522C71.8837 10.914 72.1823 11.2267 72.5557 11.46C72.9383 11.684 73.363 11.796 73.8297 11.796ZM76.9657 13.014C76.7603 13.014 76.5877 12.9487 76.4477 12.818C76.317 12.678 76.2517 12.5053 76.2517 12.3V10.158L76.5177 8.674L77.6797 9.178V12.3C77.6797 12.5053 77.6097 12.678 77.4697 12.818C77.339 12.9487 77.171 13.014 76.9657 13.014ZM84.7745 13C84.5692 13 84.3965 12.93 84.2565 12.79C84.1165 12.65 84.0465 12.4773 84.0465 12.272V2.794C84.0465 2.57933 84.1165 2.40667 84.2565 2.276C84.3965 2.136 84.5692 2.066 84.7745 2.066H88.1205C88.7552 2.066 89.3105 2.192 89.7865 2.444C90.2718 2.68667 90.6498 3.02733 90.9205 3.466C91.2005 3.90467 91.3405 4.40867 91.3405 4.978C91.3405 5.43533 91.2145 5.85067 90.9625 6.224C90.7198 6.588 90.3838 6.87733 89.9545 7.092C90.5705 7.24133 91.0652 7.53533 91.4385 7.974C91.8118 8.41267 91.9985 8.98667 91.9985 9.696C91.9985 10.34 91.8445 10.9093 91.5365 11.404C91.2378 11.8987 90.8178 12.2907 90.2765 12.58C89.7352 12.86 89.1145 13 88.4145 13H84.7745ZM85.5025 11.656H88.4145C88.8438 11.656 89.2218 11.5813 89.5485 11.432C89.8752 11.2827 90.1318 11.0633 90.3185 10.774C90.5052 10.4847 90.5985 10.1253 90.5985 9.696C90.5985 9.29467 90.5052 8.96333 90.3185 8.702C90.1318 8.44067 89.8752 8.24467 89.5485 8.114C89.2218 7.974 88.8438 7.904 88.4145 7.904H85.5025V11.656ZM85.5025 6.56H88.1205C88.6525 6.56 89.0865 6.42933 89.4225 6.168C89.7678 5.90667 89.9405 5.51 89.9405 4.978C89.9405 4.446 89.7678 4.054 89.4225 3.802C89.0865 3.54067 88.6525 3.41 88.1205 3.41H85.5025V6.56ZM97.4957 13.056C96.7397 13.056 96.0723 12.8927 95.4937 12.566C94.915 12.23 94.4577 11.7727 94.1217 11.194C93.795 10.606 93.6317 9.934 93.6317 9.178C93.6317 8.41267 93.795 7.74067 94.1217 7.162C94.4577 6.574 94.915 6.11667 95.4937 5.79C96.0723 5.454 96.7397 5.286 97.4957 5.286C98.2423 5.286 98.905 5.454 99.4837 5.79C100.062 6.11667 100.515 6.574 100.842 7.162C101.178 7.74067 101.346 8.41267 101.346 9.178C101.346 9.934 101.182 10.606 100.856 11.194C100.529 11.7727 100.076 12.23 99.4977 12.566C98.919 12.8927 98.2517 13.056 97.4957 13.056ZM97.4957 11.796C97.981 11.796 98.4103 11.684 98.7837 11.46C99.157 11.236 99.4463 10.928 99.6517 10.536C99.8663 10.144 99.9737 9.69133 99.9737 9.178C99.9737 8.66467 99.8663 8.212 99.6517 7.82C99.4463 7.41867 99.157 7.106 98.7837 6.882C98.4103 6.658 97.981 6.546 97.4957 6.546C97.0103 6.546 96.581 6.658 96.2077 6.882C95.8343 7.106 95.5403 7.41867 95.3257 7.82C95.111 8.212 95.0037 8.66467 95.0037 9.178C95.0037 9.69133 95.111 10.144 95.3257 10.536C95.5403 10.928 95.8343 11.236 96.2077 11.46C96.581 11.684 97.0103 11.796 97.4957 11.796ZM105.291 13C104.88 13 104.516 12.888 104.199 12.664C103.882 12.44 103.634 12.1367 103.457 11.754C103.28 11.362 103.191 10.914 103.191 10.41V2.766C103.191 2.56067 103.256 2.39267 103.387 2.262C103.518 2.13133 103.686 2.066 103.891 2.066C104.096 2.066 104.264 2.13133 104.395 2.262C104.526 2.39267 104.591 2.56067 104.591 2.766V10.41C104.591 10.7553 104.656 11.04 104.787 11.264C104.918 11.488 105.086 11.6 105.291 11.6H105.641C105.828 11.6 105.977 11.6653 106.089 11.796C106.21 11.9267 106.271 12.0947 106.271 12.3C106.271 12.5053 106.182 12.6733 106.005 12.804C105.828 12.9347 105.599 13 105.319 13H105.291ZM110.716 13.056C109.988 13.056 109.33 12.888 108.742 12.552C108.164 12.2067 107.702 11.74 107.356 11.152C107.02 10.564 106.852 9.90133 106.852 9.164C106.852 8.42667 107.006 7.76867 107.314 7.19C107.632 6.602 108.061 6.14 108.602 5.804C109.144 5.45867 109.755 5.286 110.436 5.286C110.987 5.286 111.496 5.40267 111.962 5.636C112.429 5.86 112.821 6.168 113.138 6.56V2.78C113.138 2.56533 113.204 2.39267 113.334 2.262C113.474 2.13133 113.647 2.066 113.852 2.066C114.067 2.066 114.24 2.13133 114.37 2.262C114.501 2.39267 114.566 2.56533 114.566 2.78V9.164C114.566 9.90133 114.394 10.564 114.048 11.152C113.712 11.74 113.255 12.2067 112.676 12.552C112.098 12.888 111.444 13.056 110.716 13.056ZM110.716 11.796C111.192 11.796 111.617 11.684 111.99 11.46C112.364 11.2267 112.658 10.9093 112.872 10.508C113.087 10.1067 113.194 9.65867 113.194 9.164C113.194 8.66 113.087 8.212 112.872 7.82C112.658 7.428 112.364 7.12 111.99 6.896C111.617 6.66267 111.192 6.546 110.716 6.546C110.25 6.546 109.825 6.66267 109.442 6.896C109.069 7.12 108.77 7.428 108.546 7.82C108.332 8.212 108.224 8.66 108.224 9.164C108.224 9.65867 108.332 10.1067 108.546 10.508C108.77 10.9093 109.069 11.2267 109.442 11.46C109.825 11.684 110.25 11.796 110.716 11.796Z" fill="black"/>
</svg>
