<svg width="33" height="50" viewBox="0 0 33 50" fill="none" xmlns="http://www.w3.org/2000/svg">
<path d="M16.5 24.75C16.5 20.1937 20.1936 16.5 24.75 16.5C29.3063 16.5 33 20.1937 33 24.75C33 29.3064 29.3063 33 24.75 33C20.1936 33 16.5 29.3064 16.5 24.75Z" fill="#1ABCFE"/>
<path d="M0 41.25C0 36.6937 3.69365 33 8.25 33H16.5V41.25C16.5 45.8064 12.8064 49.5 8.25 49.5C3.69365 49.5 0 45.8064 0 41.25Z" fill="#0ACF83"/>
<path d="M16.5 0V16.5H24.75C29.3064 16.5 33 12.8063 33 8.24999C33 3.69365 29.3064 0 24.75 0H16.5Z" fill="#FF7262"/>
<path d="M0 8.25C0 12.8063 3.69365 16.5 8.25 16.5H16.5V0H8.25C3.69365 0 0 3.69365 0 8.25Z" fill="#F24E1E"/>
<path d="M0 24.75C0 29.3064 3.69365 33 8.25 33H16.5V16.5H8.25C3.69365 16.5 0 20.1937 0 24.75Z" fill="#A259FF"/>
</svg>
