<svg width="50" height="49" viewBox="0 0 50 49" fill="none" xmlns="http://www.w3.org/2000/svg">
<g clip-path="url(#clip0_442_9069)">
<path d="M8.85417 -1.51442e-05H41.1458C42.3089 -0.00111133 43.4607 0.22716 44.5355 0.671736C45.6102 1.11631 46.5867 1.76846 47.4091 2.59087C48.2315 3.41327 48.8837 4.38978 49.3283 5.46451C49.7728 6.53924 50.0011 7.6911 50 8.85415V39.8958C50.0011 41.0589 49.7728 42.2107 49.3283 43.2855C48.8837 44.3602 48.2315 45.3367 47.4091 46.1591C46.5867 46.9815 45.6102 47.6337 44.5355 48.0782C43.4607 48.5228 42.3089 48.7511 41.1458 48.75H8.85417C7.69112 48.7511 6.53926 48.5228 5.46453 48.0782C4.3898 47.6337 3.41329 46.9815 2.59088 46.1591C1.76848 45.3367 1.11633 44.3602 0.671755 43.2855C0.227179 42.2107 -0.00109226 41.0589 3.92933e-06 39.8958V8.85415C-0.00109226 7.6911 0.227179 6.53924 0.671755 5.46451C1.11633 4.38978 1.76848 3.41327 2.59088 2.59087C3.41329 1.76846 4.3898 1.11631 5.46453 0.671736C6.53926 0.22716 7.69112 -0.00111133 8.85417 -1.51442e-05V-1.51442e-05Z" fill="#330000"/>
<path d="M24.2291 29.25H16.4791L14.8958 34.1458C14.8781 34.2351 14.8277 34.3145 14.7544 34.3684C14.6812 34.4224 14.5904 34.447 14.5 34.4375H10.5833C10.3541 34.4375 10.2916 34.3125 10.3541 34.0625L17.0625 14.75C17.125 14.5417 17.1875 14.3125 17.2708 14.0625C17.3546 13.616 17.3965 13.1626 17.3958 12.7083C17.3895 12.6562 17.4033 12.6035 17.4342 12.561C17.4651 12.5185 17.5109 12.4893 17.5625 12.4792H22.9583C23.125 12.4792 23.2083 12.5417 23.2291 12.6458L30.8333 34.1042C30.8958 34.3333 30.8333 34.4375 30.625 34.4375H26.2708C26.1971 34.4446 26.1234 34.4255 26.0624 34.3836C26.0014 34.3417 25.9572 34.2796 25.9375 34.2083L24.2291 29.25ZM17.6875 25.0208H22.9791C22.8541 24.5833 22.6875 24.0625 22.5 23.5208C22.3125 22.9792 22.125 22.3542 21.9375 21.7292C21.75 21.1042 21.5416 20.4583 21.3333 19.8125C21.125 19.1667 20.9375 18.5625 20.7708 17.9583C20.6041 17.3542 20.4583 16.8333 20.3125 16.3333H20.2708C20.0836 17.2413 19.8471 18.1385 19.5625 19.0208C19.25 20.0208 18.9375 21.0625 18.6041 22.1042C18.3125 23.1667 18 24.1458 17.6875 25.0208V25.0208Z" fill="#FF9A00"/>
<path d="M35.375 16.0417C35.033 16.0491 34.693 15.9885 34.3746 15.8634C34.0563 15.7382 33.7661 15.5509 33.5208 15.3125C33.0435 14.7906 32.7893 14.1027 32.8125 13.3958C32.8002 13.0514 32.8606 12.7083 32.9898 12.3888C33.1191 12.0693 33.3142 11.7807 33.5625 11.5417C34.0632 11.0684 34.7276 10.8071 35.4166 10.8125C36.2291 10.8125 36.8541 11.0625 37.3125 11.5417C37.774 12.0468 38.0206 12.7119 38 13.3958C38.0127 13.7478 37.9547 14.0988 37.8295 14.428C37.7042 14.7572 37.5143 15.058 37.2708 15.3125C37.0253 15.5625 36.7291 15.757 36.402 15.8828C36.075 16.0086 35.7247 16.0628 35.375 16.0417V16.0417ZM33.0416 34.125V18.0833C33.0416 17.875 33.125 17.7917 33.3125 17.7917H37.4375C37.625 17.7917 37.7083 17.8958 37.7083 18.0833V34.125C37.7083 34.3542 37.625 34.4583 37.4375 34.4583H33.3541C33.3104 34.4619 33.2663 34.4556 33.2253 34.4398C33.1843 34.424 33.1474 34.3992 33.1174 34.3671C33.0873 34.3351 33.0649 34.2967 33.0518 34.2547C33.0387 34.2128 33.0352 34.1685 33.0416 34.125V34.125Z" fill="#FF9A00"/>
</g>
<defs>
<clipPath id="clip0_442_9069">
<rect width="50" height="48.75" fill="white"/>
</clipPath>
</defs>
</svg>
