<svg width="50" height="49" viewBox="0 0 50 49" fill="none" xmlns="http://www.w3.org/2000/svg">
<g clip-path="url(#clip0_442_9081)">
<path d="M8.85417 -1.13295e-05H41.1458C42.3089 -0.00110752 43.4607 0.227164 44.5355 0.671739C45.6102 1.11631 46.5867 1.76847 47.4091 2.59087C48.2315 3.41327 48.8837 4.38978 49.3283 5.46452C49.7728 6.53925 50.0011 7.6911 50 8.85416V39.8958C50.0011 41.0589 49.7728 42.2107 49.3283 43.2855C48.8837 44.3602 48.2315 45.3367 47.4091 46.1591C46.5867 46.9815 45.6102 47.6337 44.5355 48.0782C43.4607 48.5228 42.3089 48.7511 41.1458 48.75H8.85417C7.69112 48.7511 6.53926 48.5228 5.46453 48.0782C4.3898 47.6337 3.41329 46.9815 2.59088 46.1591C1.76848 45.3367 1.11633 44.3602 0.671755 43.2855C0.227179 42.2107 -0.00109226 41.0589 3.92933e-06 39.8958V8.85416C-0.00109226 7.6911 0.227179 6.53925 0.671755 5.46452C1.11633 4.38978 1.76848 3.41327 2.59088 2.59087C3.41329 1.76847 4.3898 1.11631 5.46453 0.671739C6.53926 0.227164 7.69112 -0.00110752 8.85417 -1.13295e-05V-1.13295e-05Z" fill="#49021F"/>
<path d="M18.1666 12.75V34.125C18.1666 34.3542 18.0624 34.4583 17.8749 34.4583H13.7916C13.6041 34.4583 13.5208 34.3542 13.5208 34.125V12.75C13.5208 12.5625 13.6249 12.4792 13.8124 12.4792H17.8749C17.9065 12.4742 17.9388 12.4757 17.9697 12.4836C18.0007 12.4915 18.0298 12.5056 18.0551 12.5251C18.0805 12.5446 18.1016 12.5691 18.1171 12.597C18.1327 12.6249 18.1425 12.6557 18.1458 12.6875C18.1536 12.6957 18.1596 12.7056 18.1632 12.7164C18.1668 12.7272 18.1679 12.7387 18.1666 12.75V12.75Z" fill="#FF3366"/>
<path d="M30.1667 34.7917C28.6224 34.817 27.092 34.4967 25.6875 33.8542C24.3808 33.2431 23.2856 32.2567 22.5417 31.0208C21.7708 29.75 21.3958 28.1667 21.3958 26.2708C21.3747 24.7291 21.7706 23.2103 22.5417 21.875C23.3323 20.5179 24.4774 19.4016 25.8542 18.6458C27.3125 17.8333 29.0625 17.4375 31.125 17.4375C31.2711 17.4358 31.4172 17.4428 31.5625 17.4583C31.75 17.4792 31.9583 17.4792 32.2083 17.5V10.9167C32.2083 10.7708 32.2708 10.6875 32.4167 10.6875H36.6458C36.6925 10.6812 36.7399 10.6927 36.7785 10.7197C36.8171 10.7467 36.8441 10.7873 36.8542 10.8333V30.7083C36.8542 31.0833 36.875 31.5 36.8958 31.9583C36.9167 32.4167 36.9583 32.8125 36.9792 33.1667C36.9836 33.237 36.9659 33.307 36.9285 33.3668C36.8912 33.4266 36.836 33.4732 36.7708 33.5C35.6796 33.9586 34.5406 34.294 33.375 34.5C32.3163 34.6919 31.2426 34.7895 30.1667 34.7917ZM32.2083 30.625V21.4583C32.0228 21.4136 31.8351 21.3788 31.6458 21.3542C31.4167 21.3333 31.1875 21.3125 30.9583 21.3125C30.1417 21.3033 29.3346 21.489 28.6042 21.8542C27.8922 22.2089 27.2827 22.7396 26.8333 23.3958C26.375 24.0625 26.1458 24.9583 26.1458 26.0417C26.1277 26.7729 26.2478 27.5009 26.5 28.1875C26.7015 28.7427 27.0214 29.2475 27.4375 29.6667C27.8391 30.05 28.324 30.3352 28.8542 30.5C29.4122 30.6828 29.9961 30.7742 30.5833 30.7708C30.8958 30.7708 31.1875 30.75 31.4583 30.7292C31.7129 30.7488 31.9687 30.7133 32.2083 30.625V30.625Z" fill="#FF3366"/>
</g>
<defs>
<clipPath id="clip0_442_9081">
<rect width="50" height="48.75" fill="white"/>
</clipPath>
</defs>
</svg>
