<svg width="50" height="31" viewBox="0 0 50 31" fill="none" xmlns="http://www.w3.org/2000/svg">
<g clip-path="url(#clip0_35_257)">
<path d="M24.7175 30.6284C24.5501 30.6258 24.3863 30.579 24.2428 30.4928L22.7396 29.5999C22.5136 29.4756 22.6266 29.4304 22.6944 29.4078C22.9329 29.3313 23.1607 29.2249 23.3725 29.0913C23.3907 29.083 23.4107 29.0797 23.4306 29.0817C23.4504 29.0837 23.4694 29.0909 23.4856 29.1026L24.6384 29.7807C24.6607 29.7936 24.686 29.8004 24.7118 29.8004C24.7376 29.8004 24.763 29.7936 24.7853 29.7807L29.3061 27.1813C29.3233 27.1678 29.3373 27.1507 29.3471 27.1311C29.3569 27.1116 29.3622 27.0901 29.3626 27.0683V21.8467C29.3609 21.8239 29.3539 21.8018 29.3421 21.7822C29.3303 21.7626 29.3141 21.746 29.2948 21.7337L24.774 19.1343C24.7548 19.1243 24.7335 19.1192 24.7118 19.1192C24.6902 19.1192 24.6689 19.1243 24.6497 19.1343L20.1289 21.7337C20.1096 21.746 20.0934 21.7626 20.0816 21.7822C20.0698 21.8018 20.0628 21.8239 20.0611 21.8467V27.0569C20.0598 27.0819 20.0655 27.1067 20.0775 27.1287C20.0894 27.1506 20.1072 27.1688 20.1289 27.1813L21.3721 27.8933C22.0502 28.2324 22.4571 27.8368 22.4571 27.4412V22.2988C22.4555 22.2816 22.4576 22.2642 22.4631 22.2478C22.4686 22.2313 22.4775 22.2163 22.4892 22.2035C22.501 22.1907 22.5152 22.1806 22.5311 22.1736C22.5469 22.1667 22.5641 22.1631 22.5814 22.1632H23.1465C23.1648 22.1614 23.1832 22.1637 23.2004 22.1699C23.2177 22.1761 23.2333 22.1861 23.2463 22.199C23.2592 22.212 23.2692 22.2277 23.2754 22.2449C23.2816 22.2622 23.2839 22.2806 23.2821 22.2988V27.4412C23.2821 28.3454 22.7961 28.854 21.9485 28.854C21.6885 28.854 21.4851 28.854 20.9087 28.5714L19.722 27.8933C19.578 27.8089 19.4585 27.6884 19.3753 27.5437C19.2921 27.399 19.248 27.2352 19.2473 27.0683V21.858C19.2468 21.6909 19.2904 21.5266 19.3738 21.3817C19.4571 21.2369 19.5773 21.1166 19.722 21.033L24.2428 18.4222C24.3871 18.3451 24.5482 18.3047 24.7118 18.3047C24.8755 18.3047 25.0366 18.3451 25.1809 18.4222L29.7017 21.0217C29.8481 21.1062 29.9693 21.2283 30.0527 21.3753C30.1362 21.5223 30.1789 21.689 30.1763 21.858V27.0569C30.1769 27.2228 30.1345 27.3859 30.0533 27.5305C29.9721 27.6751 29.8548 27.7962 29.713 27.882L25.1922 30.4928C25.0476 30.5751 24.8839 30.6179 24.7175 30.6171V30.6284Z" fill="#679E63"/>
<path d="M26.1076 27.0344C24.1297 27.0344 23.7115 26.1302 23.7115 25.3617C23.7115 25.3444 23.715 25.3272 23.722 25.3114C23.7289 25.2955 23.7391 25.2812 23.7519 25.2695C23.7646 25.2578 23.7797 25.2489 23.7961 25.2434C23.8125 25.2378 23.8299 25.2358 23.8472 25.2374H24.4349C24.466 25.2372 24.496 25.2488 24.519 25.2697C24.542 25.2906 24.5564 25.3194 24.5592 25.3504C24.6496 25.9381 24.9096 26.2432 26.1076 26.2432C27.0569 26.2432 27.4638 26.0172 27.4638 25.5199C27.4638 25.2261 27.3508 25.0113 25.8702 24.8644C24.627 24.7514 23.8698 24.4688 23.8698 23.4856C23.8698 22.5814 24.6383 22.0276 25.9267 22.0276C27.3734 22.0276 28.0854 22.5362 28.1871 23.6099C28.1899 23.631 28.1872 23.6525 28.1793 23.6723C28.1714 23.6921 28.1585 23.7095 28.1419 23.7229C28.117 23.7449 28.0848 23.757 28.0515 23.7568H27.4638C27.4327 23.7569 27.4027 23.7454 27.3797 23.7245C27.3566 23.7036 27.3423 23.6748 27.3395 23.6438C27.1926 23.0222 26.8535 22.83 25.9267 22.83C24.887 22.83 24.7626 23.1917 24.7626 23.463C24.7626 23.7907 24.9096 23.8811 26.311 24.0733C27.7125 24.2654 28.3567 24.514 28.3567 25.486C28.3567 26.458 27.5429 27.0344 26.0963 27.0344H26.1076ZM32.6175 21.5642C32.6175 21.7363 32.5665 21.9046 32.4708 22.0477C32.3752 22.1908 32.2393 22.3024 32.0803 22.3682C31.9213 22.4341 31.7463 22.4513 31.5775 22.4178C31.4087 22.3842 31.2536 22.3013 31.1319 22.1796C31.0102 22.0579 30.9273 21.9028 30.8937 21.734C30.8601 21.5652 30.8774 21.3902 30.9432 21.2312C31.0091 21.0722 31.1207 20.9363 31.2638 20.8406C31.4069 20.745 31.5751 20.694 31.7473 20.694C31.9781 20.694 32.1994 20.7857 32.3626 20.9489C32.5258 21.1121 32.6175 21.3334 32.6175 21.5642ZM31.0126 21.5642C31.0104 21.71 31.0516 21.8531 31.1309 21.9754C31.2103 22.0977 31.3242 22.1936 31.4582 22.2509C31.5922 22.3083 31.7403 22.3244 31.8835 22.2974C32.0268 22.2703 32.1587 22.2013 32.2626 22.099C32.3665 21.9967 32.4376 21.8659 32.4668 21.7231C32.4961 21.5802 32.4822 21.432 32.427 21.2971C32.3717 21.1622 32.2776 21.0468 32.1565 20.9655C32.0355 20.8843 31.893 20.8409 31.7473 20.8409C31.5544 20.8409 31.3692 20.9167 31.2318 21.0521C31.0943 21.1874 31.0156 21.3714 31.0126 21.5642ZM31.4195 21.0782H31.7586C31.8716 21.0782 32.0976 21.0782 32.0976 21.3382C32.1014 21.393 32.0852 21.4473 32.0519 21.4909C32.0187 21.5346 31.9706 21.5647 31.9168 21.5755C32.0411 21.5755 32.0524 21.6772 32.075 21.8016C32.0781 21.8899 32.0933 21.9774 32.1202 22.0615H31.9168L31.8829 21.7564C31.8716 21.6998 31.849 21.6659 31.7699 21.6659H31.6116V22.0615H31.4195V21.0782ZM31.6003 21.5077H31.7586C31.7773 21.5093 31.7962 21.5069 31.8139 21.5008C31.8317 21.4947 31.848 21.485 31.8619 21.4722C31.8757 21.4595 31.8867 21.444 31.8942 21.4267C31.9017 21.4095 31.9055 21.3909 31.9055 21.3721C31.9055 21.2365 31.8151 21.2365 31.7586 21.2365H31.6003V21.5077Z" fill="#679E63"/>
<path fill-rule="evenodd" clip-rule="evenodd" d="M10.7369 10.2283C10.736 10.1269 10.7084 10.0275 10.6568 9.94019C10.6052 9.85288 10.5315 9.78072 10.4431 9.73101L5.65103 6.97333C5.57093 6.93056 5.48186 6.90733 5.39108 6.90551H5.33457C5.24385 6.90775 5.15488 6.93096 5.07463 6.97333L0.293885 9.73101C0.203812 9.78166 0.129012 9.85559 0.0773156 9.94507C0.0256188 10.0345 -0.00107352 10.1363 3.30588e-05 10.2396V17.6537C0.000973109 17.7057 0.0162427 17.7564 0.0441603 17.8003C0.0720779 17.8442 0.111561 17.8795 0.158261 17.9024C0.201214 17.9272 0.249938 17.9402 0.299536 17.9402C0.349134 17.9402 0.397858 17.9272 0.440811 17.9024L3.28891 16.2749C3.3782 16.2233 3.45235 16.1492 3.50393 16.0599C3.55551 15.9706 3.5827 15.8694 3.58276 15.7663V12.3192C3.58252 12.2189 3.60845 12.1202 3.65801 12.033C3.70756 11.9458 3.77902 11.873 3.86531 11.8219L5.08593 11.1099C5.17171 11.0596 5.26905 11.0323 5.36848 11.0307C5.47182 11.0297 5.57346 11.0571 5.66233 11.1099L6.87164 11.8106C6.95794 11.8617 7.0294 11.9345 7.07895 12.0217C7.1285 12.1089 7.15444 12.2076 7.15419 12.3079V15.7663C7.15539 15.8705 7.18428 15.9725 7.23791 16.0619C7.29153 16.1513 7.36796 16.2248 7.45935 16.2749L10.2848 17.9024C10.3291 17.9293 10.3799 17.9436 10.4318 17.9436C10.4836 17.9436 10.5344 17.9293 10.5787 17.9024C10.6225 17.8771 10.6591 17.8409 10.6848 17.7973C10.7106 17.7538 10.7246 17.7043 10.7256 17.6537L10.7369 10.2283ZM33.7591 0.0339029C33.7144 0.0106287 33.6644 -0.000741731 33.614 0.000885477C33.5636 0.00251268 33.5144 0.0170828 33.4713 0.043194C33.4282 0.0693053 33.3925 0.106079 33.3677 0.149977C33.3428 0.193876 33.3297 0.243422 33.3296 0.293849V7.64014C33.3273 7.67584 33.3157 7.71031 33.2959 7.74008C33.276 7.76984 33.2487 7.79385 33.2166 7.80967C33.187 7.8255 33.154 7.83379 33.1205 7.83379C33.087 7.83379 33.054 7.8255 33.0245 7.80967L31.8264 7.12025C31.7402 7.07174 31.6429 7.04625 31.5439 7.04625C31.4449 7.04625 31.3476 7.07174 31.2613 7.12025L26.4467 9.88924C26.3596 9.9395 26.2875 10.0121 26.2379 10.0995C26.1882 10.1869 26.1627 10.286 26.1641 10.3865V15.9132C26.165 16.0146 26.1927 16.114 26.2443 16.2013C26.2959 16.2886 26.3696 16.3608 26.458 16.4105L31.2387 19.1795C31.3264 19.2301 31.4258 19.2567 31.5269 19.2567C31.6281 19.2567 31.7275 19.2301 31.8151 19.1795L36.6072 16.4105C36.6956 16.3608 36.7693 16.2886 36.8209 16.2013C36.8725 16.114 36.9001 16.0146 36.901 15.9132V2.12477C36.899 2.02223 36.8697 1.92208 36.816 1.83467C36.7624 1.74725 36.6864 1.67573 36.5959 1.62748L33.7591 0.0339029ZM33.307 14.0936C33.3071 14.1183 33.3009 14.1427 33.2891 14.1645C33.2772 14.1862 33.2601 14.2046 33.2392 14.2179L31.6004 15.1673C31.5781 15.1802 31.5527 15.187 31.5269 15.187C31.5012 15.187 31.4758 15.1802 31.4535 15.1673L29.8147 14.2179C29.7933 14.207 29.7748 14.191 29.761 14.1713C29.7472 14.1516 29.7385 14.1288 29.7356 14.1049V12.1948C29.7373 12.172 29.7443 12.1499 29.7561 12.1303C29.7679 12.1107 29.7841 12.0941 29.8034 12.0818L31.4535 11.1212C31.4758 11.1083 31.5012 11.1015 31.5269 11.1015C31.5527 11.1015 31.5781 11.1083 31.6004 11.1212L33.2392 12.0705C33.2622 12.0824 33.2816 12.1002 33.2955 12.1221C33.3094 12.1439 33.3172 12.169 33.3183 12.1948L33.307 14.0936ZM49.7062 12.1496C49.7946 12.0999 49.8683 12.0278 49.9199 11.9405C49.9715 11.8531 49.9991 11.7538 50 11.6524V10.3074C49.9991 10.206 49.9715 10.1066 49.9199 10.0193C49.8683 9.93199 49.7946 9.85984 49.7062 9.81013L44.9481 7.04114C44.8604 6.99055 44.761 6.96392 44.6599 6.96392C44.5587 6.96392 44.4593 6.99055 44.3717 7.04114L39.5796 9.81013C39.4925 9.86039 39.4204 9.93297 39.3708 10.0204C39.3211 10.1078 39.2957 10.2069 39.2971 10.3074V15.8454C39.298 15.9468 39.3256 16.0462 39.3772 16.1335C39.4288 16.2208 39.5025 16.293 39.5909 16.3427L44.3377 19.0552C44.424 19.1037 44.5213 19.1292 44.6203 19.1292C44.7193 19.1292 44.8166 19.1037 44.9028 19.0552L47.7849 17.4503C47.8294 17.4245 47.8665 17.3874 47.8922 17.3427C47.9179 17.2981 47.9315 17.2475 47.9315 17.196C47.9315 17.1445 47.9179 17.0938 47.8922 17.0492C47.8665 17.0046 47.8294 16.9675 47.7849 16.9417L42.9702 14.184C42.9264 14.1587 42.8898 14.1225 42.8641 14.079C42.8384 14.0354 42.8243 13.9859 42.8233 13.9354V12.2062C42.8231 12.1553 42.8367 12.1054 42.8626 12.0616C42.8884 12.0179 42.9256 11.9819 42.9702 11.9575L44.4734 11.0873C44.5163 11.0625 44.5651 11.0494 44.6146 11.0494C44.6642 11.0494 44.713 11.0625 44.7559 11.0873L46.2591 11.9575C46.3037 11.9819 46.3409 12.0179 46.3667 12.0616C46.3926 12.1054 46.4062 12.1553 46.406 12.2062V13.5624C46.4047 13.6132 46.4171 13.6634 46.4419 13.7077C46.4667 13.752 46.5029 13.7888 46.5469 13.8143C46.5909 13.8397 46.6409 13.8528 46.6916 13.8523C46.7424 13.8517 46.7921 13.8375 46.8355 13.811L49.7062 12.1496Z" fill="#333333"/>
<path fill-rule="evenodd" clip-rule="evenodd" d="M44.5863 11.8897C44.6035 11.8797 44.623 11.8745 44.6428 11.8745C44.6627 11.8745 44.6822 11.8797 44.6993 11.8897L45.6261 12.4208C45.6422 12.4301 45.6558 12.4432 45.6657 12.459C45.6755 12.4747 45.6813 12.4927 45.6826 12.5113V13.5736C45.6833 13.5941 45.6784 13.6144 45.6684 13.6323C45.6585 13.6503 45.6438 13.6651 45.6261 13.6754L44.7106 14.2066C44.6935 14.2165 44.674 14.2217 44.6541 14.2217C44.6343 14.2217 44.6148 14.2165 44.5976 14.2066L43.6709 13.6754C43.6552 13.6638 43.6428 13.6483 43.6349 13.6305C43.6269 13.6126 43.6238 13.5931 43.6256 13.5736V12.5113C43.6256 12.4937 43.6297 12.4764 43.6376 12.4607C43.6454 12.445 43.6568 12.4314 43.6709 12.4208L44.5863 11.8897Z" fill="#679E63"/>
<path fill-rule="evenodd" clip-rule="evenodd" d="M18.7387 7.0751C18.6528 7.0255 18.5553 6.99939 18.4561 6.99939C18.3569 6.99939 18.2595 7.0255 18.1736 7.0751L13.3928 9.83278C13.3058 9.88304 13.2337 9.95563 13.184 10.043C13.1343 10.1305 13.1089 10.2295 13.1103 10.3301V15.8228C13.1089 15.9234 13.1343 16.0224 13.184 16.1099C13.2337 16.1973 13.3058 16.2699 13.3928 16.3201L18.151 19.0665C18.2369 19.1161 18.3343 19.1422 18.4335 19.1422C18.5327 19.1422 18.6302 19.1161 18.7161 19.0665L23.4855 16.3201C23.5747 16.2713 23.6491 16.1994 23.7008 16.1119C23.7525 16.0243 23.7796 15.9245 23.7794 15.8228V10.3188C23.7796 10.2171 23.7525 10.1173 23.7008 10.0297C23.6491 9.94222 23.5747 9.87028 23.4855 9.82148L18.7387 7.0751Z" fill="url(#paint0_linear_35_257)"/>
<path d="M23.5082 9.83275L18.7388 7.07506C18.6927 7.04947 18.6432 7.03044 18.5918 7.01855L13.2234 16.1845C13.2688 16.2376 13.3222 16.2833 13.3816 16.3201L18.1737 19.0665C18.3075 19.1423 18.4658 19.1626 18.6144 19.123L23.6438 9.92317C23.603 9.88372 23.5575 9.84955 23.5082 9.82145V9.83275Z" fill="url(#paint1_linear_35_257)"/>
<path d="M18.0041 6.05786L17.9363 6.10307H18.0267L18.0041 6.05786Z" fill="url(#paint2_linear_35_257)"/>
<path d="M23.5082 16.32C23.5768 16.2813 23.637 16.2294 23.6855 16.1673C23.734 16.1053 23.7697 16.0342 23.7907 15.9584L18.5579 7.00718C18.4186 6.97988 18.274 7.00397 18.1511 7.07499L13.4155 9.81007L18.5353 19.1455C18.6114 19.1335 18.6844 19.1066 18.7501 19.0664L23.5082 16.32Z" fill="url(#paint3_linear_35_257)"/>
<path d="M23.9602 16.2296L23.9263 16.1731V16.2522L23.9602 16.2296Z" fill="url(#paint4_linear_35_257)"/>
<path d="M23.5082 16.3201L18.75 19.0665C18.6843 19.1067 18.6114 19.1336 18.5353 19.1456L18.6257 19.3151L23.9263 16.2523V16.1732L23.7907 15.9471C23.771 16.0251 23.7359 16.0983 23.6874 16.1624C23.6388 16.2264 23.5779 16.2801 23.5082 16.3201Z" fill="url(#paint5_linear_35_257)"/>
<path d="M23.5082 16.3201L18.75 19.0665C18.6843 19.1067 18.6114 19.1336 18.5353 19.1456L18.6257 19.3151L23.9263 16.2523V16.1732L23.7907 15.9471C23.771 16.0251 23.7359 16.0983 23.6874 16.1624C23.6388 16.2264 23.5779 16.2801 23.5082 16.3201Z" fill="url(#paint6_linear_35_257)"/>
</g>
<defs>
<linearGradient id="paint0_linear_35_257" x1="20.3888" y1="9.12076" x2="16.0827" y2="17.9024" gradientUnits="userSpaceOnUse">
<stop stop-color="#3F873F"/>
<stop offset="0.3" stop-color="#3F8B3D"/>
<stop offset="0.6" stop-color="#3E9637"/>
<stop offset="0.9" stop-color="#3DA92E"/>
<stop offset="1" stop-color="#3DAE2B"/>
</linearGradient>
<linearGradient id="paint1_linear_35_257" x1="17.7329" y1="13.7093" x2="29.8034" y2="4.79206" gradientUnits="userSpaceOnUse">
<stop offset="0.1" stop-color="#3F873F"/>
<stop offset="0.4" stop-color="#529F44"/>
<stop offset="0.7" stop-color="#63B649"/>
<stop offset="0.9" stop-color="#6ABF4B"/>
</linearGradient>
<linearGradient id="paint2_linear_35_257" x1="12.9521" y1="6.08047" x2="23.9602" y2="6.08047" gradientUnits="userSpaceOnUse">
<stop offset="0.1" stop-color="#6ABF4B"/>
<stop offset="0.3" stop-color="#63B649"/>
<stop offset="0.6" stop-color="#529F44"/>
<stop offset="0.9" stop-color="#3F873F"/>
</linearGradient>
<linearGradient id="paint3_linear_35_257" x1="1205.53" y1="1412.67" x2="2216.07" y2="1412.67" gradientUnits="userSpaceOnUse">
<stop offset="0.1" stop-color="#6ABF4B"/>
<stop offset="0.3" stop-color="#63B649"/>
<stop offset="0.6" stop-color="#529F44"/>
<stop offset="0.9" stop-color="#3F873F"/>
</linearGradient>
<linearGradient id="paint4_linear_35_257" x1="27.812" y1="27.5182" x2="31.1145" y2="27.5182" gradientUnits="userSpaceOnUse">
<stop offset="0.1" stop-color="#6ABF4B"/>
<stop offset="0.3" stop-color="#63B649"/>
<stop offset="0.6" stop-color="#529F44"/>
<stop offset="0.9" stop-color="#3F873F"/>
</linearGradient>
<linearGradient id="paint5_linear_35_257" x1="637.967" y1="541.354" x2="1163.05" y2="541.354" gradientUnits="userSpaceOnUse">
<stop offset="0.1" stop-color="#6ABF4B"/>
<stop offset="0.3" stop-color="#63B649"/>
<stop offset="0.6" stop-color="#529F44"/>
<stop offset="0.9" stop-color="#3F873F"/>
</linearGradient>
<linearGradient id="paint6_linear_35_257" x1="1239.61" y1="279.998" x2="1096.21" y2="748.225" gradientUnits="userSpaceOnUse">
<stop stop-color="#3F873F"/>
<stop offset="0.3" stop-color="#3F8B3D"/>
<stop offset="0.6" stop-color="#3E9637"/>
<stop offset="0.9" stop-color="#3DA92E"/>
<stop offset="1" stop-color="#3DAE2B"/>
</linearGradient>
<clipPath id="clip0_35_257">
<rect width="50" height="30.6171" fill="white"/>
</clipPath>
</defs>
</svg>
