<svg width="50" height="49" viewBox="0 0 50 49" fill="none" xmlns="http://www.w3.org/2000/svg">
<g clip-path="url(#clip0_442_9104)">
<path d="M8.85417 -1.13295e-05H41.1458C42.3089 -0.00110752 43.4607 0.227164 44.5355 0.671739C45.6102 1.11631 46.5867 1.76847 47.4091 2.59087C48.2315 3.41327 48.8837 4.38978 49.3283 5.46452C49.7728 6.53925 50.0011 7.6911 50 8.85416V39.8958C50.0011 41.0589 49.7728 42.2107 49.3283 43.2855C48.8837 44.3602 48.2315 45.3367 47.4091 46.1591C46.5867 46.9815 45.6102 47.6337 44.5355 48.0782C43.4607 48.5228 42.3089 48.7511 41.1458 48.75H8.85417C7.69112 48.7511 6.53926 48.5228 5.46453 48.0782C4.3898 47.6337 3.41329 46.9815 2.59088 46.1591C1.76848 45.3367 1.11633 44.3602 0.671755 43.2855C0.227179 42.2107 -0.00109226 41.0589 3.92933e-06 39.8958V8.85416C-0.00109226 7.6911 0.227179 6.53925 0.671755 5.46452C1.11633 4.38978 1.76848 3.41327 2.59088 2.59087C3.41329 1.76847 4.3898 1.11631 5.46453 0.671739C6.53926 0.227164 7.69112 -0.00110752 8.85417 -1.13295e-05V-1.13295e-05Z" fill="#001E36"/>
<path d="M11.25 34.1875V12.75C11.25 12.6042 11.3125 12.5208 11.4583 12.5208C11.8125 12.5208 12.1458 12.5208 12.625 12.5C13.1042 12.4792 13.6458 12.4792 14.2083 12.4583C14.7708 12.4375 15.375 12.4375 16.0208 12.4167C16.6667 12.3958 17.2917 12.3958 17.9167 12.3958C19.625 12.3958 21.0417 12.6042 22.2083 13.0417C23.2542 13.3968 24.2078 13.9804 25 14.75C25.6713 15.4235 26.19 16.2335 26.5208 17.125C26.8362 17.9932 26.9983 18.9096 27 19.8333C27 21.625 26.5833 23.1042 25.75 24.2708C24.9128 25.4359 23.7439 26.3216 22.3958 26.8125C20.9792 27.3333 19.4167 27.5208 17.7083 27.5208C17.2083 27.5208 16.875 27.5208 16.6667 27.5C16.4583 27.4792 16.1667 27.4792 15.7708 27.4792V34.1667C15.7755 34.2009 15.7732 34.2358 15.7641 34.2692C15.755 34.3026 15.7394 34.3338 15.718 34.361C15.6966 34.3882 15.67 34.4108 15.6397 34.4276C15.6094 34.4443 15.5761 34.4547 15.5417 34.4583H11.5C11.3333 34.4583 11.25 34.375 11.25 34.1875ZM15.7917 16.5417V23.5417C16.0833 23.5625 16.3542 23.5833 16.6042 23.5833H17.7083C18.5216 23.5843 19.3301 23.4578 20.1042 23.2083C20.7683 23.013 21.3617 22.6295 21.8125 22.1042C22.25 21.5833 22.4583 20.875 22.4583 19.9583C22.4779 19.3073 22.3117 18.6642 21.9792 18.1042C21.6318 17.5632 21.1209 17.1472 20.5208 16.9167C19.7387 16.6103 18.9019 16.4685 18.0625 16.5C17.5208 16.5 17.0417 16.5 16.6458 16.5208C16.3611 16.5022 16.0752 16.5092 15.7917 16.5417V16.5417Z" fill="#31A8FF"/>
<path d="M40 22.2708C39.371 21.9395 38.6973 21.7009 38 21.5625C37.2341 21.3891 36.4519 21.2983 35.6667 21.2917C35.245 21.2771 34.8236 21.3263 34.4167 21.4375C34.1572 21.4915 33.927 21.64 33.7708 21.8542C33.6656 22.0232 33.608 22.2176 33.6042 22.4167C33.6139 22.6149 33.6869 22.8047 33.8125 22.9583C34.01 23.1899 34.2505 23.381 34.5208 23.5208C35 23.7708 35.5 24 36 24.2083C37.1256 24.5873 38.2025 25.0977 39.2083 25.7292C39.8925 26.1594 40.4583 26.7538 40.8542 27.4583C41.189 28.123 41.3536 28.8603 41.3333 29.6042C41.3502 30.5889 41.0668 31.5554 40.5208 32.375C39.9397 33.2066 39.1289 33.851 38.1875 34.2292C37.1667 34.6667 35.9167 34.8958 34.4167 34.8958C33.4656 34.8997 32.5165 34.8089 31.5833 34.625C30.8486 34.498 30.134 34.2738 29.4583 33.9583C29.3857 33.9219 29.3253 33.865 29.2846 33.7947C29.2439 33.7243 29.2246 33.6436 29.2292 33.5625V29.9375C29.2274 29.9019 29.234 29.8664 29.2485 29.8338C29.2629 29.8012 29.2849 29.7725 29.3125 29.75C29.3419 29.7329 29.3759 29.7257 29.4097 29.7294C29.4435 29.7332 29.4751 29.7477 29.5 29.7708C30.3025 30.2439 31.1742 30.5884 32.0833 30.7917C32.886 31.0005 33.7122 31.1056 34.5417 31.1042C35.3333 31.1042 35.8958 31 36.2708 30.8125C36.4381 30.7352 36.5799 30.6119 36.6795 30.4569C36.7791 30.3019 36.8325 30.1217 36.8333 29.9375C36.8333 29.6458 36.6667 29.375 36.3333 29.1042C36 28.8333 35.3125 28.5208 34.2917 28.125C33.2444 27.756 32.2499 27.2517 31.3333 26.625C30.6805 26.1597 30.1396 25.5548 29.75 24.8542C29.4175 24.1962 29.2529 23.4662 29.2708 22.7292C29.2739 21.8402 29.5188 20.9688 29.9792 20.2083C30.5084 19.372 31.268 18.7064 32.1667 18.2917C33.1458 17.7917 34.375 17.5625 35.8542 17.5625C36.7187 17.5627 37.582 17.6254 38.4375 17.75C39.0526 17.8332 39.6546 17.9942 40.2292 18.2292C40.3207 18.2616 40.3956 18.329 40.4375 18.4167C40.4615 18.498 40.4755 18.5819 40.4792 18.6667V22.0625C40.4795 22.103 40.4702 22.143 40.4521 22.1792C40.434 22.2154 40.4076 22.2468 40.375 22.2708C40.2538 22.3144 40.1212 22.3144 40 22.2708Z" fill="#31A8FF"/>
</g>
<defs>
<clipPath id="clip0_442_9104">
<rect width="50" height="48.75" fill="white"/>
</clipPath>
</defs>
</svg>
