<svg width="50" height="46" viewBox="0 0 50 46" fill="none" xmlns="http://www.w3.org/2000/svg">
<path fill-rule="evenodd" clip-rule="evenodd" d="M10.1262 16.1342L25 45.2464L0 16.1342H10.1262Z" fill="#EA6C00"/>
<path fill-rule="evenodd" clip-rule="evenodd" d="M39.8738 16.1342L25 45.2464L50 16.1342H39.8738Z" fill="#EA6C00"/>
<path fill-rule="evenodd" clip-rule="evenodd" d="M10.1262 16.1342H39.8737L25 45.2464L10.1262 16.1342Z" fill="#FDAD00"/>
<path fill-rule="evenodd" clip-rule="evenodd" d="M25 0L10.909 1.48968L10.1262 16.1342L25 0Z" fill="#FDD231"/>
<path fill-rule="evenodd" clip-rule="evenodd" d="M24.9999 0L39.0909 1.48968L39.8737 16.1342L24.9999 0Z" fill="#FDD231"/>
<path fill-rule="evenodd" clip-rule="evenodd" d="M50 16.1342L39.0908 1.48968L39.8738 16.1342H50Z" fill="#FDAD00"/>
<path fill-rule="evenodd" clip-rule="evenodd" d="M0 16.1342L10.909 1.48968L10.1262 16.1342H0Z" fill="#FDAD00"/>
<path fill-rule="evenodd" clip-rule="evenodd" d="M25 0L10.1262 16.1342H39.8737L25 0Z" fill="#FEEEB7"/>
</svg>
