<svg width="50" height="50" viewBox="0 0 50 50" fill="none" xmlns="http://www.w3.org/2000/svg">
<mask id="mask0_443_9082" style="mask-type:alpha" maskUnits="userSpaceOnUse" x="0" y="0" width="50" height="50">
<path fill-rule="evenodd" clip-rule="evenodd" d="M35.4559 49.6586C36.2434 49.9653 37.1414 49.9457 37.9362 49.5632L48.2304 44.6099C49.3121 44.0894 50 42.9946 50 41.7936V8.20666C50 7.00564 49.3121 5.9109 48.2304 5.39039L37.9362 0.436878C36.8931 -0.0650647 35.6723 0.0578798 34.7568 0.723473C34.626 0.818554 34.5014 0.924714 34.3845 1.04171L14.6775 19.0207L6.09359 12.5048C5.29452 11.8983 4.17682 11.948 3.43466 12.623L0.681515 15.1274C-0.226276 15.9532 -0.227317 17.3814 0.679267 18.2085L8.12356 25L0.679267 31.7916C-0.227317 32.6187 -0.226276 34.0469 0.681515 34.8726L3.43466 37.377C4.17682 38.0521 5.29452 38.1018 6.09359 37.4953L14.6775 30.9794L34.3845 48.9584C34.6962 49.2703 35.0623 49.5052 35.4559 49.6586ZM37.5076 13.6495L22.5546 25L37.5076 36.3506V13.6495Z" fill="white"/>
</mask>
<g mask="url(#mask0_443_9082)">
<g filter="url(#filter0_d_443_9082)">
<path d="M48.2305 5.39816L37.9283 0.437832C36.7358 -0.136325 35.3107 0.105867 34.3749 1.04173L0.649162 31.7916C-0.257973 32.6187 -0.25693 34.0469 0.651412 34.8727L3.40623 37.3771C4.14884 38.0522 5.26722 38.1019 6.06678 37.4953L46.6803 6.685C48.0428 5.65136 49.9999 6.62316 49.9999 8.33339V8.21379C49.9999 7.01331 49.3122 5.91895 48.2305 5.39816Z" fill="#0065A9"/>
</g>
<g filter="url(#filter1_d_443_9082)">
<path d="M48.2305 44.6019L37.9283 49.5623C36.7358 50.1364 35.3107 49.8942 34.3749 48.9584L0.649162 18.2084C-0.257973 17.3814 -0.25693 15.9532 0.651412 15.1274L3.40623 12.623C4.14884 11.9479 5.26722 11.8982 6.06678 12.5048L46.6803 43.3151C48.0428 44.3487 49.9999 43.3769 49.9999 41.6667V41.7863C49.9999 42.9868 49.3122 44.0811 48.2305 44.6019Z" fill="#007ACC"/>
</g>
<g filter="url(#filter2_d_443_9082)">
<path d="M37.9289 49.5632C36.736 50.1369 35.3109 49.8943 34.375 48.9584C35.5282 50.1116 37.5 49.2948 37.5 47.664V2.33613C37.5 0.705254 35.5282 -0.111492 34.375 1.04171C35.3109 0.105762 36.736 -0.136772 37.9289 0.436878L48.2294 5.39039C49.3117 5.9109 50 7.00565 50 8.20666V41.7936C50 42.9946 49.3117 44.0894 48.2293 44.6099L37.9289 49.5632Z" fill="#1F9CF0"/>
</g>
<g style="mix-blend-mode:overlay" opacity="0.25">
<path fill-rule="evenodd" clip-rule="evenodd" d="M35.4254 49.6586C36.2129 49.9653 37.1109 49.9457 37.9057 49.5632L48.1999 44.6099C49.2816 44.0894 49.9695 42.9946 49.9695 41.7936V8.20666C49.9695 7.00564 49.2816 5.9109 48.1999 5.39039L37.9057 0.436878C36.8626 -0.0650647 35.6418 0.0578798 34.7262 0.723473C34.5955 0.818554 34.4709 0.924714 34.354 1.04171L14.647 19.0207L6.06307 12.5048C5.264 11.8983 4.1463 11.948 3.40415 12.623L0.650997 15.1274C-0.256794 15.9532 -0.257834 17.3814 0.64875 18.2085L8.09304 25L0.64875 31.7916C-0.257834 32.6187 -0.256794 34.0469 0.650997 34.8727L3.40415 37.377C4.1463 38.0521 5.264 38.1018 6.06307 37.4953L14.647 30.9794L34.354 48.9584C34.6657 49.2703 35.0318 49.5052 35.4254 49.6586ZM37.4771 13.6495L22.524 25L37.4771 36.3506V13.6495Z" fill="url(#paint0_linear_443_9082)"/>
</g>
</g>
<defs>
<filter id="filter0_d_443_9082" x="-4.44718" y="0.12941" width="58.8637" height="46.6228" filterUnits="userSpaceOnUse" color-interpolation-filters="sRGB">
<feFlood flood-opacity="0" result="BackgroundImageFix"/>
<feColorMatrix in="SourceAlpha" type="matrix" values="0 0 0 0 0 0 0 0 0 0 0 0 0 0 0 0 0 0 127 0" result="hardAlpha"/>
<feOffset dy="4.41667"/>
<feGaussianBlur stdDeviation="2.20833"/>
<feColorMatrix type="matrix" values="0 0 0 0 0 0 0 0 0 0 0 0 0 0 0 0 0 0 0.25 0"/>
<feBlend mode="normal" in2="BackgroundImageFix" result="effect1_dropShadow_443_9082"/>
<feBlend mode="normal" in="SourceGraphic" in2="effect1_dropShadow_443_9082" result="shape"/>
</filter>
<filter id="filter1_d_443_9082" x="-8.86385" y="3.24789" width="67.6971" height="55.4561" filterUnits="userSpaceOnUse" color-interpolation-filters="sRGB">
<feFlood flood-opacity="0" result="BackgroundImageFix"/>
<feColorMatrix in="SourceAlpha" type="matrix" values="0 0 0 0 0 0 0 0 0 0 0 0 0 0 0 0 0 0 127 0" result="hardAlpha"/>
<feOffset/>
<feGaussianBlur stdDeviation="4.41667"/>
<feColorMatrix type="matrix" values="0 0 0 0 0 0 0 0 0 0 0 0 0 0 0 0 0 0 0.25 0"/>
<feBlend mode="overlay" in2="BackgroundImageFix" result="effect1_dropShadow_443_9082"/>
<feBlend mode="normal" in="SourceGraphic" in2="effect1_dropShadow_443_9082" result="shape"/>
</filter>
<filter id="filter2_d_443_9082" x="25.5417" y="-8.7044" width="33.2917" height="67.4089" filterUnits="userSpaceOnUse" color-interpolation-filters="sRGB">
<feFlood flood-opacity="0" result="BackgroundImageFix"/>
<feColorMatrix in="SourceAlpha" type="matrix" values="0 0 0 0 0 0 0 0 0 0 0 0 0 0 0 0 0 0 127 0" result="hardAlpha"/>
<feOffset/>
<feGaussianBlur stdDeviation="4.41667"/>
<feColorMatrix type="matrix" values="0 0 0 0 0 0 0 0 0 0 0 0 0 0 0 0 0 0 0.25 0"/>
<feBlend mode="overlay" in2="BackgroundImageFix" result="effect1_dropShadow_443_9082"/>
<feBlend mode="normal" in="SourceGraphic" in2="effect1_dropShadow_443_9082" result="shape"/>
</filter>
<linearGradient id="paint0_linear_443_9082" x1="24.9695" y1="0.128937" x2="24.9695" y2="49.8712" gradientUnits="userSpaceOnUse">
<stop stop-color="white"/>
<stop offset="1" stop-color="white" stop-opacity="0"/>
</linearGradient>
</defs>
</svg>
