<svg width="717" height="659" viewBox="0 0 717 659" fill="none" xmlns="http://www.w3.org/2000/svg">
<circle cx="196.12" cy="491.449" r="118.05" transform="rotate(-132.182 196.12 491.449)" fill="#C4D2FA"/>
<circle opacity="0.9" cx="281.32" cy="281.32" r="199.164" transform="rotate(-132.182 281.32 281.32)" fill="#CFDBFA"/>
<line y1="-2" x2="173.774" y2="-2" transform="matrix(0.390181 0.920738 -0.845206 0.534441 174.958 201)" stroke="#BAA592" stroke-width="4"/>
<line y1="-2" x2="172.593" y2="-2" transform="matrix(0.37524 -0.926928 0.856315 0.516453 244.348 360.981)" stroke="#BAA592" stroke-width="4"/>
<line y1="-2" x2="173.774" y2="-2" transform="matrix(0.390181 0.920738 -0.845206 0.534441 252.058 201)" stroke="#BAA592" stroke-width="4"/>
<line y1="-2" x2="172.593" y2="-2" transform="matrix(0.37524 -0.926928 0.856315 0.516453 321.448 360.981)" stroke="#BAA592" stroke-width="4"/>
<line x1="251.777" y1="199" x2="309.392" y2="199" stroke="#BAA592" stroke-width="4"/>
<path d="M226.812 297.289H229.742C229.648 298.406 229.335 299.402 228.804 300.277C228.273 301.145 227.527 301.828 226.566 302.328C225.605 302.828 224.437 303.078 223.062 303.078C222.007 303.078 221.058 302.891 220.214 302.516C219.37 302.133 218.648 301.594 218.046 300.898C217.445 300.195 216.984 299.348 216.663 298.355C216.351 297.363 216.195 296.254 216.195 295.027V293.609C216.195 292.383 216.355 291.273 216.675 290.281C217.003 289.289 217.472 288.441 218.081 287.738C218.691 287.027 219.421 286.484 220.273 286.109C221.132 285.734 222.097 285.547 223.167 285.547C224.527 285.547 225.675 285.797 226.613 286.297C227.55 286.797 228.277 287.488 228.792 288.371C229.316 289.254 229.636 290.266 229.753 291.406H226.824C226.745 290.672 226.574 290.043 226.308 289.52C226.05 288.996 225.667 288.598 225.159 288.324C224.652 288.043 223.988 287.902 223.167 287.902C222.495 287.902 221.909 288.027 221.409 288.277C220.909 288.527 220.492 288.895 220.156 289.379C219.82 289.863 219.566 290.461 219.394 291.172C219.23 291.875 219.148 292.68 219.148 293.586V295.027C219.148 295.887 219.222 296.668 219.37 297.371C219.527 298.066 219.761 298.664 220.074 299.164C220.394 299.664 220.8 300.051 221.292 300.324C221.784 300.598 222.374 300.734 223.062 300.734C223.898 300.734 224.574 300.602 225.089 300.336C225.613 300.07 226.007 299.684 226.273 299.176C226.546 298.66 226.726 298.031 226.812 297.289ZM239.058 288.055L233.96 302.844H230.878L237.3 285.781H239.269L239.058 288.055ZM243.324 302.844L238.214 288.055L237.992 285.781H239.972L246.417 302.844H243.324ZM243.077 296.516V298.848H233.796V296.516H243.077ZM248.327 285.781H254.363C255.659 285.781 256.765 285.977 257.679 286.367C258.593 286.758 259.292 287.336 259.777 288.102C260.269 288.859 260.515 289.797 260.515 290.914C260.515 291.766 260.359 292.516 260.046 293.164C259.734 293.812 259.292 294.359 258.722 294.805C258.152 295.242 257.472 295.582 256.683 295.824L255.792 296.258H250.367L250.343 293.926H254.409C255.113 293.926 255.699 293.801 256.167 293.551C256.636 293.301 256.988 292.961 257.222 292.531C257.464 292.094 257.585 291.602 257.585 291.055C257.585 290.461 257.468 289.945 257.234 289.508C257.007 289.062 256.656 288.723 256.179 288.488C255.702 288.246 255.097 288.125 254.363 288.125H251.269V302.844H248.327V285.781ZM258.066 302.844L254.058 295.18L257.14 295.168L261.206 302.691V302.844H258.066ZM263.445 285.781H269.48C270.777 285.781 271.882 285.977 272.796 286.367C273.71 286.758 274.409 287.336 274.894 288.102C275.386 288.859 275.632 289.797 275.632 290.914C275.632 291.766 275.476 292.516 275.163 293.164C274.851 293.812 274.409 294.359 273.839 294.805C273.269 295.242 272.589 295.582 271.8 295.824L270.909 296.258H265.484L265.46 293.926H269.527C270.23 293.926 270.816 293.801 271.284 293.551C271.753 293.301 272.105 292.961 272.339 292.531C272.581 292.094 272.702 291.602 272.702 291.055C272.702 290.461 272.585 289.945 272.351 289.508C272.124 289.062 271.773 288.723 271.296 288.488C270.82 288.246 270.214 288.125 269.48 288.125H266.386V302.844H263.445V285.781ZM273.183 302.844L269.175 295.18L272.257 295.168L276.324 302.691V302.844H273.183ZM281.702 285.781V302.844H278.761V285.781H281.702ZM291.757 295.133H287.409L287.386 292.988H291.183C291.824 292.988 292.367 292.895 292.812 292.707C293.265 292.512 293.609 292.234 293.843 291.875C294.077 291.508 294.195 291.066 294.195 290.551C294.195 289.98 294.085 289.516 293.867 289.156C293.648 288.797 293.312 288.535 292.859 288.371C292.413 288.207 291.843 288.125 291.148 288.125H288.3V302.844H285.359V285.781H291.148C292.085 285.781 292.921 285.871 293.656 286.051C294.398 286.23 295.027 286.512 295.542 286.895C296.066 287.27 296.46 287.746 296.726 288.324C296.999 288.902 297.136 289.59 297.136 290.387C297.136 291.09 296.968 291.734 296.632 292.32C296.296 292.898 295.8 293.371 295.144 293.738C294.488 294.105 293.671 294.324 292.695 294.395L291.757 295.133ZM291.628 302.844H286.484L287.808 300.512H291.628C292.292 300.512 292.847 300.402 293.292 300.184C293.738 299.957 294.07 299.648 294.288 299.258C294.515 298.859 294.628 298.395 294.628 297.863C294.628 297.309 294.531 296.828 294.335 296.422C294.14 296.008 293.831 295.691 293.409 295.473C292.988 295.246 292.437 295.133 291.757 295.133H288.452L288.476 292.988H292.777L293.445 293.797C294.382 293.828 295.152 294.035 295.753 294.418C296.363 294.801 296.816 295.297 297.113 295.906C297.409 296.516 297.558 297.172 297.558 297.875C297.558 298.961 297.32 299.871 296.843 300.605C296.374 301.34 295.699 301.898 294.816 302.281C293.933 302.656 292.87 302.844 291.628 302.844ZM311.691 300.512V302.844H302.632V300.512H311.691ZM303.464 285.781V302.844H300.523V285.781H303.464ZM310.507 292.906V295.203H302.632V292.906H310.507ZM311.632 285.781V288.125H302.632V285.781H311.632ZM320.738 288.055L315.64 302.844H312.558L318.98 285.781H320.949L320.738 288.055ZM325.003 302.844L319.894 288.055L319.671 285.781H321.652L328.097 302.844H325.003ZM324.757 296.516V298.848H315.476V296.516H324.757ZM343.542 285.781V302.844H340.601L332.949 290.621V302.844H330.007V285.781H332.949L340.624 298.027V285.781H343.542Z" fill="white"/>
<path d="M125.517 255.199L130.615 235.354H133.287L132.988 240.469L127.539 260.947H124.761L125.517 255.199ZM121.703 235.354L125.834 255.041L126.203 260.947H123.25L117.326 235.354H121.703ZM139.07 254.988L143.148 235.354H147.543L141.619 260.947H138.666L139.07 254.988ZM134.324 235.354L139.369 255.252L140.107 260.947H137.33L131.968 240.469L131.687 235.354H134.324ZM167.564 257.449V260.947H153.976V257.449H167.564ZM155.224 235.354V260.947H150.812V235.354H155.224ZM165.789 246.041V249.486H153.976V246.041H165.789ZM167.476 235.354V238.869H153.976V235.354H167.476ZM184.632 254.355C184.632 253.828 184.55 253.359 184.386 252.949C184.234 252.539 183.959 252.164 183.56 251.824C183.162 251.484 182.599 251.156 181.873 250.84C181.158 250.512 180.244 250.178 179.13 249.838C177.912 249.463 176.787 249.047 175.755 248.59C174.736 248.121 173.845 247.582 173.084 246.973C172.322 246.352 171.73 245.643 171.308 244.846C170.886 244.037 170.675 243.105 170.675 242.051C170.675 241.008 170.892 240.059 171.326 239.203C171.771 238.348 172.398 237.609 173.207 236.988C174.027 236.355 174.994 235.869 176.107 235.529C177.22 235.178 178.451 235.002 179.798 235.002C181.697 235.002 183.332 235.354 184.703 236.057C186.086 236.76 187.146 237.703 187.884 238.887C188.634 240.07 189.009 241.377 189.009 242.807H184.632C184.632 241.963 184.451 241.219 184.088 240.574C183.736 239.918 183.197 239.402 182.47 239.027C181.755 238.652 180.847 238.465 179.746 238.465C178.703 238.465 177.836 238.623 177.144 238.939C176.453 239.256 175.937 239.684 175.597 240.223C175.257 240.762 175.088 241.371 175.088 242.051C175.088 242.531 175.199 242.971 175.421 243.369C175.644 243.756 175.984 244.119 176.441 244.459C176.898 244.787 177.472 245.098 178.164 245.391C178.855 245.684 179.67 245.965 180.607 246.234C182.025 246.656 183.261 247.125 184.316 247.641C185.371 248.145 186.25 248.719 186.953 249.363C187.656 250.008 188.183 250.74 188.535 251.561C188.886 252.369 189.062 253.289 189.062 254.32C189.062 255.398 188.845 256.371 188.412 257.238C187.978 258.094 187.357 258.826 186.548 259.436C185.752 260.033 184.791 260.496 183.666 260.824C182.552 261.141 181.31 261.299 179.939 261.299C178.709 261.299 177.496 261.135 176.3 260.807C175.117 260.479 174.039 259.98 173.066 259.312C172.093 258.633 171.32 257.789 170.746 256.781C170.171 255.762 169.884 254.572 169.884 253.213H174.296C174.296 254.045 174.437 254.754 174.718 255.34C175.011 255.926 175.416 256.406 175.931 256.781C176.447 257.145 177.045 257.414 177.724 257.59C178.416 257.766 179.154 257.854 179.939 257.854C180.97 257.854 181.832 257.707 182.523 257.414C183.226 257.121 183.754 256.711 184.105 256.184C184.457 255.656 184.632 255.047 184.632 254.355ZM203.494 235.354V260.947H199.117V235.354H203.494ZM211.527 235.354V238.869H191.154V235.354H211.527ZM232.744 251.402H226.082V247.904H232.744C233.904 247.904 234.841 247.717 235.556 247.342C236.271 246.967 236.793 246.451 237.121 245.795C237.461 245.127 237.63 244.365 237.63 243.51C237.63 242.701 237.461 241.945 237.121 241.242C236.793 240.527 236.271 239.953 235.556 239.52C234.841 239.086 233.904 238.869 232.744 238.869H227.435V260.947H223.023V235.354H232.744C234.724 235.354 236.406 235.705 237.789 236.408C239.183 237.1 240.244 238.061 240.97 239.291C241.697 240.51 242.06 241.904 242.06 243.475C242.06 245.127 241.697 246.545 240.97 247.729C240.244 248.912 239.183 249.82 237.789 250.453C236.406 251.086 234.724 251.402 232.744 251.402ZM266.423 247.447V248.854C266.423 250.787 266.171 252.521 265.668 254.057C265.164 255.592 264.443 256.898 263.505 257.977C262.58 259.055 261.466 259.881 260.166 260.455C258.865 261.018 257.423 261.299 255.841 261.299C254.271 261.299 252.836 261.018 251.535 260.455C250.246 259.881 249.127 259.055 248.177 257.977C247.228 256.898 246.49 255.592 245.963 254.057C245.447 252.521 245.189 250.787 245.189 248.854V247.447C245.189 245.514 245.447 243.785 245.963 242.262C246.478 240.727 247.205 239.42 248.142 238.342C249.091 237.252 250.211 236.426 251.5 235.863C252.8 235.289 254.236 235.002 255.806 235.002C257.388 235.002 258.83 235.289 260.13 235.863C261.431 236.426 262.55 237.252 263.488 238.342C264.425 239.42 265.146 240.727 265.65 242.262C266.166 243.785 266.423 245.514 266.423 247.447ZM262.011 248.854V247.412C262.011 245.982 261.871 244.723 261.589 243.633C261.32 242.531 260.916 241.611 260.377 240.873C259.849 240.123 259.199 239.561 258.425 239.186C257.652 238.799 256.779 238.605 255.806 238.605C254.834 238.605 253.966 238.799 253.205 239.186C252.443 239.561 251.793 240.123 251.254 240.873C250.726 241.611 250.322 242.531 250.041 243.633C249.759 244.723 249.619 245.982 249.619 247.412V248.854C249.619 250.283 249.759 251.549 250.041 252.65C250.322 253.752 250.732 254.684 251.271 255.445C251.822 256.195 252.478 256.764 253.24 257.15C254.002 257.525 254.869 257.713 255.841 257.713C256.826 257.713 257.699 257.525 258.461 257.15C259.222 256.764 259.867 256.195 260.394 255.445C260.921 254.684 261.32 253.752 261.589 252.65C261.871 251.549 262.011 250.283 262.011 248.854ZM275.546 235.354V260.947H271.134V235.354H275.546ZM301.334 235.354V260.947H296.921L285.443 242.613V260.947H281.031V235.354H285.443L296.957 253.723V235.354H301.334ZM316.591 235.354V260.947H312.214V235.354H316.591ZM324.625 235.354V238.869H304.252V235.354H324.625ZM353.031 246.041V249.539H339.443V246.041H353.031ZM340.533 235.354V260.947H336.121V235.354H340.533ZM356.423 235.354V260.947H352.029V235.354H356.423ZM382.088 247.447V248.854C382.088 250.787 381.836 252.521 381.332 254.057C380.828 255.592 380.107 256.898 379.17 257.977C378.244 259.055 377.13 259.881 375.83 260.455C374.529 261.018 373.088 261.299 371.505 261.299C369.935 261.299 368.5 261.018 367.199 260.455C365.91 259.881 364.791 259.055 363.841 257.977C362.892 256.898 362.154 255.592 361.627 254.057C361.111 252.521 360.853 250.787 360.853 248.854V247.447C360.853 245.514 361.111 243.785 361.627 242.262C362.142 240.727 362.869 239.42 363.806 238.342C364.755 237.252 365.875 236.426 367.164 235.863C368.464 235.289 369.9 235.002 371.47 235.002C373.052 235.002 374.494 235.289 375.795 235.863C377.095 236.426 378.214 237.252 379.152 238.342C380.089 239.42 380.81 240.727 381.314 242.262C381.83 243.785 382.088 245.514 382.088 247.447ZM377.675 248.854V247.412C377.675 245.982 377.535 244.723 377.254 243.633C376.984 242.531 376.58 241.611 376.041 240.873C375.513 240.123 374.863 239.561 374.089 239.186C373.316 238.799 372.443 238.605 371.47 238.605C370.498 238.605 369.63 238.799 368.869 239.186C368.107 239.561 367.457 240.123 366.918 240.873C366.39 241.611 365.986 242.531 365.705 243.633C365.423 244.723 365.283 245.982 365.283 247.412V248.854C365.283 250.283 365.423 251.549 365.705 252.65C365.986 253.752 366.396 254.684 366.935 255.445C367.486 256.195 368.142 256.764 368.904 257.15C369.666 257.525 370.533 257.713 371.505 257.713C372.49 257.713 373.363 257.525 374.125 257.15C374.886 256.764 375.531 256.195 376.058 255.445C376.586 254.684 376.984 253.752 377.254 252.65C377.535 251.549 377.675 250.283 377.675 248.854ZM396.15 235.354V260.947H391.773V235.354H396.15ZM404.183 235.354V238.869H383.81V235.354H404.183ZM424.31 257.449V260.947H410.722V257.449H424.31ZM411.97 235.354V260.947H407.558V235.354H411.97ZM422.535 246.041V249.486H410.722V246.041H422.535ZM424.222 235.354V238.869H410.722V235.354H424.222ZM443.945 257.449V260.947H431.095V257.449H443.945ZM432.326 235.354V260.947H427.914V235.354H432.326Z" fill="white"/>
<circle opacity="0.6" cx="523.448" cy="310.157" r="136.88" transform="rotate(-132.182 523.448 310.157)" fill="#E3EAFA"/>
</svg>
