<svg width="559" height="409" viewBox="0 0 559 409" fill="none" xmlns="http://www.w3.org/2000/svg">
<circle opacity="0.6" cx="408.181" cy="150.181" r="106.322" transform="rotate(-132.182 408.181 150.181)" fill="#E3EAFA"/>
<circle cx="110.102" cy="289.102" r="77.9485" transform="rotate(-132.182 110.102 289.102)" fill="#C4D2FA"/>
<circle opacity="0.9" cx="260.591" cy="257.504" r="150.504" transform="rotate(-90 260.591 257.504)" fill="#CFDBFA"/>
<line y1="-1.65486" x2="143.786" y2="-1.65486" transform="matrix(0.390181 0.920738 -0.845206 0.534441 170.566 206)" stroke="#BAA592" stroke-width="3.30972"/>
<line y1="-1.65486" x2="142.809" y2="-1.65486" transform="matrix(0.37524 -0.926928 0.856315 0.516453 227.981 338.374)" stroke="#BAA592" stroke-width="3.30972"/>
<line y1="-1.65486" x2="143.786" y2="-1.65486" transform="matrix(0.390181 0.920738 -0.845206 0.534441 234.361 206)" stroke="#BAA592" stroke-width="3.30972"/>
<line y1="-1.65486" x2="142.809" y2="-1.65486" transform="matrix(0.37524 -0.926928 0.856315 0.516453 291.776 338.374)" stroke="#BAA592" stroke-width="3.30972"/>
<line x1="234.129" y1="204.345" x2="281.801" y2="204.345" stroke="#BAA592" stroke-width="3.30972"/>
<path d="M213.472 285.469H215.896C215.819 286.393 215.56 287.218 215.121 287.942C214.681 288.659 214.064 289.225 213.269 289.638C212.473 290.052 211.507 290.259 210.369 290.259C209.497 290.259 208.711 290.104 208.013 289.794C207.315 289.477 206.717 289.031 206.219 288.455C205.722 287.874 205.34 287.172 205.075 286.351C204.817 285.53 204.687 284.612 204.687 283.598V282.424C204.687 281.409 204.82 280.491 205.085 279.67C205.356 278.85 205.744 278.148 206.248 277.566C206.753 276.978 207.357 276.529 208.062 276.219C208.773 275.908 209.571 275.753 210.457 275.753C211.581 275.753 212.532 275.96 213.307 276.374C214.083 276.787 214.684 277.359 215.111 278.09C215.544 278.82 215.809 279.658 215.906 280.601H213.482C213.417 279.994 213.275 279.473 213.055 279.04C212.842 278.607 212.525 278.277 212.105 278.051C211.685 277.818 211.135 277.702 210.457 277.702C209.901 277.702 209.416 277.806 209.002 278.012C208.588 278.219 208.243 278.523 207.965 278.924C207.687 279.325 207.477 279.819 207.334 280.407C207.199 280.989 207.131 281.655 207.131 282.405V283.598C207.131 284.309 207.192 284.955 207.315 285.537C207.444 286.112 207.638 286.607 207.897 287.02C208.162 287.434 208.498 287.754 208.905 287.98C209.312 288.207 209.801 288.32 210.369 288.32C211.061 288.32 211.62 288.21 212.047 287.99C212.48 287.77 212.806 287.45 213.026 287.03C213.252 286.603 213.401 286.083 213.472 285.469ZM223.605 277.828L219.387 290.065H216.837L222.151 275.947H223.78L223.605 277.828ZM227.135 290.065L222.907 277.828L222.723 275.947H224.361L229.694 290.065H227.135ZM226.931 284.829V286.759H219.251V284.829H226.931ZM231.275 275.947H236.269C237.342 275.947 238.256 276.109 239.013 276.432C239.769 276.755 240.348 277.233 240.748 277.867C241.156 278.494 241.359 279.27 241.359 280.194C241.359 280.899 241.23 281.519 240.971 282.056C240.713 282.592 240.348 283.045 239.876 283.413C239.404 283.775 238.841 284.056 238.188 284.257L237.452 284.616H232.962L232.943 282.686H236.307C236.889 282.686 237.374 282.583 237.762 282.376C238.15 282.169 238.441 281.888 238.635 281.532C238.835 281.17 238.935 280.763 238.935 280.31C238.935 279.819 238.838 279.393 238.644 279.031C238.457 278.662 238.166 278.381 237.772 278.187C237.377 277.987 236.876 277.886 236.269 277.886H233.709V290.065H231.275V275.947ZM239.333 290.065L236.016 283.724L238.567 283.714L241.931 289.939V290.065H239.333ZM243.783 275.947H248.777C249.85 275.947 250.765 276.109 251.521 276.432C252.277 276.755 252.856 277.233 253.257 277.867C253.664 278.494 253.868 279.27 253.868 280.194C253.868 280.899 253.738 281.519 253.48 282.056C253.221 282.592 252.856 283.045 252.384 283.413C251.912 283.775 251.35 284.056 250.697 284.257L249.96 284.616H245.471L245.451 282.686H248.816C249.398 282.686 249.882 282.583 250.27 282.376C250.658 282.169 250.949 281.888 251.143 281.532C251.343 281.17 251.444 280.763 251.444 280.31C251.444 279.819 251.347 279.393 251.153 279.031C250.965 278.662 250.674 278.381 250.28 278.187C249.886 277.987 249.385 277.886 248.777 277.886H246.217V290.065H243.783V275.947ZM251.841 290.065L248.525 283.724L251.075 283.714L254.44 289.939V290.065H251.841ZM258.89 275.947V290.065H256.457V275.947H258.89ZM267.21 283.685H263.613L263.593 281.91H266.735C267.265 281.91 267.714 281.833 268.083 281.678C268.458 281.516 268.742 281.287 268.936 280.989C269.13 280.685 269.227 280.32 269.227 279.893C269.227 279.422 269.136 279.037 268.955 278.74C268.774 278.442 268.496 278.226 268.121 278.09C267.753 277.954 267.281 277.886 266.706 277.886H264.35V290.065H261.916V275.947H266.706C267.481 275.947 268.173 276.021 268.781 276.17C269.395 276.319 269.915 276.551 270.342 276.868C270.775 277.178 271.101 277.573 271.321 278.051C271.548 278.53 271.661 279.098 271.661 279.758C271.661 280.34 271.522 280.873 271.244 281.358C270.966 281.836 270.555 282.227 270.012 282.531C269.469 282.835 268.794 283.016 267.986 283.074L267.21 283.685ZM267.103 290.065H262.847L263.942 288.135H267.103C267.653 288.135 268.112 288.045 268.48 287.864C268.849 287.677 269.123 287.421 269.304 287.098C269.492 286.768 269.586 286.384 269.586 285.944C269.586 285.485 269.505 285.088 269.343 284.751C269.182 284.409 268.926 284.147 268.577 283.966C268.228 283.779 267.772 283.685 267.21 283.685H264.476L264.495 281.91H268.054L268.606 282.579C269.382 282.605 270.019 282.777 270.516 283.093C271.021 283.41 271.396 283.821 271.641 284.325C271.887 284.829 272.01 285.372 272.01 285.954C272.01 286.852 271.813 287.605 271.418 288.213C271.03 288.821 270.471 289.283 269.741 289.6C269.01 289.91 268.131 290.065 267.103 290.065ZM283.704 288.135V290.065H276.208V288.135H283.704ZM276.897 275.947V290.065H274.463V275.947H276.897ZM282.724 281.842V283.743H276.208V281.842H282.724ZM283.655 275.947V277.886H276.208V275.947H283.655ZM291.189 277.828L286.971 290.065H284.421L289.735 275.947H291.364L291.189 277.828ZM294.719 290.065L290.491 277.828L290.307 275.947H291.946L297.279 290.065H294.719ZM294.515 284.829V286.759H286.836V284.829H294.515ZM310.059 275.947V290.065H307.625L301.293 279.952V290.065H298.859V275.947H301.293L307.644 286.08V275.947H310.059Z" fill="white"/>
<path d="M129.658 251.541L133.876 235.12H136.087L135.839 239.352L131.33 256.297H129.032L129.658 251.541ZM126.502 235.12L129.92 251.41L130.225 256.297H127.782L122.88 235.12H126.502ZM140.872 251.366L144.246 235.12H147.882L142.981 256.297H140.537L140.872 251.366ZM136.945 235.12L141.119 251.585L141.73 256.297H139.432L134.996 239.352L134.763 235.12H136.945ZM164.449 253.403V256.297H153.206V253.403H164.449ZM154.238 235.12V256.297H150.588V235.12H154.238ZM162.98 243.963V246.814H153.206V243.963H162.98ZM164.376 235.12V238.029H153.206V235.12H164.376ZM178.572 250.843C178.572 250.406 178.504 250.019 178.368 249.679C178.242 249.34 178.014 249.03 177.684 248.748C177.355 248.467 176.889 248.196 176.288 247.934C175.697 247.662 174.94 247.386 174.019 247.105C173.011 246.794 172.08 246.45 171.226 246.072C170.383 245.684 169.646 245.238 169.016 244.734C168.385 244.22 167.896 243.633 167.547 242.974C167.198 242.305 167.023 241.534 167.023 240.661C167.023 239.798 167.202 239.013 167.561 238.305C167.93 237.597 168.448 236.987 169.118 236.473C169.796 235.949 170.596 235.547 171.517 235.265C172.439 234.975 173.457 234.829 174.572 234.829C176.143 234.829 177.495 235.12 178.63 235.702C179.774 236.284 180.651 237.064 181.262 238.043C181.883 239.023 182.193 240.104 182.193 241.287H178.572C178.572 240.589 178.421 239.973 178.121 239.44C177.83 238.897 177.384 238.47 176.783 238.16C176.191 237.85 175.44 237.694 174.528 237.694C173.665 237.694 172.948 237.825 172.376 238.087C171.803 238.349 171.377 238.703 171.096 239.149C170.814 239.595 170.674 240.099 170.674 240.661C170.674 241.059 170.766 241.423 170.95 241.752C171.134 242.072 171.416 242.373 171.794 242.654C172.172 242.926 172.647 243.183 173.219 243.425C173.791 243.667 174.465 243.9 175.241 244.123C176.414 244.472 177.437 244.86 178.31 245.287C179.182 245.704 179.91 246.179 180.491 246.712C181.073 247.245 181.51 247.851 181.8 248.53C182.091 249.199 182.237 249.96 182.237 250.814C182.237 251.706 182.057 252.511 181.699 253.228C181.34 253.936 180.826 254.542 180.157 255.046C179.498 255.541 178.702 255.924 177.772 256.195C176.85 256.457 175.823 256.588 174.688 256.588C173.67 256.588 172.666 256.452 171.677 256.181C170.698 255.909 169.806 255.497 169.001 254.944C168.196 254.382 167.556 253.684 167.081 252.85C166.606 252.006 166.369 251.022 166.369 249.897H170.019C170.019 250.586 170.136 251.172 170.368 251.657C170.611 252.142 170.945 252.54 171.372 252.85C171.799 253.15 172.293 253.374 172.855 253.519C173.428 253.664 174.038 253.737 174.688 253.737C175.541 253.737 176.254 253.616 176.826 253.374C177.408 253.131 177.844 252.792 178.135 252.355C178.426 251.919 178.572 251.415 178.572 250.843ZM194.178 235.12V256.297H190.556V235.12H194.178ZM200.825 235.12V238.029H183.968V235.12H200.825ZM218.38 248.399H212.868V245.505H218.38C219.34 245.505 220.116 245.35 220.707 245.039C221.299 244.729 221.73 244.302 222.002 243.759C222.283 243.207 222.424 242.577 222.424 241.869C222.424 241.2 222.283 240.574 222.002 239.992C221.73 239.401 221.299 238.926 220.707 238.567C220.116 238.208 219.34 238.029 218.38 238.029H213.988V256.297H210.337V235.12H218.38C220.019 235.12 221.41 235.411 222.555 235.993C223.709 236.565 224.586 237.36 225.187 238.378C225.788 239.386 226.089 240.54 226.089 241.84C226.089 243.207 225.788 244.38 225.187 245.359C224.586 246.339 223.709 247.09 222.555 247.614C221.41 248.137 220.019 248.399 218.38 248.399ZM246.248 245.127V246.29C246.248 247.89 246.039 249.325 245.622 250.595C245.206 251.866 244.609 252.947 243.833 253.839C243.067 254.731 242.146 255.415 241.07 255.89C239.994 256.355 238.801 256.588 237.492 256.588C236.193 256.588 235.005 256.355 233.929 255.89C232.862 255.415 231.936 254.731 231.151 253.839C230.365 252.947 229.754 251.866 229.318 250.595C228.891 249.325 228.678 247.89 228.678 246.29V245.127C228.678 243.527 228.891 242.097 229.318 240.836C229.745 239.566 230.346 238.485 231.121 237.593C231.907 236.691 232.833 236.007 233.899 235.542C234.976 235.067 236.164 234.829 237.463 234.829C238.772 234.829 239.965 235.067 241.041 235.542C242.117 236.007 243.043 236.691 243.819 237.593C244.595 238.485 245.191 239.566 245.608 240.836C246.035 242.097 246.248 243.527 246.248 245.127ZM242.597 246.29V245.098C242.597 243.915 242.481 242.872 242.248 241.97C242.025 241.059 241.691 240.298 241.245 239.687C240.808 239.066 240.27 238.601 239.63 238.291C238.99 237.971 238.268 237.811 237.463 237.811C236.658 237.811 235.941 237.971 235.31 238.291C234.68 238.601 234.142 239.066 233.696 239.687C233.26 240.298 232.925 241.059 232.692 241.97C232.46 242.872 232.343 243.915 232.343 245.098V246.29C232.343 247.473 232.46 248.52 232.692 249.432C232.925 250.343 233.264 251.114 233.71 251.745C234.166 252.365 234.709 252.835 235.339 253.155C235.97 253.466 236.687 253.621 237.492 253.621C238.307 253.621 239.029 253.466 239.659 253.155C240.289 252.835 240.823 252.365 241.259 251.745C241.695 251.114 242.025 250.343 242.248 249.432C242.481 248.52 242.597 247.473 242.597 246.29ZM253.797 235.12V256.297H250.146V235.12H253.797ZM275.134 235.12V256.297H271.483L261.985 241.127V256.297H258.335V235.12H261.985L271.512 250.319V235.12H275.134ZM287.758 235.12V256.297H284.137V235.12H287.758ZM294.405 235.12V238.029H277.548V235.12H294.405ZM317.91 243.963V246.858H306.666V243.963H317.91ZM307.568 235.12V256.297H303.918V235.12H307.568ZM320.717 235.12V256.297H317.08V235.12H320.717ZM341.952 245.127V246.29C341.952 247.89 341.743 249.325 341.326 250.595C340.909 251.866 340.313 252.947 339.537 253.839C338.771 254.731 337.85 255.415 336.774 255.89C335.698 256.355 334.505 256.588 333.196 256.588C331.897 256.588 330.709 256.355 329.633 255.89C328.566 255.415 327.64 254.731 326.854 253.839C326.069 252.947 325.458 251.866 325.022 250.595C324.595 249.325 324.382 247.89 324.382 246.29V245.127C324.382 243.527 324.595 242.097 325.022 240.836C325.449 239.566 326.05 238.485 326.825 237.593C327.611 236.691 328.537 236.007 329.603 235.542C330.68 235.067 331.868 234.829 333.167 234.829C334.476 234.829 335.669 235.067 336.745 235.542C337.821 236.007 338.747 236.691 339.523 237.593C340.299 238.485 340.895 239.566 341.312 240.836C341.739 242.097 341.952 243.527 341.952 245.127ZM338.301 246.29V245.098C338.301 243.915 338.185 242.872 337.952 241.97C337.729 241.059 337.395 240.298 336.948 239.687C336.512 239.066 335.974 238.601 335.334 238.291C334.694 237.971 333.972 237.811 333.167 237.811C332.362 237.811 331.645 237.971 331.014 238.291C330.384 238.601 329.846 239.066 329.4 239.687C328.963 240.298 328.629 241.059 328.396 241.97C328.164 242.872 328.047 243.915 328.047 245.098V246.29C328.047 247.473 328.164 248.52 328.396 249.432C328.629 250.343 328.968 251.114 329.414 251.745C329.87 252.365 330.413 252.835 331.043 253.155C331.674 253.466 332.391 253.621 333.196 253.621C334.01 253.621 334.733 253.466 335.363 253.155C335.993 252.835 336.527 252.365 336.963 251.745C337.399 251.114 337.729 250.343 337.952 249.432C338.185 248.52 338.301 247.473 338.301 246.29ZM353.588 235.12V256.297H349.966V235.12H353.588ZM360.235 235.12V238.029H343.377V235.12H360.235ZM376.888 253.403V256.297H365.645V253.403H376.888ZM366.678 235.12V256.297H363.027V235.12H366.678ZM375.419 243.963V246.814H365.645V243.963H375.419ZM376.815 235.12V238.029H365.645V235.12H376.815ZM393.135 253.403V256.297H382.502V253.403H393.135ZM383.521 235.12V256.297H379.87V235.12H383.521Z" fill="white"/>
</svg>
