<svg width="219" height="199" viewBox="0 0 219 199" fill="none" xmlns="http://www.w3.org/2000/svg">
<path d="M43.8527 160.992H46.9122L57.4363 186.261H57.6912L68.2153 160.992H71.2748V190H68.7819V166.586H68.5552L58.7677 190H56.3598L46.5722 166.586H46.3456V190H43.8527V160.992ZM78.4915 190V168.244H81.0269V190H78.4915ZM79.7805 164.504C79.2611 164.504 78.8173 164.33 78.449 163.98C78.0807 163.621 77.8966 163.192 77.8966 162.691C77.8966 162.191 78.0807 161.766 78.449 161.416C78.8173 161.058 79.2611 160.878 79.7805 160.878C80.2998 160.878 80.7436 161.058 81.1119 161.416C81.4802 161.766 81.6643 162.191 81.6643 162.691C81.6643 163.192 81.4802 163.621 81.1119 163.98C80.7436 164.33 80.2998 164.504 79.7805 164.504ZM90.216 176.402V190H87.6948V168.244H90.1452V171.657H90.3718C90.8817 170.543 91.6749 169.651 92.7514 168.98C93.8373 168.3 95.1782 167.96 96.7741 167.96C98.2377 167.96 99.522 168.267 100.627 168.881C101.741 169.485 102.605 170.378 103.219 171.558C103.842 172.738 104.154 174.188 104.154 175.907V190H101.632V176.062C101.632 174.278 101.132 172.866 100.131 171.827C99.1395 170.788 97.8081 170.269 96.1367 170.269C94.9941 170.269 93.979 170.515 93.0914 171.006C92.2037 171.497 91.5002 172.205 90.9809 173.13C90.471 174.046 90.216 175.137 90.216 176.402ZM118.626 190.453C116.841 190.453 115.279 189.981 113.938 189.037C112.597 188.093 111.549 186.775 110.793 185.085C110.047 183.395 109.674 181.426 109.674 179.178C109.674 176.941 110.047 174.981 110.793 173.3C111.549 171.61 112.602 170.297 113.952 169.363C115.302 168.418 116.874 167.946 118.669 167.946C119.991 167.946 121.091 168.182 121.969 168.654C122.847 169.117 123.551 169.693 124.079 170.382C124.608 171.072 125.019 171.742 125.312 172.394H125.538V160.992H128.074V190H125.609V185.963H125.312C125.019 186.624 124.603 187.304 124.065 188.003C123.527 188.692 122.814 189.273 121.926 189.745C121.048 190.217 119.948 190.453 118.626 190.453ZM118.924 188.144C120.33 188.144 121.53 187.762 122.521 186.997C123.513 186.223 124.268 185.161 124.788 183.81C125.316 182.45 125.581 180.892 125.581 179.136C125.581 177.398 125.321 175.864 124.802 174.533C124.282 173.192 123.527 172.144 122.535 171.388C121.544 170.623 120.34 170.241 118.924 170.241C117.469 170.241 116.242 170.637 115.241 171.431C114.249 172.214 113.494 173.277 112.974 174.618C112.465 175.958 112.21 177.465 112.21 179.136C112.21 180.826 112.469 182.351 112.989 183.711C113.508 185.071 114.263 186.152 115.255 186.955C116.256 187.748 117.479 188.144 118.924 188.144ZM144.207 168.244V170.439H133.513V168.244H144.207ZM136.856 190V165.057C136.856 163.886 137.125 162.899 137.663 162.096C138.211 161.294 138.924 160.685 139.802 160.269C140.68 159.854 141.61 159.646 142.592 159.646C143.253 159.646 143.801 159.703 144.235 159.816C144.679 159.92 145.028 160.024 145.283 160.127L144.547 162.337C144.358 162.28 144.127 162.214 143.853 162.139C143.579 162.063 143.234 162.025 142.819 162.025C141.723 162.025 140.878 162.332 140.283 162.946C139.688 163.56 139.391 164.438 139.391 165.581L139.377 190H136.856ZM163.063 181.686V168.244H165.584V190H163.063V186.388H162.865C162.355 187.502 161.547 188.432 160.443 189.178C159.338 189.915 157.987 190.283 156.392 190.283C155.004 190.283 153.771 189.981 152.695 189.377C151.618 188.763 150.773 187.866 150.159 186.686C149.546 185.505 149.239 184.056 149.239 182.337V168.244H151.76V182.181C151.76 183.881 152.26 185.25 153.261 186.289C154.262 187.318 155.547 187.833 157.114 187.833C158.096 187.833 159.04 187.597 159.947 187.125C160.853 186.653 161.599 185.963 162.185 185.057C162.77 184.141 163.063 183.017 163.063 181.686ZM174.78 160.992V190H172.259V160.992H174.78Z" fill="#273658"/>
<path opacity="0.38" d="M0 87.2729C0 87.2729 61.6904 82.3863 82.4698 94.4199C106.126 108.118 108.741 147.957 108.741 147.957C108.741 147.957 112.923 114.904 132.724 98.2691C152.524 81.6345 218.005 87.2729 218.005 87.2729V92.6156C218.005 123.755 192.717 149 161.526 149H56.4793C25.2877 149 0 123.755 0 92.6156V87.2729Z" fill="#0F2046"/>
<g opacity="0.49">
<path opacity="0.49" d="M113.837 69.4756C98.3443 95.4023 96.8081 125.208 107.356 148.138C132.573 146.514 158.117 131.002 173.61 105.075C189.103 79.1486 190.639 49.3426 180.091 26.413C154.874 28.0368 129.33 43.5488 113.837 69.4756V69.4756Z" fill="#0F2046"/>
<path opacity="0.49" d="M103.691 69.4756C119.184 95.4023 120.72 125.208 110.172 148.138C84.955 146.514 59.4113 131.002 43.9184 105.075C28.4255 79.1486 26.8892 49.3426 37.4371 26.413C62.6544 28.0368 88.1981 43.5488 103.691 69.4756Z" fill="#0F2046"/>
</g>
<path opacity="0.64" d="M68.7441 73.9762C68.7441 105.491 84.8043 133.032 108.736 147.952C132.669 133.032 148.729 105.491 148.729 73.9762C148.729 42.4612 132.669 14.9205 108.742 0C84.8094 14.9205 68.7492 42.4612 68.7492 73.9762H68.7441Z" fill="#0F2046"/>
</svg>
