<svg width="200" height="197" viewBox="0 0 200 197" fill="none" xmlns="http://www.w3.org/2000/svg">
<path d="M157.405 90.2373L153.893 68.1508C151.501 60.2118 151.043 51.6622 149.924 43.418C141.425 -18.3632 23.6132 -20.9077 55.8778 79.7029L58.6259 116.802C58.6768 119.55 60.7124 121.789 63.4096 122.197L111.45 133.087C114.504 133.494 117.252 131.102 117.252 128.049V119.296C117.252 117.209 119.084 115.581 121.17 115.784L137.252 117.413C141.221 117.82 144.784 114.868 145.14 110.848L146.514 94.1559C146.616 93.2398 147.379 92.5274 148.295 92.5783L153.791 92.8327C155.318 92.7818 157.812 91.6622 157.405 90.2373ZM120.662 47.4383C119.745 48.5579 118.524 49.423 116.947 49.9319C114.656 50.6953 111.603 50.7971 107.888 50.2373L107.684 50.2882V50.3391C107.888 51.6113 107.99 54.1559 106.209 56.5477C104.835 58.3798 102.595 59.8556 99.5928 60.8225C97.8625 61.3823 95.8269 61.8403 93.5877 62.1457C93.3842 63.0108 92.8753 64.9956 91.5012 67.0821C90.4325 68.6597 89.1094 69.9828 87.5826 70.9498C86.6666 71.5096 85.6997 71.9676 84.631 72.3238C83.4096 72.7309 82.1373 72.9854 80.7633 73.0872L78.575 73.2398L80.458 72.0694C80.5088 72.0185 84.5801 69.423 85.1399 66.5223C85.2926 65.708 85.1399 64.9447 84.6819 64.2322C84.0203 64.3849 82.5445 64.5884 80.7633 64.5884C77.5572 64.5884 74.86 63.8251 73.0279 62.2984C70.8396 60.5681 69.7709 57.8709 69.72 54.3085L68.7531 54.105C67.9898 53.9523 67.1755 53.7996 66.463 53.647C65.0381 53.3925 63.0534 52.0694 61.4758 50.2373C60.7124 49.3213 59.5419 47.7437 58.8803 45.7589C58.6259 45.0465 58.4732 44.2322 58.4223 43.418C58.4223 43.1126 58.4223 42.7564 58.4732 42.451C58.6259 40.619 59.4401 38.9905 60.8651 37.5146C62.7989 35.6317 65.8524 34.1559 69.9236 33.1381C70.1272 33.0872 70.2798 32.8836 70.2798 32.6291C69.9236 29.9319 69.4656 23.3671 73.4859 19.9065C76.3867 17.4129 80.9669 17.1075 87.1246 18.9905C87.1246 18.9905 87.1246 18.9905 87.1755 18.9905C87.888 17.7691 90.5852 13.5961 94.9109 12.68C97.5572 12.1202 100.356 12.8327 103.206 14.8174C104.173 15.479 104.58 15.479 104.784 15.3772C105.954 14.563 108.092 14.105 110.331 14.2068C112.926 14.3594 115.42 15.1737 117.354 16.5477C117.506 16.6495 117.608 16.7513 117.761 16.8531C119.389 18.1253 120.56 19.7538 121.221 21.7895C121.323 22.0948 121.425 22.3493 121.476 22.6546C122.239 25.6063 122.036 29.2195 120.814 33.3416C120.712 33.647 120.763 33.9523 120.865 34.2068C121.323 35.2755 122.086 37.5146 122.392 39.9574C122.595 43.1126 122.086 45.6571 120.662 47.4383Z" fill="#3E3D46"/>
<path d="M74.2493 43.6723L78.0661 34.9191L71.8574 34.5629L74.2493 43.6723Z" fill="#3E3D46"/>
<path d="M100.407 43.5706L86.1577 48.3034L90.8396 53.0362L100.407 43.5706Z" fill="#3E3D46"/>
<path d="M95.5215 27.8964L79.5928 34.6648L85.2416 46.8785L95.5215 27.8964Z" fill="#3E3D46"/>
<path d="M96.6413 28.0999L86.3105 47.1329L101.781 41.993L96.6413 28.0999Z" fill="#3E3D46"/>
<path d="M95.9288 26.573L90.0764 16.802C89.0077 17.9216 88.2952 19.0921 87.9898 19.601C87.8372 19.9063 87.5318 20.1099 87.1756 20.1608L80.1018 33.2906L95.9288 26.573Z" fill="#3E3D46"/>
<path d="M86.056 19.9065C82.9008 18.9905 80.2545 18.736 78.0662 19.0414L79.2366 32.5274L86.056 19.9065Z" fill="#3E3D46"/>
<path d="M102.392 27.1837H102.341V26.9292L97.4556 27.2854L102.036 39.5501L102.392 27.1837Z" fill="#3E3D46"/>
<path d="M120.102 31.3059C121.272 26.2168 120.611 22.7562 119.237 20.4153L104.58 26.2677L120.102 31.3059Z" fill="#3E3D46"/>
<path d="M78.8804 35.7334L74.9109 44.9955L84.2239 47.2856L78.8804 35.7334Z" fill="#3E3D46"/>
<path d="M119.542 33.4943L113.588 38.5324L120.865 38.4815C120.509 36.8021 120 35.4281 119.695 34.6647C119.542 34.3085 119.491 33.9014 119.542 33.4943Z" fill="#3E3D46"/>
<path d="M116.539 17.4636C114.809 16.1913 112.519 15.4789 110.127 15.3262C108.142 15.2244 106.209 15.5806 105.242 16.2931C105.038 16.4458 104.784 16.5476 104.529 16.5476L103.562 25.5043L118.575 19.4992C118.015 18.685 117.252 18.0234 116.539 17.4636Z" fill="#3E3D46"/>
<path d="M103.053 41.5348L111.247 38.8376L103.461 27.9979L103.053 41.5348Z" fill="#3E3D46"/>
<path d="M96.7938 25.5043L97.0482 26.2168L102.392 25.8606L102.443 24.741L102.544 24.8937L103.46 16.3949C103.002 16.1914 102.646 15.9369 102.392 15.7842C99.7963 13.9522 97.3027 13.2906 94.9617 13.8504C93.3332 14.2066 91.9592 15.0718 90.8396 16.0896L96.692 25.7588L96.7938 25.5043Z" fill="#3E3D46"/>
<path d="M89.9236 53.6469L85.2926 48.965L85.1399 49.2703L85.089 49.1685L77.3027 60.8225L89.9236 53.6469Z" fill="#3E3D46"/>
<path d="M93.486 61.0771C96.0814 60.7208 98.2697 60.2119 100.153 59.4995L91.7048 54.8684L93.486 61.0771Z" fill="#3E3D46"/>
<path d="M92.3154 54.0031L101.374 58.9903C103.104 58.1761 104.376 57.1583 105.293 55.9369C106.87 53.8504 106.768 51.6621 106.565 50.5934L92.3154 54.0031Z" fill="#3E3D46"/>
<path d="M111.501 48.9141L111.552 39.8556L103.562 42.5019L111.501 48.9141Z" fill="#3E3D46"/>
<path d="M92.5701 52.7816L107.176 49.2702C107.43 49.1175 107.685 49.0666 107.939 49.1175C108.804 49.2702 109.618 49.3211 110.382 49.4228L102.494 43.0106L92.5701 52.7816Z" fill="#3E3D46"/>
<path d="M104.377 27.3875L112.214 38.3289L119.389 32.2221L104.377 27.3875Z" fill="#3E3D46"/>
<path d="M112.672 39.6521L112.57 49.5248C115.98 49.474 118.422 48.5579 119.797 46.7768C121.374 44.792 121.425 42.0439 121.069 39.5503L112.672 39.6521Z" fill="#3E3D46"/>
<path d="M85.4453 63.6213C86.056 64.5882 86.2596 65.6569 86.056 66.7765C85.6998 68.8121 83.9695 70.5933 82.5955 71.7638C86.0051 71.0513 88.6514 69.321 90.4835 66.5221C91.9084 64.3338 92.3664 62.2473 92.4682 61.7383L90.5853 55.1735L85.4453 63.6213Z" fill="#3E3D46"/>
<path d="M71.0942 33.4432L78.2698 33.7995L76.9975 19.2957C75.8779 19.601 74.911 20.1099 74.0968 20.8224C70.4326 23.9267 70.8906 30.0845 71.2469 32.5781C71.2469 32.8834 71.196 33.1888 71.0942 33.4432Z" fill="#3E3D46"/>
<path d="M70.5853 34.0538C70.4326 34.1556 70.2799 34.2574 70.0764 34.3083C62.9008 36.0895 59.2367 39.2447 59.3893 43.4177C59.3893 43.9266 59.4911 44.4864 59.5929 44.9444V44.4355L73.4352 44.7917L70.5853 34.0538Z" fill="#3E3D46"/>
<path d="M70.5852 53.4941H70.687V53.9521C70.6361 57.3617 71.603 59.9063 73.5878 61.4839C73.9949 61.8401 74.5038 62.1454 74.9618 62.349L73.7913 47.2854L70.5852 53.4941Z" fill="#3E3D46"/>
<path d="M59.7456 45.5043C60.3054 47.2854 61.3741 48.7104 62.1375 49.5755C63.5624 51.204 65.2927 52.4254 66.5141 52.629C67.2774 52.7816 68.0917 52.8834 68.9059 53.087L69.5675 53.2396L73.3334 45.8605L59.7456 45.5043Z" fill="#3E3D46"/>
<path d="M74.7583 46.0642L75.9288 60.9243L84.3257 48.4052L74.7583 46.0642Z" fill="#3E3D46"/>
<path d="M75.9797 62.8072C79.4403 64.0286 83.5115 63.367 84.4785 63.1634L89.2622 55.2754L75.9797 62.8072Z" fill="#3E3D46"/>
<path d="M120.712 34.2576C120.61 33.9522 120.56 33.6469 120.661 33.3925C121.883 29.2703 122.086 25.6571 121.323 22.7054C121.221 22.4001 121.17 22.1456 121.069 21.8403C120.407 19.8556 119.236 18.1762 117.608 16.9039C117.455 16.8021 117.354 16.7003 117.201 16.5986C115.267 15.2245 112.773 14.4103 110.178 14.2576C107.939 14.1558 105.801 14.5629 104.631 15.4281C104.427 15.5807 104.02 15.5807 103.053 14.8683C100.203 12.8835 97.4044 12.1711 94.7581 12.7309C90.4324 13.6978 87.7352 17.8199 87.0227 19.0413C87.0227 19.0413 87.0227 19.0413 86.9718 19.0413C80.8141 17.1584 76.2339 17.4637 73.3331 19.9573C69.2619 23.4179 69.7199 30.0337 70.127 32.68C70.1779 32.9344 70.0253 33.138 69.7708 33.1889C65.6487 34.2067 62.5952 35.6825 60.7123 37.5655C59.2365 38.9904 58.4222 40.6698 58.3204 42.5019C58.2695 42.8072 58.2695 43.1126 58.2695 43.4688C58.3204 44.283 58.4731 45.0464 58.7275 45.8098C59.3382 47.7945 60.5596 49.3721 61.323 50.2881C62.9006 52.1202 64.8853 53.4942 66.3102 53.6978C67.0736 53.8505 67.837 53.9522 68.6003 54.1558L69.5672 54.3594C69.5672 57.9217 70.6868 60.568 72.8751 62.3492C74.7581 63.825 77.4044 64.6393 80.6105 64.6393C82.3917 64.6393 83.8675 64.3848 84.5291 64.283C84.9871 64.9955 85.1398 65.7589 84.9871 66.5731C84.4273 69.4739 80.356 72.1202 80.3052 72.1202L78.4222 73.2907L80.6105 73.138C81.9845 73.0362 83.3077 72.7818 84.4782 72.3746C85.5469 72.0184 86.5138 71.5604 87.4298 71.0006C89.0074 70.0337 90.3306 68.7105 91.3484 67.1329C92.7225 65.0464 93.2823 63.0617 93.4349 62.1965C95.725 61.8912 97.7097 61.4841 99.44 60.8734C102.443 59.8556 104.682 58.4306 106.056 56.5986C107.888 54.1558 107.786 51.6622 107.532 50.3899V50.339L107.735 50.2881C111.45 50.8479 114.504 50.7461 116.794 49.9828C118.371 49.4739 119.593 48.6087 120.509 47.4891C121.934 45.708 122.443 43.2143 122.086 40.0591C121.934 37.5655 121.17 35.3772 120.712 34.2576ZM120.865 38.4815L113.588 38.5324L119.542 33.4942C119.491 33.9014 119.542 34.2576 119.694 34.6647C120 35.3772 120.509 36.8021 120.865 38.4815ZM119.236 20.4662C120.56 22.8072 121.272 26.2678 120.102 31.3568L104.58 26.3696L119.236 20.4662ZM104.529 16.5477C104.784 16.5477 104.987 16.4459 105.242 16.2932C106.208 15.6316 108.091 15.2245 110.127 15.3263C112.519 15.4281 114.809 16.1914 116.539 17.4637C117.252 17.9726 118.015 18.6342 118.626 19.4993L103.613 25.5044L104.529 16.5477ZM95.0125 13.7996C97.3535 13.2907 99.898 13.9522 102.443 15.7334C102.646 15.8861 103.053 16.1405 103.511 16.3441L102.595 24.8428L102.493 24.6902L102.443 25.8098L97.099 26.166L96.8446 25.4535L96.7428 25.6571L90.8904 15.9879C91.9591 15.021 93.3331 14.1558 95.0125 13.7996ZM111.247 38.8377L103.053 41.5858L103.46 27.9981L111.247 38.8377ZM78.8802 35.7334L84.2237 47.2856L74.9107 44.9955L78.8802 35.7334ZM74.2492 43.6723L71.8064 34.5629L78.0151 34.8683L74.2492 43.6723ZM79.5927 34.6647L95.5214 27.8963L85.2415 46.8276L79.5927 34.6647ZM85.1398 49.2703L85.2924 48.965L89.9235 53.6469L77.3026 60.7716L85.0889 49.1176L85.1398 49.2703ZM86.1576 48.3034L100.407 43.5706L90.7886 53.0362L86.1576 48.3034ZM86.3102 47.1329L96.641 28.1507L101.781 41.993L86.3102 47.1329ZM97.4553 27.2856L102.341 26.9293L102.29 27.1838L102.341 27.1329L101.934 39.4993L97.4553 27.2856ZM87.1245 20.1609C87.4807 20.11 87.7352 19.9064 87.9387 19.6011C88.2441 19.0413 88.9565 17.9217 90.0253 16.8021L95.8777 26.5731L79.9998 33.2907L87.1245 20.1609ZM86.0558 19.9064L79.2365 32.5273L78.066 19.0413C80.2034 18.736 82.9006 19.0413 86.0558 19.9064ZM74.0456 20.8225C74.8599 20.11 75.8268 19.6011 76.9464 19.2958L78.2186 33.7996L71.0431 33.4433C71.1449 33.1889 71.1957 32.8835 71.1957 32.5782C70.8395 30.0846 70.4324 23.9268 74.0456 20.8225ZM59.5927 44.9446C59.4909 44.4357 59.3891 43.9268 59.3891 43.4179C59.2365 39.2449 62.9006 36.0897 70.0761 34.3085C70.2797 34.2576 70.4324 34.1558 70.5851 34.054L73.4349 44.7919L59.5927 44.4357V44.9446ZM69.4655 53.2398L68.8039 53.0871C67.9896 52.9344 67.2263 52.7818 66.412 52.6291C65.2415 52.4255 63.4604 51.2042 62.0354 49.5757C61.323 48.7614 60.2543 47.2856 59.6436 45.5044L73.1805 45.8606L69.4655 53.2398ZM73.5367 61.4841C71.552 59.9064 70.5851 57.3619 70.6359 53.9522V53.4942H70.5342L73.6894 47.2856L74.8599 62.3492C74.4527 62.1456 73.9947 61.8403 73.5367 61.4841ZM74.7581 46.0642L84.3255 48.4052L75.9286 60.9243L74.7581 46.0642ZM84.4782 63.1634C83.5113 63.367 79.44 64.0795 75.9795 62.8072L89.2619 55.2754L84.4782 63.1634ZM90.5342 66.4713C88.7021 69.2703 86.0558 71.0006 82.6461 71.7131C84.0202 70.5426 85.6996 68.7614 86.1067 66.7258C86.3102 65.6062 86.1067 64.5375 85.496 63.5706L90.6868 55.0718L92.5698 61.6367C92.4171 62.1965 92.01 64.283 90.5342 66.4713ZM93.4858 61.0769L91.7046 54.9192L100.152 59.5502C98.2695 60.2118 96.0812 60.7207 93.4858 61.0769ZM105.292 55.937C104.376 57.1584 103.053 58.1762 101.374 58.9904L92.3153 54.0031L106.616 50.5426C106.768 51.6622 106.87 53.8505 105.292 55.937ZM107.939 49.1685C107.684 49.1176 107.379 49.1685 107.175 49.3212L92.5698 52.8327L102.493 43.0617L110.432 49.423C109.618 49.3721 108.804 49.2703 107.939 49.1685ZM111.501 48.9141L103.613 42.5019L111.603 39.8556L111.501 48.9141ZM112.214 38.3288L104.376 27.3874L119.389 32.222L112.214 38.3288ZM119.796 46.7767C118.371 48.5578 115.979 49.4739 112.57 49.5248L112.672 39.652L121.069 39.5502C121.476 41.993 121.374 44.7919 119.796 46.7767Z" fill="white"/>
<path d="M6.15776 176.65V196.09H0V163.113H7.88804L22.4936 188.711C22.1883 186.319 22.0865 184.181 22.0865 182.248V163.062H28.2443V196.039H20.1018L5.75064 170.644C5.90331 171.866 6.00509 172.985 6.05598 174.003C6.10687 175.021 6.15776 175.937 6.15776 176.65Z" fill="#3E3D46"/>
<path d="M48.3461 196.599C45.3435 196.599 42.7481 196.09 40.6616 195.123C38.5751 194.156 36.9975 192.68 35.9288 190.746C34.8601 188.812 34.3003 186.522 34.3003 183.774V163.163H41.2214V183.214C41.2214 185.81 41.8321 187.794 43.1044 189.169C44.3257 190.543 46.1578 191.204 48.5497 191.204C50.9924 191.204 52.9262 190.492 54.2494 189.067C55.5726 187.642 56.2341 185.606 56.2341 183.011V163.163H63.1044V183.418C63.1044 186.217 62.5446 188.558 61.3741 190.543C60.2036 192.527 58.5242 194.003 56.3359 195.072C54.1476 196.09 51.4504 196.599 48.3461 196.599Z" fill="#3E3D46"/>
<path d="M77.0483 187.693L74.0967 196.141H67.1755L79.1857 163.163H87.3282L99.3384 196.141H92.519L89.5674 187.693H77.0483ZM83.3587 168.202C83.2061 168.812 83.0025 169.576 82.6972 170.441C82.3918 171.306 82.1883 171.917 82.0865 172.273L78.6259 182.451H88.0916L84.5292 172.069C84.3257 171.408 84.1221 170.797 83.9185 170.135C83.715 169.474 83.5623 168.863 83.3587 168.202Z" fill="#3E3D46"/>
<path d="M110.025 176.65V196.09H103.868V163.113H111.756L126.361 188.711C126.056 186.319 125.954 184.181 125.954 182.248V163.062H132.112V196.039H124.02L109.669 170.644C109.822 171.866 109.924 172.985 109.975 174.003C109.975 175.021 110.025 175.937 110.025 176.65Z" fill="#3E3D46"/>
<path d="M153.893 191.153C158.066 191.153 160.967 189.067 162.595 184.894L168.601 187.184C167.328 190.39 165.394 192.731 162.901 194.309C160.407 195.886 157.405 196.649 153.893 196.649C150.382 196.649 147.379 195.988 144.886 194.614C142.392 193.24 140.509 191.306 139.186 188.761C137.863 186.217 137.252 183.113 137.252 179.55C137.252 175.937 137.863 172.884 139.135 170.39C140.407 167.896 142.239 166.013 144.682 164.69C147.125 163.367 150.076 162.756 153.639 162.756C157.506 162.756 160.662 163.52 163.104 165.097C165.547 166.675 167.227 168.914 168.244 171.968L162.137 173.647C161.629 171.968 160.611 170.695 159.084 169.677C157.557 168.711 155.827 168.202 153.74 168.202C150.636 168.202 148.244 169.169 146.616 171.102C144.987 173.036 144.173 175.886 144.173 179.601C144.173 182.146 144.529 184.283 145.293 186.013C146.056 187.744 147.125 189.067 148.55 189.983C150.025 190.695 151.807 191.153 153.893 191.153Z" fill="#3E3D46"/>
<path d="M200 190.797V196.141H173.079V163.163H199.033V168.456H180V176.751H197.608V182.095H180V190.797H200Z" fill="#3E3D46"/>
</svg>
