<svg width="460" height="164" viewBox="0 0 460 164" fill="none" xmlns="http://www.w3.org/2000/svg">
<line y1="-2" x2="173.774" y2="-2" transform="matrix(0.390181 0.920738 -0.845206 0.534441 123.958 4.00024)" stroke="#BAA592" stroke-width="4"/>
<line y1="-2" x2="172.593" y2="-2" transform="matrix(0.37524 -0.926928 0.856315 0.516453 193.348 163.982)" stroke="#BAA592" stroke-width="4"/>
<line y1="-2" x2="173.774" y2="-2" transform="matrix(0.390181 0.920738 -0.845206 0.534441 201.058 4.00024)" stroke="#BAA592" stroke-width="4"/>
<line y1="-2" x2="172.593" y2="-2" transform="matrix(0.37524 -0.926928 0.856315 0.516453 270.448 163.982)" stroke="#BAA592" stroke-width="4"/>
<line x1="200.777" y1="2.00024" x2="258.392" y2="2.00024" stroke="#BAA592" stroke-width="4"/>
<path d="M175.812 100.289H178.742C178.648 101.406 178.335 102.402 177.804 103.277C177.273 104.145 176.527 104.828 175.566 105.328C174.605 105.828 173.437 106.078 172.062 106.078C171.007 106.078 170.058 105.891 169.214 105.516C168.37 105.133 167.648 104.594 167.046 103.898C166.445 103.195 165.984 102.348 165.663 101.355C165.351 100.363 165.195 99.2539 165.195 98.0273V96.6094C165.195 95.3828 165.355 94.2734 165.675 93.2812C166.003 92.2891 166.472 91.4414 167.081 90.7383C167.691 90.0273 168.421 89.4844 169.273 89.1094C170.132 88.7344 171.097 88.5469 172.167 88.5469C173.527 88.5469 174.675 88.7969 175.613 89.2969C176.55 89.7969 177.277 90.4883 177.792 91.3711C178.316 92.2539 178.636 93.2656 178.753 94.4062H175.824C175.745 93.6719 175.574 93.043 175.308 92.5195C175.05 91.9961 174.667 91.5977 174.159 91.3242C173.652 91.043 172.988 90.9023 172.167 90.9023C171.495 90.9023 170.909 91.0273 170.409 91.2773C169.909 91.5273 169.492 91.8945 169.156 92.3789C168.82 92.8633 168.566 93.4609 168.394 94.1719C168.23 94.875 168.148 95.6797 168.148 96.5859V98.0273C168.148 98.8867 168.222 99.668 168.37 100.371C168.527 101.066 168.761 101.664 169.074 102.164C169.394 102.664 169.8 103.051 170.292 103.324C170.784 103.598 171.374 103.734 172.062 103.734C172.898 103.734 173.574 103.602 174.089 103.336C174.613 103.07 175.007 102.684 175.273 102.176C175.546 101.66 175.726 101.031 175.812 100.289ZM188.058 91.0547L182.96 105.844H179.878L186.3 88.7812H188.269L188.058 91.0547ZM192.324 105.844L187.214 91.0547L186.992 88.7812H188.972L195.417 105.844H192.324ZM192.077 99.5156V101.848H182.796V99.5156H192.077ZM197.327 88.7812H203.363C204.659 88.7812 205.765 88.9766 206.679 89.3672C207.593 89.7578 208.292 90.3359 208.777 91.1016C209.269 91.8594 209.515 92.7969 209.515 93.9141C209.515 94.7656 209.359 95.5156 209.046 96.1641C208.734 96.8125 208.292 97.3594 207.722 97.8047C207.152 98.2422 206.472 98.582 205.683 98.8242L204.792 99.2578H199.367L199.343 96.9258H203.409C204.113 96.9258 204.699 96.8008 205.167 96.5508C205.636 96.3008 205.988 95.9609 206.222 95.5312C206.464 95.0938 206.585 94.6016 206.585 94.0547C206.585 93.4609 206.468 92.9453 206.234 92.5078C206.007 92.0625 205.656 91.7227 205.179 91.4883C204.702 91.2461 204.097 91.125 203.363 91.125H200.269V105.844H197.327V88.7812ZM207.066 105.844L203.058 98.1797L206.14 98.168L210.206 105.691V105.844H207.066ZM212.445 88.7812H218.48C219.777 88.7812 220.882 88.9766 221.796 89.3672C222.71 89.7578 223.409 90.3359 223.894 91.1016C224.386 91.8594 224.632 92.7969 224.632 93.9141C224.632 94.7656 224.476 95.5156 224.163 96.1641C223.851 96.8125 223.409 97.3594 222.839 97.8047C222.269 98.2422 221.589 98.582 220.8 98.8242L219.909 99.2578H214.484L214.46 96.9258H218.527C219.23 96.9258 219.816 96.8008 220.284 96.5508C220.753 96.3008 221.105 95.9609 221.339 95.5312C221.581 95.0938 221.702 94.6016 221.702 94.0547C221.702 93.4609 221.585 92.9453 221.351 92.5078C221.124 92.0625 220.773 91.7227 220.296 91.4883C219.82 91.2461 219.214 91.125 218.48 91.125H215.386V105.844H212.445V88.7812ZM222.183 105.844L218.175 98.1797L221.257 98.168L225.324 105.691V105.844H222.183ZM230.702 88.7812V105.844H227.761V88.7812H230.702ZM240.757 98.1328H236.409L236.386 95.9883H240.183C240.824 95.9883 241.367 95.8945 241.812 95.707C242.265 95.5117 242.609 95.2344 242.843 94.875C243.077 94.5078 243.195 94.0664 243.195 93.5508C243.195 92.9805 243.085 92.5156 242.867 92.1562C242.648 91.7969 242.312 91.5352 241.859 91.3711C241.413 91.207 240.843 91.125 240.148 91.125H237.3V105.844H234.359V88.7812H240.148C241.085 88.7812 241.921 88.8711 242.656 89.0508C243.398 89.2305 244.027 89.5117 244.542 89.8945C245.066 90.2695 245.46 90.7461 245.726 91.3242C245.999 91.9023 246.136 92.5898 246.136 93.3867C246.136 94.0898 245.968 94.7344 245.632 95.3203C245.296 95.8984 244.8 96.3711 244.144 96.7383C243.488 97.1055 242.671 97.3242 241.695 97.3945L240.757 98.1328ZM240.628 105.844H235.484L236.808 103.512H240.628C241.292 103.512 241.847 103.402 242.292 103.184C242.738 102.957 243.07 102.648 243.288 102.258C243.515 101.859 243.628 101.395 243.628 100.863C243.628 100.309 243.531 99.8281 243.335 99.4219C243.14 99.0078 242.831 98.6914 242.409 98.4727C241.988 98.2461 241.437 98.1328 240.757 98.1328H237.452L237.476 95.9883H241.777L242.445 96.7969C243.382 96.8281 244.152 97.0352 244.753 97.418C245.363 97.8008 245.816 98.2969 246.113 98.9062C246.409 99.5156 246.558 100.172 246.558 100.875C246.558 101.961 246.32 102.871 245.843 103.605C245.374 104.34 244.699 104.898 243.816 105.281C242.933 105.656 241.87 105.844 240.628 105.844ZM260.691 103.512V105.844H251.632V103.512H260.691ZM252.464 88.7812V105.844H249.523V88.7812H252.464ZM259.507 95.9062V98.2031H251.632V95.9062H259.507ZM260.632 88.7812V91.125H251.632V88.7812H260.632ZM269.738 91.0547L264.64 105.844H261.558L267.98 88.7812H269.949L269.738 91.0547ZM274.003 105.844L268.894 91.0547L268.671 88.7812H270.652L277.097 105.844H274.003ZM273.757 99.5156V101.848H264.476V99.5156H273.757ZM292.542 88.7812V105.844H289.601L281.949 93.6211V105.844H279.007V88.7812H281.949L289.624 101.027V88.7812H292.542Z" fill="#6F6155"/>
<path d="M74.5172 58.1992L79.6149 38.3535H82.2867L81.9879 43.4688L76.5387 63.9473H73.7613L74.5172 58.1992ZM70.7027 38.3535L74.8336 58.041L75.2027 63.9473H72.2496L66.3258 38.3535H70.7027ZM88.0699 57.9883L92.1481 38.3535H96.5426L90.6188 63.9473H87.6656L88.0699 57.9883ZM83.3238 38.3535L88.3688 58.252L89.107 63.9473H86.3297L80.9684 43.4688L80.6871 38.3535H83.3238ZM116.564 60.4492V63.9473H102.976V60.4492H116.564ZM104.224 38.3535V63.9473H99.8121V38.3535H104.224ZM114.789 49.041V52.4863H102.976V49.041H114.789ZM116.476 38.3535V41.8691H102.976V38.3535H116.476ZM133.632 57.3555C133.632 56.8281 133.55 56.3594 133.386 55.9492C133.234 55.5391 132.959 55.1641 132.56 54.8242C132.162 54.4844 131.599 54.1562 130.873 53.8398C130.158 53.5117 129.244 53.1777 128.13 52.8379C126.912 52.4629 125.787 52.0469 124.755 51.5898C123.736 51.1211 122.845 50.582 122.084 49.9727C121.322 49.3516 120.73 48.6426 120.308 47.8457C119.886 47.0371 119.675 46.1055 119.675 45.0508C119.675 44.0078 119.892 43.0586 120.326 42.2031C120.771 41.3477 121.398 40.6094 122.207 39.9883C123.027 39.3555 123.994 38.8691 125.107 38.5293C126.22 38.1777 127.451 38.002 128.798 38.002C130.697 38.002 132.332 38.3535 133.703 39.0566C135.086 39.7598 136.146 40.7031 136.884 41.8867C137.634 43.0703 138.009 44.377 138.009 45.8066H133.632C133.632 44.9629 133.451 44.2188 133.088 43.5742C132.736 42.918 132.197 42.4023 131.47 42.0273C130.755 41.6523 129.847 41.4648 128.746 41.4648C127.703 41.4648 126.836 41.623 126.144 41.9395C125.453 42.2559 124.937 42.6836 124.597 43.2227C124.257 43.7617 124.088 44.3711 124.088 45.0508C124.088 45.5312 124.199 45.9707 124.421 46.3691C124.644 46.7559 124.984 47.1191 125.441 47.459C125.898 47.7871 126.472 48.0977 127.164 48.3906C127.855 48.6836 128.67 48.9648 129.607 49.2344C131.025 49.6562 132.261 50.125 133.316 50.6406C134.371 51.1445 135.25 51.7188 135.953 52.3633C136.656 53.0078 137.183 53.7402 137.535 54.5605C137.886 55.3691 138.062 56.2891 138.062 57.3203C138.062 58.3984 137.845 59.3711 137.412 60.2383C136.978 61.0938 136.357 61.8262 135.548 62.4355C134.752 63.0332 133.791 63.4961 132.666 63.8242C131.552 64.1406 130.31 64.2988 128.939 64.2988C127.709 64.2988 126.496 64.1348 125.3 63.8066C124.117 63.4785 123.039 62.9805 122.066 62.3125C121.093 61.6328 120.32 60.7891 119.746 59.7812C119.171 58.7617 118.884 57.5723 118.884 56.2129H123.296C123.296 57.0449 123.437 57.7539 123.718 58.3398C124.011 58.9258 124.416 59.4062 124.931 59.7812C125.447 60.1445 126.045 60.4141 126.724 60.5898C127.416 60.7656 128.154 60.8535 128.939 60.8535C129.97 60.8535 130.832 60.707 131.523 60.4141C132.226 60.1211 132.754 59.7109 133.105 59.1836C133.457 58.6562 133.632 58.0469 133.632 57.3555ZM152.494 38.3535V63.9473H148.117V38.3535H152.494ZM160.527 38.3535V41.8691H140.154V38.3535H160.527ZM181.744 54.4023H175.082V50.9043H181.744C182.904 50.9043 183.841 50.7168 184.556 50.3418C185.271 49.9668 185.793 49.4512 186.121 48.7949C186.461 48.127 186.63 47.3652 186.63 46.5098C186.63 45.7012 186.461 44.9453 186.121 44.2422C185.793 43.5273 185.271 42.9531 184.556 42.5195C183.841 42.0859 182.904 41.8691 181.744 41.8691H176.435V63.9473H172.023V38.3535H181.744C183.724 38.3535 185.406 38.7051 186.789 39.4082C188.183 40.0996 189.244 41.0605 189.97 42.291C190.697 43.5098 191.06 44.9043 191.06 46.4746C191.06 48.127 190.697 49.5449 189.97 50.7285C189.244 51.9121 188.183 52.8203 186.789 53.4531C185.406 54.0859 183.724 54.4023 181.744 54.4023ZM215.423 50.4473V51.8535C215.423 53.7871 215.171 55.5215 214.668 57.0566C214.164 58.5918 213.443 59.8984 212.505 60.9766C211.58 62.0547 210.466 62.8809 209.166 63.4551C207.865 64.0176 206.423 64.2988 204.841 64.2988C203.271 64.2988 201.836 64.0176 200.535 63.4551C199.246 62.8809 198.127 62.0547 197.177 60.9766C196.228 59.8984 195.49 58.5918 194.963 57.0566C194.447 55.5215 194.189 53.7871 194.189 51.8535V50.4473C194.189 48.5137 194.447 46.7852 194.963 45.2617C195.478 43.7266 196.205 42.4199 197.142 41.3418C198.091 40.252 199.211 39.4258 200.5 38.8633C201.8 38.2891 203.236 38.002 204.806 38.002C206.388 38.002 207.83 38.2891 209.13 38.8633C210.431 39.4258 211.55 40.252 212.488 41.3418C213.425 42.4199 214.146 43.7266 214.65 45.2617C215.166 46.7852 215.423 48.5137 215.423 50.4473ZM211.011 51.8535V50.4121C211.011 48.9824 210.871 47.7227 210.589 46.6328C210.32 45.5312 209.916 44.6113 209.377 43.873C208.849 43.123 208.199 42.5605 207.425 42.1855C206.652 41.7988 205.779 41.6055 204.806 41.6055C203.834 41.6055 202.966 41.7988 202.205 42.1855C201.443 42.5605 200.793 43.123 200.254 43.873C199.726 44.6113 199.322 45.5312 199.041 46.6328C198.759 47.7227 198.619 48.9824 198.619 50.4121V51.8535C198.619 53.2832 198.759 54.5488 199.041 55.6504C199.322 56.752 199.732 57.6836 200.271 58.4453C200.822 59.1953 201.478 59.7637 202.24 60.1504C203.002 60.5254 203.869 60.7129 204.841 60.7129C205.826 60.7129 206.699 60.5254 207.461 60.1504C208.222 59.7637 208.867 59.1953 209.394 58.4453C209.921 57.6836 210.32 56.752 210.589 55.6504C210.871 54.5488 211.011 53.2832 211.011 51.8535ZM224.546 38.3535V63.9473H220.134V38.3535H224.546ZM250.334 38.3535V63.9473H245.921L234.443 45.6133V63.9473H230.031V38.3535H234.443L245.957 56.7227V38.3535H250.334ZM265.591 38.3535V63.9473H261.214V38.3535H265.591ZM273.625 38.3535V41.8691H253.252V38.3535H273.625ZM302.031 49.041V52.5391H288.443V49.041H302.031ZM289.533 38.3535V63.9473H285.121V38.3535H289.533ZM305.423 38.3535V63.9473H301.029V38.3535H305.423ZM331.088 50.4473V51.8535C331.088 53.7871 330.836 55.5215 330.332 57.0566C329.828 58.5918 329.107 59.8984 328.17 60.9766C327.244 62.0547 326.13 62.8809 324.83 63.4551C323.529 64.0176 322.088 64.2988 320.505 64.2988C318.935 64.2988 317.5 64.0176 316.199 63.4551C314.91 62.8809 313.791 62.0547 312.841 60.9766C311.892 59.8984 311.154 58.5918 310.627 57.0566C310.111 55.5215 309.853 53.7871 309.853 51.8535V50.4473C309.853 48.5137 310.111 46.7852 310.627 45.2617C311.142 43.7266 311.869 42.4199 312.806 41.3418C313.755 40.252 314.875 39.4258 316.164 38.8633C317.464 38.2891 318.9 38.002 320.47 38.002C322.052 38.002 323.494 38.2891 324.795 38.8633C326.095 39.4258 327.214 40.252 328.152 41.3418C329.089 42.4199 329.81 43.7266 330.314 45.2617C330.83 46.7852 331.088 48.5137 331.088 50.4473ZM326.675 51.8535V50.4121C326.675 48.9824 326.535 47.7227 326.254 46.6328C325.984 45.5312 325.58 44.6113 325.041 43.873C324.513 43.123 323.863 42.5605 323.089 42.1855C322.316 41.7988 321.443 41.6055 320.47 41.6055C319.498 41.6055 318.63 41.7988 317.869 42.1855C317.107 42.5605 316.457 43.123 315.918 43.873C315.39 44.6113 314.986 45.5312 314.705 46.6328C314.423 47.7227 314.283 48.9824 314.283 50.4121V51.8535C314.283 53.2832 314.423 54.5488 314.705 55.6504C314.986 56.752 315.396 57.6836 315.935 58.4453C316.486 59.1953 317.142 59.7637 317.904 60.1504C318.666 60.5254 319.533 60.7129 320.505 60.7129C321.49 60.7129 322.363 60.5254 323.125 60.1504C323.886 59.7637 324.531 59.1953 325.058 58.4453C325.586 57.6836 325.984 56.752 326.254 55.6504C326.535 54.5488 326.675 53.2832 326.675 51.8535ZM345.15 38.3535V63.9473H340.773V38.3535H345.15ZM353.183 38.3535V41.8691H332.81V38.3535H353.183ZM373.31 60.4492V63.9473H359.722V60.4492H373.31ZM360.97 38.3535V63.9473H356.558V38.3535H360.97ZM371.535 49.041V52.4863H359.722V49.041H371.535ZM373.222 38.3535V41.8691H359.722V38.3535H373.222ZM392.945 60.4492V63.9473H380.095V60.4492H392.945ZM381.326 38.3535V63.9473H376.914V38.3535H381.326Z" fill="#6F6155"/>
</svg>
