<svg width="24" height="23" viewBox="0 0 24 23" fill="none" xmlns="http://www.w3.org/2000/svg">
<path d="M18.3867 15.6641C12.1758 15.6641 8.0625 11.5977 8.0625 5.375C8.0625 3.88672 8.33203 2.25781 8.76562 1.21484C8.85938 1.00391 8.87109 0.863281 8.87109 0.769531C8.87109 0.464844 8.64844 0.160156 8.26172 0.160156C8.15625 0.160156 7.94531 0.183594 7.74609 0.265625C3.53906 1.97656 0.703125 6.52344 0.703125 11.3281C0.703125 17.9727 5.82422 22.8828 12.4688 22.8828C17.3438 22.8828 21.7734 19.9062 23.2031 16.1211C23.2852 15.9219 23.2969 15.7109 23.2969 15.6172C23.2969 15.2305 22.9922 14.9609 22.6875 14.9609C22.5703 14.9609 22.4648 14.9844 22.3008 15.043C21.3984 15.3359 19.8984 15.6641 18.3867 15.6641Z" fill="#444648"/>
</svg>
