<svg width="30" height="30" viewBox="0 0 30 30" fill="none" xmlns="http://www.w3.org/2000/svg">
<path fill-rule="evenodd" clip-rule="evenodd" d="M15 0C12.0333 0 9.13319 0.879735 6.66645 2.52796C4.19972 4.17618 2.27713 6.51886 1.14181 9.25975C0.00649925 12.0006 -0.290551 15.0166 0.288227 17.9264C0.867006 20.8361 2.29562 23.5088 4.3934 25.6066C6.49119 27.7044 9.16394 29.133 12.0737 29.7118C14.9834 30.2906 17.9994 29.9935 20.7403 28.8582C23.4811 27.7229 25.8238 25.8003 27.472 23.3335C29.1203 20.8668 30 17.9667 30 15C30 11.0218 28.4196 7.20644 25.6066 4.3934C22.7936 1.58035 18.9783 0 15 0ZM24.9 6.915C26.7456 9.1642 27.7671 11.9766 27.795 14.886C27.372 14.805 23.142 13.944 18.879 14.478C18.783 14.268 18.699 14.04 18.603 13.812C18.342 13.194 18.051 12.561 17.757 11.958C22.5 10.038 24.63 7.272 24.9 6.915ZM15 2.214C18.1296 2.21117 21.1515 3.35653 23.493 5.433C23.265 5.76 21.33 8.346 16.773 10.053C15.3442 7.45342 13.7499 4.94827 12 2.553C12.9835 2.32397 13.9902 2.2102 15 2.214ZM9.549 3.414C11.2659 5.79417 12.8522 8.26581 14.301 10.818C10.4335 11.8302 6.45469 12.3553 2.45701 12.381C2.86856 10.4414 3.72278 8.62321 4.953 7.06827C6.18321 5.51332 7.75614 4.26372 9.549 3.417V3.414ZM2.18101 15.015V14.625C6.63237 14.6483 11.0642 14.0351 15.342 12.804C15.717 13.521 16.056 14.253 16.383 14.985L15.879 15.129C9.27301 17.262 5.76001 23.1 5.46601 23.574C3.35017 21.2254 2.17981 18.1761 2.18101 15.015ZM15 27.819C12.1526 27.824 9.38587 26.8732 7.14301 25.119C7.37101 24.648 9.972 19.638 17.196 17.115C17.229 17.115 17.244 17.115 17.277 17.082C18.4954 20.2255 19.4105 23.4783 20.01 26.796C18.4275 27.4758 16.7224 27.824 15 27.819ZM22.143 25.623C21.5751 22.5165 20.7421 19.4643 19.653 16.5C22.3187 16.1069 25.0379 16.2952 27.624 17.052C27.3511 18.7815 26.7233 20.4358 25.78 21.9108C24.8368 23.3859 23.5984 24.6498 22.143 25.623Z" fill="#444648"/>
</svg>
