<svg width="34" height="34" viewBox="0 0 34 34" fill="none" xmlns="http://www.w3.org/2000/svg">
<path fill-rule="evenodd" clip-rule="evenodd" d="M17 0C13.6377 0 10.3509 0.997033 7.55531 2.86502C4.75968 4.733 2.58075 7.38804 1.29406 10.4944C0.00736581 13.6007 -0.329291 17.0189 0.326658 20.3165C0.982607 23.6142 2.6017 26.6433 4.97919 29.0208C7.35669 31.3983 10.3858 33.0174 13.6835 33.6733C16.9811 34.3293 20.3993 33.9926 23.5056 32.706C26.612 31.4193 29.267 29.2403 31.135 26.4447C33.003 23.6491 34 20.3623 34 17C34 12.4913 32.2089 8.1673 29.0208 4.97918C25.8327 1.79107 21.5087 0 17 0V0ZM28.22 7.837C30.3117 10.3861 31.4693 13.5735 31.501 16.8708C31.0216 16.779 26.2276 15.8032 21.3962 16.4084C21.2874 16.1704 21.1922 15.912 21.0834 15.6536C20.7876 14.9532 20.4578 14.2358 20.1246 13.5524C25.5 11.3764 27.914 8.2416 28.22 7.837ZM17 2.5092C20.5469 2.506 23.9717 3.80407 26.6254 6.1574C26.367 6.528 24.174 9.4588 19.0094 11.3934C17.3901 8.44721 15.5832 5.60804 13.6 2.8934C14.7146 2.63383 15.8556 2.5049 17 2.5092ZM10.8222 3.8692C12.768 6.56672 14.5658 9.36791 16.2078 12.2604C11.8246 13.4076 7.31532 14.0026 2.78461 14.0318C3.25103 11.8336 4.21915 9.77298 5.6134 8.01071C7.00764 6.24843 8.7903 4.83222 10.8222 3.8726V3.8692ZM2.47181 17.017V16.575C7.51668 16.6014 12.5394 15.9064 17.3876 14.5112C17.8126 15.3238 18.1968 16.1534 18.5674 16.983L17.9962 17.1462C10.5094 19.5636 6.52801 26.18 6.19481 26.7172C3.79686 24.0555 2.47045 20.5996 2.47181 17.017V17.017ZM17 31.5282C13.7729 31.5339 10.6373 30.4563 8.09541 28.4682C8.35381 27.9344 11.3016 22.2564 19.4888 19.397C19.5262 19.397 19.5432 19.397 19.5806 19.3596C20.9614 22.9223 21.9986 26.6088 22.678 30.3688C20.8845 31.1393 18.952 31.5339 17 31.5282V31.5282ZM25.0954 29.0394C24.4518 25.5186 23.5077 22.0595 22.2734 18.7C25.2945 18.2545 28.3763 18.4679 31.3072 19.3256C30.9979 21.2857 30.2864 23.1605 29.2174 24.8322C28.1483 26.504 26.7449 27.9364 25.0954 29.0394V29.0394Z" fill="#FFCF87"/>
</svg>
