<svg width="34" height="34" viewBox="0 0 34 34" fill="none" xmlns="http://www.w3.org/2000/svg">
<path fill-rule="evenodd" clip-rule="evenodd" d="M17.0173 0.0626205C12.9775 0.0585145 9.06823 1.4932 5.99011 4.10957C2.91198 6.72594 0.866183 10.353 0.219356 14.3407C-0.42747 18.3284 0.366952 22.4161 2.46024 25.8713C4.55353 29.3265 7.80886 31.9234 11.6429 33.1964C12.4882 33.353 12.8012 32.8207 12.8012 32.372C12.8012 31.9233 12.8012 30.9006 12.8012 29.4813C8.07381 30.5249 7.07196 27.2063 7.07196 27.2063C6.75695 26.1777 6.08773 25.2941 5.18307 24.7121C3.649 23.6685 5.3083 23.6685 5.3083 23.6685C5.84605 23.7445 6.35947 23.9418 6.80968 24.2456C7.25988 24.5493 7.63508 24.9515 7.90683 25.4217C8.13773 25.8404 8.44903 26.2094 8.82288 26.5075C9.19673 26.8055 9.62576 27.0269 10.0854 27.1587C10.5449 27.2906 11.026 27.3304 11.5011 27.2759C11.9761 27.2214 12.4357 27.0736 12.8534 26.841C12.9189 25.9825 13.289 25.1757 13.897 24.566C10.1192 24.1381 6.1536 22.6771 6.1536 16.1651C6.12766 14.4776 6.75165 12.8448 7.89638 11.6047C7.38552 10.1376 7.44513 8.532 8.06336 7.10682C8.06336 7.10682 9.49307 6.64764 12.7386 8.8496C15.5256 8.08441 18.4673 8.08441 21.2543 8.8496C24.4998 6.64764 25.9191 7.10682 25.9191 7.10682C26.5438 8.52997 26.6072 10.1367 26.0965 11.6047C27.2412 12.8448 27.8652 14.4776 27.8393 16.1651C27.8393 22.698 23.8632 24.1277 20.075 24.5138C20.4812 24.9221 20.7949 25.413 20.9947 25.9532C21.1946 26.4934 21.276 27.0702 21.2334 27.6446C21.2334 29.9196 21.2334 31.7563 21.2334 32.3094C21.2334 32.8625 21.536 33.2904 22.4022 33.1338C26.2242 31.8488 29.4653 29.2478 31.5476 25.7949C33.6299 22.342 34.4179 18.2616 33.7711 14.2817C33.1243 10.3017 31.0847 6.6809 28.0161 4.0651C24.9475 1.44931 21.0495 0.00861819 17.0173 0V0.0626205Z" fill="#FFCF87"/>
</svg>
