<svg width="30" height="30" viewBox="0 0 30 30" fill="none" xmlns="http://www.w3.org/2000/svg">
<path fill-rule="evenodd" clip-rule="evenodd" d="M15.0191 0.0565433C11.4536 0.0528358 8.0034 1.34828 5.28672 3.71074C2.57004 6.0732 0.764471 9.34824 0.193598 12.949C-0.377275 16.5497 0.323862 20.2407 2.17135 23.3606C4.01883 26.4804 6.89191 28.8252 10.2757 29.9748C11.0217 30.1161 11.2981 29.6355 11.2981 29.2303C11.2981 28.8251 11.2981 27.9017 11.2981 26.6202C7.12574 27.5625 6.24153 24.5659 6.24153 24.5659C5.96352 23.6372 5.37288 22.8393 4.57445 22.3138C3.22052 21.3715 4.68497 21.3715 4.68497 21.3715C5.15958 21.4401 5.61271 21.6183 6.01005 21.8925C6.40739 22.1668 6.73853 22.53 6.97837 22.9546C7.18216 23.3326 7.4569 23.6658 7.78685 23.9349C8.1168 24.2041 8.49546 24.4039 8.90108 24.523C9.3067 24.6421 9.73131 24.678 10.1506 24.6288C10.5698 24.5796 10.9754 24.4461 11.3441 24.2361C11.4019 23.4609 11.7286 22.7324 12.2651 22.1819C8.93097 21.7955 5.43101 20.4763 5.43101 14.5963C5.40812 13.0726 5.95884 11.5982 6.96915 10.4784C6.51827 9.15373 6.57088 7.70398 7.11652 6.41711C7.11652 6.41711 8.37834 6.00249 11.2428 7.99076C13.7025 7.29982 16.2988 7.29982 18.7585 7.99076C21.6229 6.00249 22.8755 6.41711 22.8755 6.41711C23.4269 7.70215 23.4828 9.15297 23.0321 10.4784C24.0424 11.5982 24.5932 13.0726 24.5703 14.5963C24.5703 20.4952 21.0611 21.7861 17.7177 22.1348C18.0762 22.5035 18.353 22.9467 18.5294 23.4345C18.7058 23.9222 18.7777 24.4431 18.7401 24.9617C18.7401 27.0159 18.7401 28.6744 18.7401 29.1738C18.7401 29.6732 19.0072 30.0596 19.7716 29.9182C23.1448 28.7579 26.0054 26.4093 27.8431 23.2915C29.6809 20.1737 30.3764 16.4894 29.8055 12.8957C29.2347 9.30193 27.4346 6.03252 24.7263 3.67059C22.018 1.30865 18.5778 0.00778181 15.0191 0V0.0565433Z" fill="#FFFDF7"/>
</svg>
