<svg width="26" height="27" viewBox="0 0 26 27" fill="none" xmlns="http://www.w3.org/2000/svg">
<path d="M13.7852 1.71484C13.7852 1.28125 13.4219 0.917969 13 0.917969C12.5664 0.917969 12.2031 1.28125 12.2031 1.71484V4.28125C12.2031 4.70312 12.5664 5.07812 13 5.07812C13.4219 5.07812 13.7852 4.70312 13.7852 4.28125V1.71484ZM18.9648 6.44922C18.6602 6.75391 18.6602 7.25781 18.9648 7.5625C19.2695 7.86719 19.7734 7.87891 20.0898 7.5625L21.9062 5.74609C22.2109 5.44141 22.2109 4.92578 21.9062 4.62109C21.6016 4.31641 21.0977 4.31641 20.793 4.62109L18.9648 6.44922ZM5.89844 7.5625C6.19141 7.86719 6.70703 7.86719 7.01172 7.5625C7.31641 7.28125 7.31641 6.75391 7.01172 6.44922L5.20703 4.62109C4.91406 4.32812 4.39844 4.31641 4.09375 4.62109C3.78906 4.92578 3.78906 5.44141 4.08203 5.73438L5.89844 7.5625ZM12.9766 7.76172C9.82422 7.76172 7.21094 10.375 7.21094 13.5391C7.21094 16.7031 9.82422 19.3164 12.9766 19.3164C16.1406 19.3164 18.7539 16.7031 18.7539 13.5391C18.7539 10.375 16.1406 7.76172 12.9766 7.76172ZM24.8008 14.3359C25.2227 14.3359 25.5859 13.9609 25.5859 13.5391C25.5859 13.1055 25.2227 12.7422 24.8008 12.7422H22.2344C21.8125 12.7422 21.4492 13.1055 21.4492 13.5391C21.4492 13.9609 21.8125 14.3359 22.2344 14.3359H24.8008ZM1.19922 12.7422C0.765625 12.7422 0.402344 13.1055 0.402344 13.5391C0.402344 13.9609 0.765625 14.3359 1.19922 14.3359H3.75391C4.17578 14.3359 4.55078 13.9609 4.55078 13.5391C4.55078 13.1055 4.17578 12.7422 3.75391 12.7422H1.19922ZM20.0781 19.5156C19.7734 19.2109 19.2695 19.2109 18.9648 19.5156C18.6602 19.8203 18.6602 20.3242 18.9648 20.6289L20.793 22.457C21.0977 22.7617 21.6016 22.75 21.9062 22.4453C22.2109 22.1406 22.2109 21.6367 21.9062 21.332L20.0781 19.5156ZM4.07031 21.332C3.76562 21.625 3.76562 22.1406 4.07031 22.4453C4.36328 22.75 4.87891 22.75 5.18359 22.4453L7.01172 20.6406C7.31641 20.3359 7.31641 19.832 7.01172 19.5273C6.71875 19.2227 6.20312 19.2227 5.89844 19.5273L4.07031 21.332ZM13.7852 22.7969C13.7852 22.3633 13.4219 22 13 22C12.5664 22 12.2031 22.3633 12.2031 22.7969V25.3633C12.2031 25.7852 12.5664 26.1484 13 26.1484C13.4219 26.1484 13.7852 25.7852 13.7852 25.3633V22.7969Z" fill="#EEF2FA"/>
</svg>
