<svg width="34" height="34" viewBox="0 0 34 34" fill="none" xmlns="http://www.w3.org/2000/svg">
<path fill-rule="evenodd" clip-rule="evenodd" d="M32.6169 32.6169C33.5025 31.7313 34 30.5302 34 29.2778V4.72222C34 3.46981 33.5025 2.2687 32.6169 1.38311C31.7313 0.497518 30.5302 0 29.2778 0H4.72222C3.46981 0 2.2687 0.497518 1.38311 1.38311C0.497518 2.2687 0 3.46981 0 4.72222V29.2778C0 30.5302 0.497518 31.7313 1.38311 32.6169C2.2687 33.5025 3.46981 34 4.72222 34H29.2778C30.5302 34 31.7313 33.5025 32.6169 32.6169ZM10.3888 12.2778H5.6666V28.3333H10.3888V12.2778ZM7.09391 10.2335C7.38482 10.3481 7.69638 10.401 8.00882 10.3889C8.32364 10.4035 8.63807 10.3526 8.93218 10.2394C9.22629 10.1261 9.49369 9.95304 9.71742 9.73108C9.94116 9.50912 10.1164 9.24311 10.2319 8.94991C10.3475 8.65671 10.4009 8.3427 10.3888 8.02778C10.4021 7.71497 10.3504 7.40281 10.2371 7.11097C10.1237 6.81912 9.95112 6.55393 9.73018 6.3321C9.50924 6.11027 9.24474 5.93662 8.95335 5.82209C8.66196 5.70757 8.35001 5.65464 8.03716 5.66667C7.72275 5.65195 7.40873 5.70288 7.11509 5.8162C6.82145 5.92953 6.55463 6.10277 6.33162 6.32488C6.10862 6.547 5.93431 6.81313 5.81982 7.10631C5.70532 7.3995 5.65314 7.71332 5.6666 8.02778C5.65198 8.34012 5.7024 8.65209 5.81468 8.94391C5.92696 9.23574 6.09865 9.50105 6.31886 9.72304C6.53907 9.94502 6.80299 10.1188 7.09391 10.2335ZM23.611 28.3333H28.3333V19.1439C28.3333 14.4028 25.8022 12.2778 22.421 12.2778C21.5169 12.2225 20.6157 12.4259 19.8229 12.8641C19.0302 13.3023 18.3786 13.9572 17.9444 14.7522V12.2778H13.2222V28.3333H17.9444V19.8333C17.9067 19.2649 17.9385 18.6941 18.0388 18.1333C18.2145 17.5905 18.5558 17.1163 19.0149 16.7775C19.474 16.4387 20.0277 16.2523 20.5983 16.2444C22.4494 16.2444 23.611 17.6611 23.611 19.7389V28.3333Z" fill="#FFCF87"/>
</svg>
