<svg width="30" height="30" viewBox="0 0 30 30" fill="none" xmlns="http://www.w3.org/2000/svg">
<path fill-rule="evenodd" clip-rule="evenodd" d="M28.7796 28.7796C29.561 27.9982 30 26.9384 30 25.8333V4.16667C30 3.0616 29.561 2.00179 28.7796 1.22039C27.9982 0.438987 26.9384 0 25.8333 0H4.16667C3.0616 0 2.00179 0.438987 1.22039 1.22039C0.438987 2.00179 0 3.0616 0 4.16667V25.8333C0 26.9384 0.438987 27.9982 1.22039 28.7796C2.00179 29.561 3.0616 30 4.16667 30H25.8333C26.9384 30 27.9982 29.561 28.7796 28.7796ZM9.1666 10.8333H4.99994V25H9.1666V10.8333ZM6.25932 9.02951C6.51601 9.13065 6.79091 9.17735 7.0666 9.16666C7.34438 9.17956 7.62181 9.13463 7.88133 9.03472C8.14084 8.93481 8.37677 8.78209 8.57419 8.58624C8.7716 8.3904 8.92619 8.15568 9.02817 7.89698C9.13015 7.63827 9.17729 7.3612 9.1666 7.08333C9.17832 6.80732 9.13272 6.53189 9.0327 6.27438C8.93268 6.01687 8.78039 5.78288 8.58544 5.58714C8.3905 5.39141 8.15711 5.23819 7.90001 5.13714C7.6429 5.03608 7.36765 4.98939 7.0916 5C6.81419 4.98701 6.53711 5.03195 6.27801 5.13194C6.01892 5.23193 5.78349 5.38479 5.58672 5.58078C5.38995 5.77676 5.23615 6.01158 5.13513 6.27027C5.0341 6.52896 4.98806 6.80586 4.99994 7.08333C4.98703 7.35892 5.03152 7.63419 5.13059 7.89168C5.22967 8.14917 5.38115 8.38328 5.57546 8.57914C5.76976 8.77501 6.00264 8.92838 6.25932 9.02951ZM20.8333 25H24.9999V16.8917C24.9999 12.7083 22.7666 10.8333 19.7833 10.8333C18.9855 10.7846 18.1903 10.964 17.4908 11.3507C16.7913 11.7373 16.2164 12.3152 15.8333 13.0167V10.8333H11.6666V25H15.8333V17.5C15.8001 16.9985 15.828 16.4948 15.9166 16C16.0716 15.521 16.3728 15.1026 16.7779 14.8037C17.183 14.5047 17.6715 14.3402 18.1749 14.3333C19.8083 14.3333 20.8333 15.5833 20.8333 17.4167V25Z" fill="#444648"/>
</svg>
